<?xml version="1.0" encoding="utf-8" ?>
<svg xmlns="http://www.w3.org/2000/svg" xmlns:xlink="http://www.w3.org/1999/xlink" width="512" height="512">
	<path fill="#0F7273" d="M252.008 5.12161L271.88 5.51821C297.262 7.0448 322.436 12.1132 346.088 21.5064L359.931 27.7054C369.796 32.1514 379.592 37.0777 388.809 42.7719C403.461 51.8238 416.862 62.5652 429.407 74.3431C441.834 86.0109 453.527 98.8825 463.515 112.706C469.831 121.446 475.277 130.676 480.382 140.16C485.018 148.772 489.436 157.515 493.162 166.566C499.109 181.016 503.435 196.263 506.541 211.56C508.995 223.644 510.861 235.895 511.21 248.238C511.528 259.49 510.559 270.762 509.209 281.914C504.238 322.994 489.961 361.811 466.944 396.224C459.447 407.432 451.53 417.787 442.253 427.608C426.284 444.513 407.56 458.825 387.732 470.891C373.254 479.7 358.047 487.477 342.188 493.495C334.532 496.4 326.661 498.635 318.782 500.831C311.666 502.814 304.536 504.725 297.25 505.983C284.909 508.113 272.67 508.472 260.187 508.811L259.124 508.839C242.664 509.192 226.489 507.153 210.389 503.907C192.178 500.235 173.658 494.902 156.527 487.672C145.785 483.139 135.111 477.5 125.125 471.479L108.563 460.428L91.7033 448.19C86.0592 443.713 80.7316 438.836 75.5441 433.842C68.5452 427.105 62.0633 419.695 55.9831 412.125C21.9661 369.772 1.94986 316.196 1.0306 261.784C0.885976 253.224 1.02447 244.543 1.85718 236.02C3.54411 218.755 7.4591 201.971 12.667 185.454C16.954 171.858 22.1646 158.562 28.625 145.846C40.7484 121.984 57.1224 100.535 75.6997 81.3589C82.8086 74.0207 90.505 67.3201 98.4669 60.9292C135.188 31.4544 179.579 12.0209 226.429 6.41147C234.922 5.39461 243.469 5.25254 252.008 5.12161Z"/>
	<path fill="#FF6800" d="M332.421 132.233L331.674 130.23C330.246 125.628 329.579 119.747 332.009 115.375C333.139 113.343 334.803 111.635 336.496 110.068C339.416 107.367 342.665 105.01 345.768 102.524L357.728 92.6474C362.128 88.9795 366.034 84.7222 370.624 81.2875C372.133 80.158 373.756 79.0394 375.603 78.5538C378.021 77.9183 380.274 78.7232 382.357 79.9824L382.75 80.2257C388.323 83.6371 392.547 89.3074 397.235 93.7701L414.276 109.792C418.199 113.487 422.36 117.078 425.926 121.123C427.3 122.681 428.504 124.436 429.733 126.111C430.328 132.518 429.693 138.7 425.443 143.812C423.194 146.518 420.359 148.718 417.61 150.892L407.111 159.206L387.649 175.412C384.878 177.677 382.066 180.226 379.141 182.276C374.478 175.668 370.003 168.962 364.854 162.71C359.934 156.736 354.438 151.256 348.764 146.006C345.825 143.287 342.637 140.823 339.463 138.387C336.976 136.477 334.4 134.707 332.421 132.233Z"/>
	<path fill="#D04D28" d="M406.997 115.125C407.486 114.94 407.295 114.95 407.791 114.99C409.685 115.145 417.586 123.059 419.188 125.009C421.726 128.099 422.181 131.189 421.712 135.098C421.06 140.53 414.815 144.389 410.75 147.275L405.138 151.616C404.626 151.938 404.887 151.897 404.375 151.827L409.298 147.421C413.422 143.671 419.907 138.021 420.08 132.016C420.183 128.461 416.726 125.718 414.368 123.481C412.036 121.268 409.535 119.07 407.441 116.625C406.937 116.037 406.912 115.896 406.997 115.125Z"/>
	<path fill="#D04D28" d="M393.055 107.608C396.442 108.573 399.587 112.037 401.248 115.051C403.767 119.622 404.072 125.33 402.569 130.272C400.7 136.415 397.845 140.627 392.097 143.705C387.054 146.407 381.83 147.385 376.251 145.676C373.514 144.838 371.271 143.27 369.297 141.226L369.067 140.991C368.417 140.293 368.165 139.381 367.869 138.495L368.461 138.951C372.88 142.167 378.396 144.112 383.925 143.104L385.5 142.785C389.904 141.837 393.823 139.318 396.58 135.761C399.487 132.009 401.217 126.712 400.601 121.97L400.537 121.5C399.799 115.88 396.962 111.567 393.055 107.608Z"/>
	<path fill="#D04D28" d="M376.61 87.125L377.375 87.2523C378.117 87.7801 378.821 88.3623 378.999 89.3109C379.11 89.9049 379.05 90.0122 378.75 90.4923C377.816 90.4633 377.234 89.7897 376.505 89.2308C369.317 94.2394 362.811 100.333 356.135 106.006C351.933 109.576 347.278 112.97 343.353 116.812C342.297 117.845 340.874 119.252 340.464 120.699L340.402 120.944L340.278 121.445C340.044 122.849 340.817 124.439 341.6 125.552C343.664 128.488 346.41 130.909 349.016 133.346L358.368 142.125L375.067 158.47L379.878 163.26C380.74 164.123 381.791 165.019 382.477 166.021L382.712 166.375L382.617 166.654C382.263 167.248 381.978 167.398 381.375 167.639C378.398 165.12 375.661 162.115 372.875 159.377L356.106 142.959L346.875 134.496C344.932 132.816 342.823 131.309 340.988 129.507C339.943 128.481 339.046 127.36 338.474 126C337.704 124.169 337.551 120.123 338.39 118.313C339.326 116.292 342.479 113.964 344.174 112.486C347.604 109.494 351.378 106.891 354.92 104.033L366.968 94.13C369.909 91.7023 373.036 88.5257 376.61 87.125Z"/>
	<path fill="#F4C477" d="M367.869 138.495C364.566 135.088 362.141 130.75 361.331 126.047C360.512 121.291 362.491 115.543 365.23 111.701C368.501 107.116 372.995 104.037 378.625 103.155C383.823 102.341 388.959 104.618 393.055 107.608C396.962 111.567 399.799 115.88 400.537 121.5L400.601 121.97C401.217 126.712 399.487 132.009 396.58 135.761C393.823 139.318 389.904 141.837 385.5 142.785L383.925 143.104C378.396 144.112 372.88 142.167 368.461 138.951L367.869 138.495Z"/>
	<path fill="#F4C477" d="M112.821 217.82C110.402 215.682 108.17 213.028 107.339 209.843C105.369 202.292 114.841 197.398 119.239 192.765C120.149 191.806 120.791 190.696 121.434 189.55C119.697 189.492 117.843 189.938 116.113 190.162C112.476 190.633 108.771 191.565 105.625 193.532C100.188 196.93 96.8677 204.052 90.2099 205.253L89.875 205.31C88.1652 205.636 86.509 205.268 84.875 204.712C81.4074 203.534 78.5235 201.383 75.6638 199.157L66.0981 191.387L57.885 185.168L51.7874 180.748C49.6323 179.304 47.3236 177.948 45.3213 176.298C43.9967 175.206 42.3058 173.615 41.6286 172.011C40.8622 170.196 41.276 167.259 41.9529 165.5C43.18 162.31 45.7722 159.565 48.1702 157.199C56.6697 148.813 65.9076 141.241 74.9747 133.492L122.825 93.4777L137.896 80.6774C140.906 78.1919 143.886 75.3364 147.542 73.8343C149.291 73.1154 152.197 73.0015 153.952 73.7982C155.728 74.6049 157.307 75.911 158.803 77.1474L171.272 88.4773L197.828 111.957C199.304 113.319 202.591 115.581 203.288 117.361L178.018 129.695L176.709 129.945C175.134 131.439 173.337 132.727 171.646 134.089L162.2 141.691L155.557 147.024C154.131 148.17 152.696 149.492 151.093 150.38C150.522 151.161 150.034 151.761 149.257 152.343C145.313 156.699 141.34 161.089 137.755 165.749C126.037 180.982 116.437 198.829 112.821 217.82Z"/>
	<path fill="#555E57" d="M149.257 152.343C148.251 151.988 147.235 151.836 146.208 151.571C141.22 150.282 137.267 146.984 134.793 142.522C132.233 137.905 131.411 131.755 132.844 126.657L132.963 126.25C133.665 123.782 134.641 121.481 136.154 119.397C139.571 114.693 144.91 111.338 150.678 110.474C157.245 109.49 163.099 110.439 168.656 114.22C174.298 118.059 176.739 123.164 178.018 129.695L176.709 129.945C173.566 122.34 170.257 117.133 162.367 113.852C158.907 112.413 155.147 112.223 151.5 112.928C146.128 113.967 141.514 116.173 138.318 120.814C134.948 125.709 134.148 131.311 135.295 137.071C136.086 141.045 138.54 144.376 141.876 146.597C144.659 148.449 147.967 149.308 151.093 150.38C150.522 151.161 150.034 151.761 149.257 152.343Z"/>
	<path fill="#F4C477" d="M151.093 150.38C147.967 149.308 144.659 148.449 141.876 146.597C138.54 144.376 136.086 141.045 135.295 137.071C134.148 131.311 134.948 125.709 138.318 120.814C141.514 116.173 146.128 113.967 151.5 112.928C155.147 112.223 158.907 112.413 162.367 113.852C170.257 117.133 173.566 122.34 176.709 129.945C175.134 131.439 173.337 132.727 171.646 134.089L162.2 141.691L155.557 147.024C154.131 148.17 152.696 149.492 151.093 150.38Z"/>
	<path fill="#555E57" d="M108.39 135.811C109.706 135.543 111.618 135.717 112.969 135.831C118.955 136.34 125.048 138.754 128.934 143.504C132.669 148.069 135.794 155.02 135.111 161.048C134.907 162.842 134.665 164.554 134.092 166.277C132.177 172.04 128.286 177.603 122.721 180.36C120.345 181.538 118.321 182.285 115.717 182.784C109.42 183.575 104.802 182.381 99.4608 179.104C93.6767 175.556 90.5574 170.488 88.9149 164.012C88.2099 161.232 88.1761 158.179 88.6578 155.356L88.7212 155C89.2785 151.691 90.6245 148.523 92.5012 145.75C96.2681 140.184 101.876 137.064 108.39 135.811Z"/>
	<path fill="#F4C477" d="M110.337 138.362C111.313 138.198 112.574 138.427 113.564 138.551C119.001 139.23 124.403 141.949 127.765 146.311C130.94 150.43 133.073 156.344 132.343 161.595L132.283 162C131.74 165.988 129.864 169.859 127.311 172.944C123.657 177.358 118.624 179.107 113.087 179.648C111.005 179.777 109.069 179.725 107.048 179.146L106.625 179.022C103.989 178.285 101.592 177.137 99.4697 175.391C94.6345 171.411 91.642 166.268 91.0671 159.967C90.556 154.365 92.9062 149.159 96.4491 144.94C99.9821 140.732 104.989 138.78 110.337 138.362Z"/>
	<path fill="#292A32" d="M203.288 117.361L203.551 117.322C206.577 116.848 209.571 115.603 212.5 114.71C217.77 113.103 222.911 111.666 228.345 110.704C246.598 107.472 266.202 107.597 284.245 112.018C295.247 114.714 305.936 118.965 316.166 123.79C319.05 125.151 321.848 126.716 324.571 128.375C326.337 129.451 327.998 130.613 329.875 131.496C330.774 131.919 331.402 132.345 332.421 132.233C334.4 134.707 336.976 136.477 339.463 138.387C342.637 140.823 345.825 143.287 348.764 146.006C354.438 151.256 359.934 156.736 364.854 162.71C370.003 168.962 374.478 175.668 379.141 182.276C382.066 180.226 384.878 177.677 387.649 175.412L407.111 159.206L417.61 150.892C420.359 148.718 423.194 146.518 425.443 143.812C429.693 138.7 430.328 132.518 429.733 126.111C434.346 128.9 438.632 133.242 440.002 138.625C440.787 141.709 439.65 145.227 438.054 147.879C435.852 151.538 432.522 154.487 429.353 157.286L415.395 168.922C405.538 177.204 395.679 185.841 385.196 193.304L385.367 193.569C388.916 199.186 391.05 206.191 393.272 212.447C395.867 219.753 397.971 227.201 399.181 234.867C401.459 249.295 400.932 264.034 399.124 278.482C398.466 283.736 396.89 289.036 396.432 294.277L425.491 316.019L436.235 323.905C439.586 326.355 443.134 328.876 445.67 332.21C448.248 332.267 451.465 332.728 453.721 334.064C457.621 336.375 460.797 341.049 461.81 345.409C462.64 348.982 461.864 352.901 459.883 355.976C457.421 359.798 453.551 363.234 450.241 366.325L439.249 376.572L421.767 392.698C416.534 397.509 411.202 402.602 405.431 406.76C404.043 407.76 402.632 408.517 400.931 408.833L399.5 409.045L399.071 409.107C394.709 409.689 389.522 408.597 385.17 408.019C382.341 407.644 378.759 407.45 376.168 406.289C373.551 405.116 371.084 402.958 368.819 401.208L360.843 395.199L340.463 379.875L339.667 379.215C332.591 383.51 325.658 388.021 318.193 391.635C288.13 406.191 253.562 410.683 220.97 402.838C212.983 400.915 204.81 398.269 197.321 394.881C193.999 393.377 190.792 391.323 187.454 389.97L152.15 421.145L142.065 430.023C139.838 431.995 137.599 434.324 135.018 435.812L134.7 435.997C133.171 436.852 130.842 437.352 129.16 436.75C125.375 435.398 122.707 431.228 120.915 427.881C119.684 425.581 118.545 423.151 116.4 421.547C114.292 420.893 112.417 419.919 110.771 418.442C108.826 416.696 107.212 414.471 105.498 412.5L96.3685 402.278L84.1214 389.777C80.9747 386.645 77.6368 383.573 74.9646 380.014C71.7924 375.789 70.5286 370.51 71.2849 365.295C71.7398 362.158 73.2893 359.387 75.3653 357.029C77.02 355.149 79.1629 353.679 81.0804 352.077L91.6344 343.32L109.375 328.925L121.403 319.293C119.186 315.132 117.436 310.569 115.814 306.148C109.044 287.682 105.542 266.415 107.867 246.771L110.934 227.541C111.522 224.419 112.437 221.257 112.79 218.107L112.821 217.82C116.437 198.829 126.037 180.982 137.755 165.749C141.34 161.089 145.313 156.699 149.257 152.343C150.034 151.761 150.522 151.161 151.093 150.38C152.696 149.492 154.131 148.17 155.557 147.024L162.2 141.691L171.646 134.089C173.337 132.727 175.134 131.439 176.709 129.945L178.018 129.695L203.288 117.361Z"/>
	<path fill="#F4C477" d="M396.432 294.277L425.491 316.019L436.235 323.905C439.586 326.355 443.134 328.876 445.67 332.21C447.085 334.93 447.995 337.486 447.075 340.564C446.337 343.036 444.634 345.355 442.879 347.211C438.097 352.268 432.397 356.31 427.199 360.893L405.69 380.024C400.851 384.344 395.776 390.065 389.945 392.981C387.186 394.36 383.179 395.338 380.18 394.324C378.36 393.708 376.675 392.906 375.1 391.799C372.728 390.132 370.529 388.105 368.332 386.217L356.25 375.767L353.193 373.297C352.557 372.83 351.72 372.381 351.216 371.785L369.126 353.189C369.388 352.696 370.014 352.106 370.382 351.664L387.478 320.918L388.56 318.594C392.038 310.926 394.173 302.374 396.432 294.277Z"/>
	<path fill="#D04D28" d="M387.478 320.918L388.56 318.594C394.394 319.546 400.942 324.643 404.283 329.349C405.555 331.142 406.434 333.001 407.171 335.066C408.649 339.207 408.293 343.181 407.493 347.396C406.415 353.071 402.614 358.327 397.847 361.523C394.32 363.887 388.431 365.939 384.201 365.122C378.451 364.012 373.516 360.031 370.341 355.215L369.757 354.25L369.126 353.189C369.388 352.696 370.014 352.106 370.382 351.664C372.581 353.825 374.543 356.119 377.057 357.94C380.503 360.438 384.783 361.565 389.021 360.847C390.269 360.636 391.431 360.444 392.625 359.998C397.318 358.246 401.236 354.324 403.202 349.75C405.349 344.754 405.166 339.301 403.168 334.275C401.297 329.567 397.462 325.1 392.846 322.938C391.101 322.12 389.245 321.67 387.478 320.918Z"/>
	<path fill="#F4C477" d="M387.478 320.918C389.245 321.67 391.101 322.12 392.846 322.938C397.462 325.1 401.297 329.567 403.168 334.275C405.166 339.301 405.349 344.754 403.202 349.75C401.236 354.324 397.318 358.246 392.625 359.998C391.431 360.444 390.269 360.636 389.021 360.847C384.783 361.565 380.503 360.438 377.057 357.94C374.543 356.119 372.581 353.825 370.382 351.664L387.478 320.918Z"/>
	<path fill="#FF6800" d="M121.403 319.293L124.966 325.683C125.505 326.414 126.036 327.093 126.39 327.934C134.707 340.256 142.811 352.472 153.416 363.019L163.326 371.947L168.549 376.14C169.415 376.826 170.48 377.49 171.138 378.371L138.513 406.091C133.984 409.989 129.857 414.547 124.931 417.943C122.254 419.788 119.645 421.09 116.4 421.547C114.292 420.893 112.417 419.919 110.771 418.442C108.826 416.696 107.212 414.471 105.498 412.5L96.3685 402.278L84.1214 389.777C80.9747 386.645 77.6368 383.573 74.9646 380.014C71.7924 375.789 70.5286 370.51 71.2849 365.295C71.7398 362.158 73.2893 359.387 75.3653 357.029C77.02 355.149 79.1629 353.679 81.0804 352.077L91.6344 343.32L109.375 328.925L121.403 319.293Z"/>
	<path fill="#D04D28" d="M136.531 355.105C138.952 355.683 140.68 357.084 142.019 359.176C145.096 363.987 146.576 370.803 145.181 376.372C143.705 382.265 140.109 387.166 134.883 390.256C130.244 392.997 124.859 394.022 119.599 392.64C115.805 391.643 110.498 388.422 108.571 384.911C108.307 384.429 108.196 383.906 108.063 383.379L107.96 382.995L107.903 382.762C111.211 386.262 115.727 388.278 120.396 389.096C125.131 389.927 130.975 388.458 134.866 385.721C138.629 383.075 141.188 378.541 141.973 374.05L142.044 373.625L142.22 372.493C142.768 366.235 140.404 359.947 136.531 355.105Z"/>
	<path fill="#D04D28" d="M124.966 325.683C125.505 326.414 126.036 327.093 126.39 327.934C124.355 329.025 122.278 331.266 120.41 332.732L96.671 352.125L87.6825 359.429C85.8453 360.871 83.8414 362.205 82.2727 363.952C81.2375 365.105 79.7133 367.003 79.9852 368.625C80.2466 370.184 81.6027 371.726 82.5663 372.919C85.2236 376.212 88.1473 379.24 91.1279 382.236L106.471 397.771C109.831 401.18 113.577 404.611 116.442 408.444C117.164 409.411 117.886 410.389 117.951 411.625L117.431 412.154L116.625 412.024C112.414 407.982 108.697 403.377 104.61 399.192L90.5473 385.187L83.1557 377.802C81.7108 376.285 79.9499 374.425 79.0044 372.554L78.875 372.289C78.7195 371.991 78.5551 371.72 78.4507 371.397C77.9665 369.9 77.8318 366.667 78.6058 365.265L78.7636 365C79.4543 363.822 80.2597 362.814 81.2466 361.875C84.4297 358.845 88.1936 356.335 91.5688 353.508L113.271 335.416L119.382 330.661C121.237 329.251 123.335 327.74 124.788 325.917L124.966 325.683Z"/>
	<path fill="#F4C477" d="M107.903 382.762C105.48 379.578 103.822 375.916 103.302 371.931C102.58 366.403 104.217 360.141 107.649 355.748C110.819 351.691 114.898 349.4 120.025 348.796C121.467 348.626 122.92 348.864 124.342 349.095C129.333 349.905 132.642 351.972 136.531 355.105C140.404 359.947 142.768 366.235 142.22 372.493L142.044 373.625L141.973 374.05C141.188 378.541 138.629 383.075 134.866 385.721C130.975 388.458 125.131 389.927 120.396 389.096C115.727 388.278 111.211 386.262 107.903 382.762Z"/>
	<path fill="#F4C477" d="M246.695 119.606C255.152 118.824 264.33 119.914 272.652 121.421C277.6 122.316 282.598 123.232 287.444 124.6C306.608 130.006 324.7 140.155 340.123 152.642C366.985 174.39 385.554 209.237 389.066 243.522C392.693 278.922 382.912 315.621 360.384 343.328C343.734 363.808 321.641 378.415 296.649 386.696C292.502 388.07 288.362 389.47 284.098 390.444C276.37 392.21 268.385 393.008 260.512 393.827L257.831 394.091C251.76 394.589 245.445 394.013 239.404 393.359C219.261 391.179 199.52 384.146 182.527 373.055C176.225 368.941 170.444 364.261 164.711 359.397C160.551 355.868 156.776 351.68 153.196 347.569C134.246 325.804 120.825 297.427 118.504 268.452C115.672 233.087 126.567 196.992 149.589 169.853C159.377 158.314 170.526 147.52 183.56 139.66C190.965 135.194 199.088 131.725 207.163 128.67C214.036 126.07 220.766 123.684 227.971 122.125C234.047 120.81 240.5 120.115 246.695 119.606Z"/>
	<path fill="#292A32" d="M249.854 149.604L250.257 149.558C254.646 149.249 259.258 149.619 263.632 150.031C287.053 152.238 308.769 162.34 326.349 177.875C346.438 195.627 358.858 223.694 360.441 250.333C361.979 276.211 354.755 305.187 337.172 324.875C321.551 342.367 300.813 356.006 277.786 361.27C271.619 362.679 265.328 363.309 259.024 363.696C246.319 363.968 234.428 362.459 222.25 358.784C217.975 357.495 213.505 356.079 209.435 354.231C200.41 350.135 191.849 344.359 184.28 337.995C163.078 320.166 150.693 294.472 148.381 266.994C146.519 244.858 152.428 220.985 163.77 201.984C167.476 195.777 171.879 190.139 176.553 184.641C179.653 180.994 183.194 177.891 186.869 174.844C204.73 160.035 226.783 151.472 249.854 149.604Z"/>
	<path fill="#FF6800" d="M235.149 162.073C241.733 160.425 248.585 159.8 255.346 159.465L255.528 183.256L235.182 182.987L235.149 162.073Z"/>
	<path fill="#FF6800" d="M235.167 329.019L255.8 328.991L255.791 353.268L242.802 352.539C240.264 352.301 237.361 352.007 234.951 351.182L235.167 329.019Z"/>
	<path fill="#F4C477" d="M263.747 160L274.765 162.056C286.124 164.696 297.146 169.26 306.984 175.544C321.793 185.004 334.013 199.327 341.375 215.236C345.153 223.401 347.567 231.824 349.493 240.581C351.019 247.522 351.297 255.136 350.854 262.217C350.077 274.649 347.2 286.412 341.884 297.714C339.39 303.018 336.371 307.945 333.199 312.861C321.457 331.058 300.743 343.595 280.283 349.46C274.797 351.032 269.075 351.85 263.498 353.053L263.483 329.236C271.571 329.252 280.2 329.9 288.189 328.685C292.931 327.861 298.066 325.46 301.754 322.374C307.781 317.33 311.877 311.027 312.472 303.046C312.755 299.24 312.591 295.293 312.63 291.472C312.681 286.33 313.176 280.806 312.248 275.742C311.28 270.455 308.82 265.388 305.809 260.979C303.037 256.919 299.821 253.152 295.986 250.056C288.276 243.833 278.681 240.373 269.426 237.159L251.486 231.066C246.815 229.539 240.966 228.743 237.661 224.699C236.427 223.189 236.015 220.993 236.335 219.091C236.582 217.625 237.663 216.311 238.894 215.53C239.779 214.969 240.637 214.616 241.676 214.461C244.081 214.104 246.64 214.238 249.067 214.234L262.139 214.38C267.362 214.508 273.086 214.014 278.161 215.363C282.772 216.59 286.038 220.818 288.353 224.734L312.759 224.723L312.281 204.625C311.909 201.291 310.93 197.91 309.074 195.086C305.079 189.007 297.991 185.088 291 183.689C286.789 182.846 282.436 182.964 278.161 183.018L263.531 183.234L263.747 160Z"/>
	<path fill="#FF6800" d="M225.351 188.326L227.453 188.255L271.355 188.407L284.519 188.475C286.647 188.489 289.073 188.289 291.154 188.683C295.519 189.509 299.84 192.127 302.977 195.218C304.822 197.035 306.327 199.25 307.118 201.73C307.891 204.159 307.785 206.919 307.804 209.442L307.849 219.011L296.519 219.216C295.075 219.24 293.045 219.503 291.68 219.195C290.937 219.027 289.969 217.928 289.422 217.425C284.796 213.165 280.674 209.854 274.13 209.549L253.846 209.497L246.025 209.501C244.464 209.505 242.813 209.387 241.275 209.657C238.802 210.09 235.911 211.3 234.086 213.066C232.225 214.867 231.175 217.134 231.161 219.727C231.136 224.024 233.037 227.56 236.37 230.218C241.133 234.015 247.141 235.617 252.795 237.543L266.569 242.499C276.715 246.139 287.823 249.724 295.652 257.488C301.99 263.773 307.658 272.459 307.742 281.633L307.757 294.107C307.772 302.56 307.796 309.792 301.425 316.19C299.157 318.468 296.506 320.511 293.528 321.762C287.245 324.403 279.727 324.011 273.02 324.018L229.5 324.231C222.457 324.034 216.237 319.692 211.56 314.755C208.54 311.567 205.985 307.584 204.746 303.348C202.839 296.831 203.595 289.222 203.747 282.493L226.993 282.238C226.964 285.196 226.877 288.631 227.434 291.533C228.168 295.359 231.024 298.968 234.306 300.982C235.412 301.661 236.741 302.259 238.038 302.451C242.989 303.185 248.283 302.766 253.289 302.761L262.296 302.744C264.83 302.734 267.3 302.789 269.777 302.17C273.935 301.13 277.29 299.409 280.017 296C282.504 292.893 283.744 288.216 283.178 284.289C282.5 279.584 280.317 275.543 276.586 272.55C271.711 268.639 265.282 266.782 259.424 264.875L241.498 259.014C233.229 256.308 224.733 254.04 217.657 248.73C211.356 244.002 205.952 236.135 204.932 228.209C204.58 225.471 204.737 222.575 204.735 219.811C204.731 211.306 205.118 204.308 210.561 197.289C214.376 192.37 219.086 189.126 225.351 188.326Z"/>
	<path fill="#F4C477" d="M235.149 162.073L235.182 182.987C231.216 183.008 227.159 182.879 223.239 183.576C218.057 184.497 212.87 187.436 209.165 191.144C202.216 198.097 199.478 206.859 199.538 216.504C199.562 220.423 199.392 224.595 199.827 228.482C200.721 236.485 204.756 244.237 210.476 249.827C218.143 257.32 229.887 260.96 239.807 264.378L259.654 271.134C264.425 272.783 269.888 274.226 273.979 277.285C276.55 279.207 278.43 282.455 278.5 285.702C278.564 288.677 276.906 292.235 274.809 294.308C273.162 295.936 270.788 296.901 268.526 297.326C266.693 297.671 264.616 297.514 262.754 297.512L253.183 297.521L243.613 297.732C242.308 297.698 241.097 297.494 239.816 297.271C237.175 296.812 234.814 295.147 233.261 292.989C232.457 291.873 231.983 290.589 231.712 289.25L231.65 288.954C231.379 287.531 231.489 285.975 231.491 284.53L231.578 277.015L198.863 277.244L198.961 291.68C198.975 295.752 198.845 299.868 199.682 303.875L199.771 304.323C201.319 311.868 207.859 319.332 214.125 323.448C216.603 325.075 219.3 326.647 222.13 327.57C226.342 328.944 230.783 329.015 235.167 329.019L234.951 351.182C222.741 349.105 210.72 344.077 200.25 337.497C179.921 324.721 165.833 303.748 160.454 280.506C154.944 256.694 158.507 229.955 171.524 209.088C185.819 186.174 208.646 168.193 235.149 162.073Z"/>
</svg>
