<?xml version="1.0" encoding="utf-8" ?>
<svg xmlns="http://www.w3.org/2000/svg" xmlns:xlink="http://www.w3.org/1999/xlink" width="512" height="512">
	<path fill="#EE8D0B" d="M403.637 22.8561C405.269 22.6102 407.192 22.754 408.853 22.7216C418.192 22.5396 427.903 23.2527 437.001 25.4316C450.779 28.7313 464.476 35.3604 474.922 44.9989C480.332 49.9906 484.917 55.9056 488.757 62.1708C495.923 73.8638 499.67 87.3989 501.106 100.942C502.558 114.638 501.844 127.984 498.498 141.375C490.834 172.052 467.874 194.331 442.125 210.957C439.508 212.646 436.628 214.029 433.95 215.647C436.143 219.286 438.24 222.913 439.907 226.832C446.294 241.839 447.987 258.335 446.21 274.489C443.494 299.193 432.69 321.294 415.375 339.071C411.405 343.148 407.026 346.853 402.586 350.405C390.874 359.776 377.536 367.15 364 373.528C350.178 380.04 333.644 387.462 317.99 385.598C314.123 385.138 310.5 384.468 306.732 383.463C313.126 396.388 321.537 408.84 325.747 422.729C326.683 425.815 327.736 429.821 327.095 433.056L327.027 433.375C326.656 435.168 325.831 436.535 324.414 437.717C323.609 438.388 322.519 438.784 321.491 438.955C319.812 439.233 318.006 438.927 316.342 438.685L306.25 436.941C300.038 436.122 292.729 436.923 286.743 438.716C278.61 441.151 270.501 446.129 268.695 455.083C268.081 458.133 267.851 461.995 266.248 464.706C265.399 466.142 263.988 467.143 262.373 467.503L262.002 467.581C261.386 467.716 260.784 467.863 260.148 467.861C254.299 467.843 248.053 461.682 243.633 458.497L234.033 451.787C221.073 441.814 209.367 429.943 201.712 415.342C198.015 408.289 195.45 400.866 193.472 393.174C190.901 383.176 190.148 372.933 189.823 362.654C189.814 362.367 189.988 362.006 189.796 361.792C189.517 361.483 186.77 360.909 186.165 360.631C184.664 359.94 183.619 358.975 182.486 357.816L63.3155 477.443L46.5428 494.995C42.2088 498.958 36.2642 502.111 30.194 501.691C24.5168 501.299 18.9433 498.197 15.2939 493.899C11.3253 489.224 10.0504 483.762 10.5795 477.75C10.9667 473.349 13.3887 469.323 16.1534 465.998C17.6918 464.148 19.6622 462.534 21.3937 460.86L30.2466 452.123L64.665 417.988L109.59 373.352L126.91 356.171L136.494 346.713L144.23 340.336C141.345 340.736 138.445 341.277 135.536 341.436C119.175 342.331 102.116 338.275 87.5 330.973C82.4944 328.472 77.7351 325.382 72.857 322.631C67.691 319.718 62.3315 317.323 57.3029 314.142C54.3158 312.253 50.2302 309.262 49.4696 305.574L49.4124 305.267L49.2727 304.434C48.8088 298.056 55.3986 295.935 59.8032 293.332C62.7481 291.592 65.641 289.557 67.7975 286.871C76.0349 276.608 71.0915 263.556 65.4157 253.322C62.7479 248.512 59.4301 243.884 58.8472 238.25C58.374 233.676 58.431 226.884 61.5474 223.195C62.9787 221.501 65.4286 220.656 67.5922 220.501C73.2756 220.095 79.0807 220.513 84.774 220.662C98.2551 221.014 111.576 221.929 124.691 225.338C126.441 225.793 128.099 226.504 129.818 227.054C137.034 229.364 143.711 232.044 150.48 235.451C158.282 239.378 166.06 244.111 172.636 249.91C177.422 254.132 181.904 258.802 185.795 263.864C187.161 265.641 188.308 267.421 189.474 269.327C189.652 269.618 190.573 271.346 190.781 271.442C191.459 271.753 193.551 271.674 194.375 271.803C196.317 272.108 197.997 272.65 199.799 273.442C200.553 272.865 201.125 271.878 201.762 271.156L205.44 267.383L215.975 256.637C221.161 251.12 226.199 245.529 231.921 240.548C227.244 232.319 225.094 222.675 224.377 213.319C222.901 194.053 229.491 175.301 242.037 160.747C254.709 146.046 275.058 139.045 293.962 137.658C293.973 131.993 295.017 125.935 296.202 120.417C300.984 98.1344 311.235 76.0807 326.464 58.9921C340.285 43.4841 358.781 31.8052 378.951 26.519C387.053 24.3954 395.288 23.33 403.637 22.8561ZM409.742 38.1205C405.032 38.2537 400.279 38.2527 395.602 38.8672C374.401 41.6524 353.969 51.8185 339.246 67.3874C321.323 86.3397 311.435 110.609 309.473 136.48C314.491 137.283 319.717 136.771 324.795 137.611C343.789 140.752 361.534 151.792 372.767 167.5C375.91 171.895 379.703 177.738 380.884 183.09C387.382 184.568 394.619 185.374 400.566 188.598C406.003 190.969 411.127 193.922 416.092 197.153C418.918 198.993 422.107 201.033 424.483 203.44L443.267 191.291C452.325 184.772 461.229 177.143 468.132 168.327C475.463 158.964 481.048 147.113 483.647 135.503C488.663 113.103 486.417 87.0766 473.863 67.387C469.641 60.7651 464.247 54.9689 457.738 50.5524C449.478 44.9487 439.756 41.7698 430.092 39.6659C423.437 38.217 416.53 38.012 409.742 38.1205ZM384.43 198.279C384.657 203.573 384.96 208.835 384.379 214.125C382.724 229.174 375.171 243.921 365.01 254.983C349.752 271.593 328.542 281.729 305.96 282.702C302.128 282.867 298.209 282.869 294.398 282.401C293.248 282.259 292.114 282.024 290.981 281.783C290.785 281.742 289.886 281.495 289.72 281.54C288.652 281.826 244.574 317.069 241.875 319.954C241.348 320.518 239.959 322.024 239.919 322.781C243.151 323.38 246.222 324.579 249.318 325.659C261.551 329.927 272.923 335.773 281.897 345.323C286.521 350.244 290.259 355.923 294.83 360.843C296.108 362.007 297.398 363.219 298.875 364.13C305.724 368.357 315.43 370.088 323.375 369.727C332.116 369.329 340.295 366.55 348.38 363.417C370.382 354.891 391.636 342.161 407.408 324.375C419.069 311.225 427.522 295.426 430.433 277.982C431.571 271.163 431.757 263.939 431.329 257.047C430.277 240.099 424.072 224.58 411.151 213.184C407.247 209.74 402.764 206.649 398.124 204.27C393.711 202.007 388.99 200.233 384.43 198.279ZM300.989 151.895C281.964 153.749 263.086 158.981 250.512 174.349C240.724 186.312 238.924 202.753 240.519 217.611C241.864 230.138 249.616 242.674 259.376 250.45C270.298 259.151 281.947 264.385 295.75 266.531C299.195 267.067 303.551 267.673 306.991 267.203L307.31 267.135C317.092 265.901 326.69 263.502 335.398 258.751C338.627 256.99 341.681 254.823 344.622 252.622C348.662 249.596 352.428 246.328 355.542 242.323C365.199 229.904 370.784 214.392 368.753 198.502C368.326 195.162 367.526 192.122 366.522 188.92C365.25 184.863 362.945 180.866 360.551 177.375C355.448 169.931 348.756 163.113 340.666 158.938C335.532 156.288 330.291 154.122 324.586 153.06C321.314 152.452 318.053 152.278 314.75 151.976C310.301 151.57 305.437 151.374 300.989 151.895ZM228.473 334.948C224.784 337.813 221.397 341.123 217.875 344.196L209.738 351.375C208.22 352.718 206.355 354.025 205.261 355.743C205.665 363.46 205.69 371.209 206.821 378.875C209.927 399.906 219.658 418.777 235.508 433.029L255.376 448.017C256.386 446.036 257.206 443.886 258.305 441.968C260.909 437.426 264.614 433.891 268.618 430.588C276.767 424.736 287.212 421.516 297.226 421.251C301.019 421.151 304.827 421.647 308.593 421.427C307.229 417.934 305.488 414.634 303.867 411.257L298.04 399.166L290.005 385.147L279.892 368.08C276.937 363.415 273.927 358.883 270.05 354.916C265.137 349.888 258.77 346.084 252.375 343.252L228.473 334.948ZM73.7575 235.98C76.7354 242.268 80.4563 248.157 83.3105 254.486C87.7318 264.29 89.1416 275.892 85.5701 286.163C83.6986 291.545 80.3473 296.73 76.1635 300.595C74.9378 301.728 72.7648 303.208 71.9918 304.605C74.3955 305.423 76.5103 306.78 78.6866 308.065L89.9599 314.686C95.457 317.638 101.164 320.823 107.125 322.754C117.118 325.992 127.186 326.023 137.532 325.21C141.534 324.896 145.547 324.134 149.551 323.924C147.975 320.507 146.497 316.764 147.613 312.975C150.013 308.207 153.334 304.737 156.944 300.867L164.776 292.422L177.807 278.616L177.566 278.367C173.552 274.155 170.441 269.235 166.214 265.154C153.03 252.426 136.627 243.554 118.75 239.489C108.892 237.248 98.8271 236.504 88.7473 236.22L73.7575 235.98ZM191.691 288.125C188.454 288.857 181.684 297.27 179.197 299.921L168.621 311.108C166.681 313.156 164.794 315.332 162.742 317.264C170.507 328.806 179.147 340.401 192.497 345.852L194.141 344.716L208.452 332.19C213.886 327.445 219.475 322.848 224.349 317.511C218.29 309.887 213.233 301.352 205.828 294.872C203.244 292.61 200.726 290.707 197.5 289.455C196.224 288.961 194.835 288.394 193.467 288.241L191.691 288.125ZM163.099 343.376L137.94 367.966L84.8535 420.183L45.575 458.75L38.6406 465.4C35.6262 468.119 32.4759 470.744 29.7577 473.768C27.9088 475.826 26.375 477.727 26.2472 480.625C26.1891 481.942 26.4511 483.218 27.1131 484.366C28.7625 485.492 30.2049 486.143 32.2717 485.786L32.684 485.704C37.6472 482.817 40.7096 477.853 44.625 473.805L57.8167 460.641L133.78 385.028L156.989 361.887C161.233 357.655 165.393 353.007 170.023 349.211L163.099 343.376ZM240.839 253.658L221.983 272.54C219.292 275.256 215.931 278.107 213.85 281.317C217.622 284.592 220.791 288.246 224.045 292.02C227.767 296.336 231.366 300.694 234.687 305.335L239.912 301.001L259.462 284.862C263.235 281.864 267.185 278.187 271.68 276.339C263.827 272.328 256.565 267.839 249.875 262.046C246.793 259.378 244.358 255.784 240.839 253.658Z"/>
	<path fill="#EE8D0B" d="M308.271 168.591C311.727 168.157 315.203 168.759 318.331 170.295C324.441 173.297 330.138 179.279 332.204 185.875C333.064 188.624 333.292 192.584 331.91 195.195C331.091 196.745 329.766 197.981 328.066 198.492L327.768 198.576C326.432 198.966 325.158 198.941 323.85 198.424C322.43 197.862 321.374 197.122 320.216 196.161C317.901 193.799 317.413 190.763 315.582 188.167C315.114 187.504 314.137 186.247 313.421 185.824C311.988 184.979 305.467 186.227 303.557 186.353C302.302 186.435 300.938 186.297 299.703 186.073L299.375 186.012C298.328 185.828 297.333 185.612 296.421 185.03C294.75 183.964 293.733 182.253 293.403 180.32C293.083 178.451 293.264 176.66 294.395 175.094C297.593 170.664 303.161 169.352 308.271 168.591Z"/>
	<path fill="#EE8D0B" d="M406.397 58.2822C412.757 57.7867 420.183 59.2198 426.034 61.6879C436.308 66.0211 445.772 72.6231 449.972 83.3756C451.073 86.1947 451.829 89.6432 450.476 92.5C449.465 94.6338 447.996 95.5901 445.828 96.3404C444.346 96.3109 442.735 96.254 441.365 95.632C437.706 93.9715 435.681 89.6775 433.543 86.5413C431.863 84.077 429.839 81.6059 427.389 79.875C424.813 78.0547 421.46 76.5093 418.413 75.6719C414.405 74.5706 410.025 74.1383 406.252 72.3328C404.052 71.28 401.739 69.6875 400.92 67.2779C400.319 65.5087 400.717 63.6898 401.559 62.0621C402.652 59.95 404.21 58.9905 406.397 58.2822Z"/>
</svg>
