<?xml version="1.0" encoding="utf-8" ?>
<svg xmlns="http://www.w3.org/2000/svg" xmlns:xlink="http://www.w3.org/1999/xlink" width="512" height="512">
	<path fill="#F89B29" d="M265.875 327.678L53.547 327.703C39.0026 327.706 24.3494 325.212 17.8485 309.721C12.5433 297.08 21.8939 281.81 33.6704 276.867C24.2448 267.332 25.2787 250.518 37.7208 243.92C39.4101 243.025 40.7691 243.215 40.9475 241.19L41.4335 236.344C41.9568 232.075 43.6678 220.89 45.3006 216.889L45.4965 216.435C37.1726 216.411 29.9009 217.226 29.6043 206.825C28.2974 160.999 47.4883 117.134 78.8564 84.2618C121.04 40.0555 183.075 16.7919 243.675 15.3148L263.715 15.2916C271.555 15.327 279.351 15.8786 287.154 16.6616L309.954 19.8117C396.544 35.2034 477.297 101.089 482.206 193.625L482.367 202.625C482.57 215.517 479.769 216.213 466.762 216.4C468.556 220.9 471.143 237.84 471.554 242.461C473.748 243.754 476.021 244.322 478.129 245.944C486.499 252.379 487.757 269.144 481.411 277.189L484.981 280.616C503.836 298.622 495.472 323.942 468.966 327.413C466.352 327.756 463.609 327.657 460.973 327.666L265.875 327.678ZM246.582 31.0527C182.222 31.8307 113.751 59.1276 75.4505 112.744C56.7629 138.905 45.7951 168.715 45.4248 200.865L265.875 200.747L467.192 200.598L466.613 192.96C465.694 184.683 464.47 176.242 462.548 168.137C447.191 103.361 389.143 56.4787 326.836 39.6014C311.449 35.4337 295.359 33.1465 279.48 31.9435L272.156 31.2414C263.728 30.7546 255.016 30.7991 246.582 31.0527ZM348.404 216.432L70.1605 216.442C67.1905 216.444 64.0052 216.183 61.0733 216.521L55.9511 241.622C77.833 248.96 99.7249 248.253 122.403 248.256L163.875 248.252L419.96 248.02C432.235 247.235 444.501 244.872 456.365 241.692L451.571 216.377L348.404 216.432ZM461.404 256.325L460.976 256.389C456.372 257.1 451.813 258.662 447.283 259.769C431.86 263.536 418.322 263.704 402.649 263.707L92.1502 263.488C82.253 262.946 72.0592 261.518 62.3604 259.458L52.7952 257.36C47.4925 256.208 41.4556 256.532 43.4088 264.309C44.2425 267.629 48.3022 269.915 51.1017 271.412L74.689 281.359C93.9344 288.594 114.354 292.964 135 289.842C150.96 287.428 166.329 280.646 182.572 280.04C216.749 278.765 241.608 295.693 279.017 289.547C288.507 287.988 297.812 285.378 307.211 283.367L323.937 280.537C330.383 279.293 350.134 279.649 357.159 280.405C394.789 284.453 408.842 299.025 450.122 280.953C454.219 279.159 458.31 277.11 462.077 274.701C474.329 266.869 468.9 255.514 461.404 256.325ZM44.1912 288.05C32.66 290.509 26.8365 306.508 41.8211 311.204L42.1534 311.311C47.2279 312.844 53.9275 312.151 59.1541 312.156L464.018 312.15C479.292 311.961 485.032 300.713 473.537 290.743C472.387 289.984 471.347 289.357 470.05 288.867C465.489 290.484 461.276 293.143 456.855 295.132C441.069 302.233 422.717 307.114 405.25 305.372C392.693 304.119 380.438 300.06 368.088 297.594C342.491 292.482 318.974 296.919 293.815 302.433C281.893 305.046 273.197 306.742 260.912 306.741L251.314 306.647C227.754 305.295 208.845 295.109 182.93 295.783C174.363 296.006 165.509 298.602 157.257 300.774C121.852 310.091 104.533 308.692 68.7599 295.776L55.9498 291.125C52.1198 289.761 48.2873 288.297 44.1912 288.05Z"/>
	<path fill="#F89B29" d="M298.074 90.7434C284.384 89.511 289.428 72.1297 302.053 69.0288C314.125 68.064 310.369 88.8476 298.074 90.7434Z"/>
	<path fill="#F89B29" d="M236.419 92.1191C224.697 93.9502 217.059 74.5746 227.528 70.5442C239.085 69.0419 248.257 87.1791 236.419 92.1191Z"/>
	<path fill="#F89B29" d="M165.369 105.703C149.995 105.437 155.954 86.6353 168.18 83.0501C172.426 82.5607 176.268 83.6806 177.158 88.3984C177.909 92.3852 175.856 94.6915 173.826 97.8143L170.778 102.573C169.306 104.674 167.797 105.263 165.369 105.703Z"/>
	<path fill="#F89B29" d="M351.147 138.653C340.534 140.98 323.579 123.911 337.523 118.312C349.783 117.005 363.786 133.212 351.147 138.653Z"/>
	<path fill="#F89B29" d="M270.894 144.207C260.035 146.072 250.976 127.706 262.821 123.547C274.477 122.228 282.562 140.188 270.894 144.207Z"/>
	<path fill="#F89B29" d="M421.184 489.269C405.334 494.675 396.825 494.427 380.686 494.434L131.222 494.408C104.129 494.396 83.4486 491.82 62.375 471.381C44.7128 454.251 36.3952 427.051 40.9822 402.855C41.6457 399.355 41.0539 400.332 38.3481 397.998C19.0124 381.322 23.4733 354.789 48.2821 345.479C55.0697 342.932 61.1847 342.849 68.3612 342.83L84.8137 342.802L450.071 342.859C478.691 343.681 498.65 375.153 476.16 395.824C471.769 399.859 471.012 397.338 471.635 402.249L472.11 408.441C474.095 442.893 457.503 474.98 424.314 488.076L421.184 489.269ZM192.051 358.47L74.3681 358.482C63.7961 358.486 46.2611 357.255 42.741 371C42.2744 372.822 42.4046 374.786 42.6796 376.625L42.7418 377.058C43.7152 383.344 50.2621 388.224 55.75 390.784L56.0856 390.948C56.9179 391.33 57.8487 391.324 58.7477 391.344L320.375 391.305L440.779 391.319C444.894 391.318 449.551 391.754 453.593 391.175C470.403 388.767 478.254 366.242 456.17 359.482C451.964 358.194 448.039 358.49 443.661 358.482L192.051 358.47ZM453.356 406.645L55.6854 406.919C55.4097 427.057 57.2828 443.493 72.5381 459.122L75.8527 462.215C93.4749 476.744 105.569 478.577 126.815 478.591L379.209 478.582C386.011 478.58 392.968 478.901 399.74 478.249C428.143 475.513 452.972 452.497 455.8 423.842C456.364 418.127 456.134 412.228 455.994 406.493L453.356 406.645Z"/>
</svg>
