<?xml version="1.0" encoding="utf-8" ?>
<svg xmlns="http://www.w3.org/2000/svg" xmlns:xlink="http://www.w3.org/1999/xlink" width="512" height="512">
	<path fill="#FA9C2B" d="M280.549 50.5614C282.377 50.7011 283.771 50.9029 285.404 51.8413C288.841 53.8172 290.826 58.8891 292.07 62.5C294.878 70.6468 296.02 79.4446 294.243 87.9609C293.066 93.5976 290.806 99.0209 288.664 104.348C286.081 110.771 284.042 116.722 283.992 123.743C283.973 126.346 284.106 129.346 284.852 131.85L284.975 132.25C285.828 135.126 287.023 137.677 288.63 140.203C290.357 142.92 292.306 145.299 293.478 148.348C294.049 149.834 294.382 151.867 293.679 153.356L293.542 153.625L293.263 154.186C292.009 156.366 289.691 157.258 287.412 157.901C285.19 158.043 283.127 157.179 281.296 156C277.106 153.303 274.61 148.167 272.627 143.778C270.62 139.336 269.102 134.761 268.537 129.9C267.207 118.446 271.032 107.665 274.844 97.0798C276.728 91.849 278.743 86.3681 279.022 80.7628C279.253 76.122 278.841 71.8492 276.92 67.5558C275.717 64.866 274.383 62.2765 273.78 59.3612C273.33 57.1796 273.582 55.3042 274.858 53.4466C276.075 51.6753 278.554 50.949 280.549 50.5614Z"/>
	<path fill="#FA9C2B" d="M168.905 50.5427C170.125 50.4722 171.315 50.3782 172.5 50.7535C175.643 51.7488 177.978 54.1643 179.485 57.0445C181.586 61.0607 182.384 66.0062 182.744 70.4734C183.146 75.4496 183.186 80.5448 182.25 85.4688C180.375 95.324 175.433 104.332 172.485 113.875C169.617 123.16 169.428 132.613 174.717 141.129C176.265 143.622 178.703 146.022 179.941 148.615C180.552 149.894 180.803 151.418 180.293 152.776C179.229 155.611 176.941 156.962 174.317 158.141L174.104 158.207L173.75 158.303L173.254 158.442C171.216 158.925 169.057 158.052 167.375 156.933C162.414 153.633 159.568 147.862 157.76 142.375C153.253 128.689 154.306 115.794 159.44 102.462C161.902 96.0697 165.122 89.6286 166.447 82.875C167.391 78.0617 167.378 73.4533 166.487 68.6663C165.899 65.5053 163.912 62.5481 163.474 59.4014L163.439 59.125C163.185 57.477 163.013 55.8015 163.777 54.25C164.809 52.1541 166.823 51.2401 168.905 50.5427Z"/>
	<path fill="#FA9C2B" d="M233.684 25.5376C235.61 25.4334 237.16 25.9673 238.844 26.8898C240.574 27.8383 241.851 29.4491 242.313 31.3792C243.552 36.5488 237.355 41.5552 234.866 45.5894C234.45 46.2633 234.072 46.9665 233.744 47.6875C230.59 54.623 234.051 60.9668 236.189 67.6032C237.491 71.6429 238.446 75.6319 238.619 79.895C238.875 86.1871 237.927 91.9982 235.917 97.962C232.582 107.853 226.269 117.451 226.874 128.24C226.937 129.369 227.08 130.459 227.365 131.553C228.012 134.036 228.741 136.385 229.954 138.655C231.715 141.949 234.143 145.054 235.211 148.666C235.623 150.06 236.06 151.895 235.226 153.235C233.813 155.508 231.412 156.368 228.98 157.073L227.843 157.003C224.652 156.687 221.893 155.045 219.938 152.542C218.449 150.636 217.43 148.265 216.407 146.089C212.561 137.901 210.4 130.007 211.494 120.875C212.32 113.976 214.846 107.418 217.595 101.086C219.871 95.8403 222.893 90.2932 223.317 84.505C223.61 80.4976 222.244 76.5616 221.01 72.8057C217.306 61.5318 214.589 51.2837 220.054 40C222.986 33.9478 227.042 27.807 233.684 25.5376Z"/>
	<path fill="#FA9C2B" d="M205.223 176.59L267.031 176.589L270.773 176.791C292.221 178.011 313.695 179.847 334.886 183.467L359.75 188.752C370.637 191.336 381.715 194.496 391.835 199.307C395.935 201.256 401.275 203.755 404.288 207.208C407.164 210.504 407.14 216.612 406.843 220.814L406.814 221.196C411.864 219.88 416.921 218.251 422.043 217.257C430.355 215.644 439.962 215.81 448.146 218.109C462.137 222.04 473.895 230.422 481.037 243.262C489.901 259.197 490.69 279.478 485.66 296.826C477.446 325.158 456.789 346.533 431.31 360.384C408.547 372.758 380.393 378.149 355.202 370.714C352.652 376.258 347.747 379.972 343.796 384.425C347.652 384.677 351.644 385.884 355.436 386.657L376.25 390.837C390.49 393.48 405.02 397.035 418.25 403.029C421.71 404.597 425.442 406.372 428.496 408.664C430.953 410.506 433.132 412.82 434.852 415.361C436.938 418.442 438.216 422.169 437.389 425.883C435.231 435.571 421.526 442.031 412.836 444.354C408.724 445.453 403.373 445.713 399.639 447.71C396.133 449.584 392.871 453.22 389.796 455.796C386.65 458.431 383.298 460.683 379.791 462.808C374.027 466.3 367.977 468.861 361.689 471.237C347.868 476.46 333.236 479.831 318.625 481.981L308.598 483.059L274.34 485.379L235.79 485.419L187.739 485.323L177.875 484.508L163.028 483.521L139.029 481.901C135.911 481.559 132.796 480.902 129.71 480.345C122.783 479.095 116.107 477.613 109.341 475.647C99.322 472.736 89.3152 468.876 80.5769 463.079C77.7768 461.221 75.0487 459.21 72.4848 457.036C68.3978 453.571 64.4007 449.523 59.4154 447.375C55.7098 445.779 51.577 445.049 47.6726 444.073C39.4879 442.025 30.3061 438.026 25.9035 430.373C24.1912 427.397 23.42 423.803 24.3549 420.446L24.4859 420C24.8452 418.742 25.2707 417.565 25.8937 416.409C27.4223 413.573 29.8851 411.293 32.3839 409.318C41.9814 401.734 54.8404 397.862 66.4123 394.469L89.5 388.515L101.75 386.015C105.466 385.334 109.09 384.882 112.728 383.814L105.187 376.696C96.7303 367.336 89.609 356.472 83.5079 345.464C69.4173 320.042 59.7967 292.201 54.5959 263.633C52.4438 251.812 50.7781 239.42 51.4361 227.362C51.8297 220.15 52.6814 210.336 58.3877 205.282C61.4237 202.592 64.8469 200.826 68.4875 199.108C76.1599 195.485 83.9939 193.122 92.1887 190.991C129.027 181.411 167.224 177.436 205.223 176.59ZM199.165 191.863L175.096 193.505L156.213 194.822C141.752 196.271 127.489 198.672 113.279 201.671C102.798 203.883 92.6747 206.281 82.6534 210.17C78.284 211.865 72.2341 214.063 68.9992 217.591C67.0158 219.754 67.2072 225.534 67.2012 228.336C67.1843 236.205 67.6393 244.007 68.3508 251.84C69.3073 262.371 71.4667 273.055 74.2335 283.25C81.1959 308.906 92.3265 332.99 108.012 354.5C115.429 364.672 123.814 374.408 133.493 382.509C148.892 395.396 166.39 405.989 185.75 411.741C196.973 415.075 208.965 416.862 220.647 417.425C226.677 417.715 232.827 418.094 238.851 417.548L257.923 414.799C292.017 407.42 321.29 387.753 343.482 361.136C348.809 354.747 353.526 347.941 358.024 340.953C360.397 337.268 362.421 333.344 364.518 329.5C372.933 314.082 379.189 297.498 383.953 280.614C386.553 271.397 388.87 261.86 390.205 252.367C391.196 245.328 391.499 238.174 391.608 231.073L391.552 221.127C391.526 219.619 391.689 217.783 391.4 216.314C391.315 215.879 389.878 215.029 389.416 214.77C386.901 213.363 383.853 212.455 381.127 211.505L368.606 207.339C355.156 203.263 341.148 199.714 327.25 197.548C316.092 195.808 304.869 195.142 293.643 194.095C285.276 193.315 276.801 192.08 268.411 191.76L233.169 191.679L199.165 191.863ZM329.615 396.625L329.356 396.809C327.435 398.202 325.739 399.863 323.899 401.357C320.46 404.147 316.701 406.858 312.942 409.206C286.983 425.427 257.518 433.497 226.923 433.378C219.686 433.35 212.756 433.078 205.581 431.977C183.074 428.524 161.931 420.303 142.637 408.287C138.217 405.534 134.025 402.268 129.75 399.286C128.659 398.525 126.647 396.833 125.439 396.534C125.302 396.5 124.391 396.789 124.233 396.828L119.375 397.994L85.9876 405.734C78.2243 407.556 70.2321 409.223 62.6315 411.63C56.4826 413.578 49.7179 415.745 44.4712 419.58C42.7952 420.805 41.3765 422.168 39.9546 423.676C42.2493 425.148 44.5335 426.568 47.0443 427.651C50.894 429.312 54.966 430.222 59 431.288C68.1565 433.706 77.4814 435.28 86.8983 436.267L98.453 437.22L116.203 438.481L169.016 439.129L237.879 439.002L299.904 439.114L345.884 438.257L364.375 436.597C377.469 435.407 390.736 434.385 403.5 431.063C408.335 429.805 413.171 428.364 417.583 425.977C418.877 425.276 420.545 424.48 421.659 423.523L421.904 423.277C415.417 418.349 408.731 415.292 401.056 412.682C397.825 411.584 394.537 410.854 391.25 409.971C377.126 406.179 362.64 404.116 348.398 400.846L335.821 398.054C334.542 397.743 331.197 396.271 330.056 396.51L329.699 396.607L329.615 396.625ZM368.89 451.605L359.95 452.267L335.75 454.244L308.379 454.368L257.989 454.341L123.036 454.327C120.107 454.314 117.163 454.36 114.241 454.147L101.078 452.875C98.2886 452.546 94.0075 451.294 91.3331 452.125C92.0285 453.437 93.9549 453.923 95.3082 454.421L103.605 457.49C115.368 461.625 127.293 464.598 139.67 466.307C150.891 467.858 162.377 468.353 173.674 468.876L192.998 470.164L228.959 470.201L261.375 470.165L272.375 469.536L284.802 469.181L305.794 467.382C310.562 466.912 315.383 466.715 320.125 466.022C333.213 464.11 345.802 460.533 358.309 456.312C362.159 455.013 365.961 453.918 369.636 452.132L370.595 451.625C369.973 451.519 369.514 451.516 368.89 451.605ZM430.99 231.853C425.14 232.408 419.926 233.268 414.427 235.41C412.698 236.083 410.56 236.877 409.366 238.375C408.159 239.89 407.914 242.339 407.544 244.204C414.914 243.593 422.915 242.257 430.253 243.662C439.235 245.381 446.196 249.627 451.474 257.217C456.661 264.677 457.275 274.657 455.689 283.375C452.165 302.763 438.443 317.37 422.75 328.211C419.854 330.212 416.729 331.857 413.618 333.492C406.557 337.203 399.14 340.266 391.338 342.066C388.862 342.636 386.273 343.21 383.75 343.49C382.945 343.579 373.984 343.963 373.889 344.03C373.117 344.583 369.085 352.065 368.205 353.477L365.701 357.622C370.237 358.664 374.582 358.841 379.224 358.788C393.148 358.627 406.996 354.762 419.501 348.799C422.866 347.195 426.3 345.523 429.455 343.538C448.255 331.707 465.718 313.955 470.755 291.625C474.072 276.921 474.016 260.391 465.684 247.249C461.172 240.133 454.086 234.735 445.801 232.909C440.978 231.846 435.91 231.45 430.99 231.853ZM420.867 258.599L404.261 260.618C401.325 279.836 395.65 298.182 388.011 316.046L384.652 323.511C384.024 324.918 383.573 326.323 382.847 327.697C388.28 326.596 393.766 324.823 398.908 322.748C415.112 316.304 430.955 305.345 437.964 288.764C440.523 282.71 442.101 274.441 439.564 268.167C438.111 264.574 435.607 261.326 431.938 259.829C428.887 258.584 424.107 258.027 420.867 258.599Z"/>
	<path fill="#FA9E24" d="M205.223 176.59L267.031 176.589L266.486 177.089L218.6 177.09L208.721 177.197C208.127 177.204 206.262 177.35 205.764 177.089C205.547 176.976 205.404 176.756 205.223 176.59Z"/>
	<path fill="#FA9C2B" d="M211.159 208.357L211.258 208.34C217.117 207.938 223.161 208.193 229.038 208.187C235.757 208.179 242.608 207.932 249.312 208.344L269.329 210.345L293.648 213.006L302.625 214.747C319.435 217.695 336.011 221.286 352.039 227.241C357.313 229.201 362.952 231.327 367.433 234.779C370.244 236.943 373.887 240.62 374.249 244.362C374.435 246.282 373.565 248.168 372.317 249.579C367.647 254.857 358.849 256.984 352.296 258.833C334.047 263.982 314.775 266.907 295.875 268.343L249.311 270.897C240.868 271.509 232.393 271.277 223.933 271.247L200.5 271.055L150.924 267.427L124 263.516C116.708 262.104 109.487 260.471 102.483 257.948C98.1134 256.374 93.4163 254.314 89.8882 251.229C88.0528 249.625 86.3999 247.441 86.2671 244.924C86.1318 242.359 87.4025 240.262 89.0564 238.421C90.9665 236.295 93.4099 234.766 95.843 233.316C103.926 228.498 113.003 225.61 122 223.031L141.735 217.723L161.034 214.069L193.67 209.403L211.159 208.357ZM225.051 223.369C203.735 223.937 182.506 226.042 161.508 229.706L136.767 234.83L119.27 240.252C115.639 241.385 111.842 242.237 108.271 243.519C111.858 244.798 115.416 245.303 119.103 246.136C123.84 247.205 128.511 248.547 133.3 249.396C138.506 250.317 143.796 250.695 149.041 251.316L193.231 255.482L235.062 255.835L265.056 255.436L288.567 253.345L305.629 251.944L324.25 249.281L334.75 247.67L345.765 245.097C347.584 244.606 349.32 243.956 351.167 243.559C340.86 239.169 330.093 236.436 319.215 233.916C300.695 229.627 281.456 226.271 262.5 224.737L248.75 223.984L225.051 223.369Z"/>
</svg>
