<?xml version="1.0" encoding="utf-8" ?>
<svg xmlns="http://www.w3.org/2000/svg" xmlns:xlink="http://www.w3.org/1999/xlink" width="512" height="512">
	<path fill="#0F7273" d="M254.794 10.6217C264.858 10.5993 274.982 10.9327 284.989 12.0398L303.789 14.9721C313.859 16.7924 323.96 19.1031 333.678 22.3382L348.729 27.8609C360.516 32.3479 371.914 37.4095 382.838 43.7559C394.598 50.5879 405.778 58.6345 416.228 67.3212C420.816 71.1352 425.393 74.9011 429.68 79.0599C436.418 85.5973 443.057 92.3848 449.087 99.5852C463.682 117.015 475.221 136.595 484.203 157.437C487.272 164.558 490.193 171.71 492.487 179.125C494.765 186.49 496.539 194.053 498.169 201.583C501.717 217.987 503.921 234.854 504.149 251.655C504.466 275.003 501.1 299.008 494.768 321.461L490.012 336.25C485.248 350.382 479.194 364.332 471.824 377.303C468.382 383.36 464.537 389.145 460.582 394.874C453.955 404.473 446.687 413.78 438.528 422.134C429.43 431.45 419.768 440.28 409.298 448.049C396.396 457.622 382.33 465.512 367.814 472.328C354.507 478.576 340.434 483.833 326.21 487.625C303.702 493.626 279.856 496.48 256.583 496.783C226.483 496.68 196.246 492.13 167.75 482.246C136.672 471.468 107.337 453.985 83.3133 431.509C60.8191 410.465 42.9967 385.616 29.7505 357.826C26.7947 351.624 23.9041 345.449 21.5103 339C15.4132 322.575 11.4612 304.99 9.21365 287.633C8.28557 280.465 7.48548 273.113 7.25187 265.892C6.76734 250.913 7.2751 235.813 9.51233 220.976C10.6218 213.618 12.3873 206.362 14.1889 199.152C16.3 190.704 18.6112 182.237 21.5792 174.042C33.3425 141.561 51.984 111.492 75.6276 86.3502C88.183 72.9991 102.795 61.4533 118.125 51.4821C140.619 36.8508 165.362 25.7337 191.375 19.0196L209.029 15.3695C224.198 12.6392 239.39 11.0881 254.794 10.6217ZM271.321 80.6006C259.993 81.6258 247.723 87.4263 240.403 96.1714C235.883 101.572 233.08 107.928 230.215 114.31C230.83 114.708 233.297 116.06 233.384 116.673C233.569 117.983 232.981 120.344 232.872 121.733C232.555 125.799 232.987 130.147 234.018 134.097C234.854 137.302 236.037 140.533 237.704 143.404C238.521 144.811 239.56 146.117 240.24 147.596C240.49 148.138 240.456 148.324 240.418 148.926C239.57 149.363 238.435 149.203 237.5 149.151C235.323 149.03 233.037 148.644 230.875 148.955C220.155 150.498 211.313 158.507 204.96 166.848L200.091 174.085C199.694 173.023 199.948 170.91 199.938 169.742L199.94 155.728L200.068 109.683L94.1665 109.259C89.9964 113.251 86.8265 117.996 83.4664 122.66L73.3065 136.747C71.4009 139.416 69.0176 142.021 67.354 144.825C66.9564 145.495 66.736 146.166 66.7036 146.947C66.6882 147.32 66.7545 147.629 66.875 147.978C68.0829 148.539 70.594 148.251 71.9782 148.26L71.8919 263.583L74.4703 264.562C75.1873 267.029 75.8396 270.912 78.2608 272.229C80.1728 273.27 82.8819 273.228 85.0043 273.245C87.9495 273.269 90.9207 273.3 93.8555 273.038C96.7577 272.78 99.5908 272.232 102.509 272.161L102.563 276.325C103.423 276.888 104.88 277.201 105.895 277.39C103.059 283.979 98.3116 289.502 94.4337 295.497L81.6985 316.857L78.2697 322.728C77.6571 323.77 76.8453 324.921 76.435 326.057C76.0351 327.163 76.1903 328.622 76.0728 329.792C75.7489 333.018 75.2381 336.29 75.2766 339.539L105.796 339.252C105.585 343.847 105.25 348.525 105.546 353.121C106.242 363.924 110.814 376.122 118.125 384.179C127.988 395.049 141.24 402.367 156.121 402.956C170.862 403.539 185.445 397.595 196.162 387.609C204.359 379.971 210.684 369.045 212.631 357.964C217.593 358.479 222.698 358.016 227.686 358.002L256.878 358.008L290.168 358.231C296.762 358.261 303.604 358.652 310.136 357.753C313.99 357.222 317.894 355.609 320.931 353.16L323.408 351.057C326.883 347.676 329.882 344.061 332.556 340.019C332.92 339.469 334.343 336.875 334.9 336.732C335.938 336.464 337.885 336.751 339.015 336.758C338.962 340.865 338.777 345.028 339.174 349.118C340.297 360.699 345.679 371.721 353.798 380.012C363.184 389.596 378.225 396.439 391.75 396.464C405.026 396.489 417.66 390.43 426.808 381.023C436.446 371.113 442.062 357.355 441.923 343.5C441.805 331.778 438.451 318.806 429.746 310.411C428.21 308.931 426.411 307.576 424.595 306.464C426.345 305.804 427.521 305.128 428.959 303.946C424.135 295.246 412.769 290.21 403.613 287.593C393.37 284.667 382.287 283.246 371.627 283.544L382.851 265.098C381.774 264.259 380.646 263.419 379.803 262.335C378.193 260.265 377.19 257.658 375.971 255.353C373.899 251.434 371.655 247.41 369.183 243.736C362.508 233.812 354.727 224.107 345.833 216.094C349.125 216.504 355.4 217.103 358.131 214.897C360.609 212.895 361.155 208.749 361.382 205.755C361.828 199.864 360.721 192.277 356.695 187.712C355.32 186.153 353.283 184.855 351.166 184.75C349.143 184.65 347.032 184.639 345.061 185.125L344.667 185.218C341.02 186.156 337.961 190.026 335.468 192.618C334.801 191.309 334.133 190.05 333.75 188.625L333.659 188.299C333.12 186.232 333.55 184.211 334.66 182.416C335.545 180.983 337.076 179.833 338.422 178.86C344.594 180.114 351.964 181.294 357.608 177.661C360.868 175.562 362.769 172.119 363.54 168.383C365.063 161.01 364.428 152.116 360.1 145.748C358.552 143.47 355.73 140.745 352.857 140.286C349.632 139.77 347.046 141.457 344.634 143.367C339.097 147.753 336.403 154.999 335.628 161.845C335.244 165.237 335.085 168.935 335.906 172.277C336.008 172.694 336.961 175.699 336.909 175.824C336.804 176.076 335.651 176.92 335.389 177.148C333.481 178.811 331.524 180.448 330.623 182.912C329.721 185.378 330.275 188.114 330.901 190.571C330.559 190.804 329.379 190.577 328.912 190.548C327.076 190.436 323.392 190.225 321.821 191.326C321.57 191.502 321.394 192.279 321.338 192.589C321.037 194.259 321.372 196.127 321.658 197.78C315.538 196.42 309.838 195.413 303.661 197.34C302.265 197.776 300.896 198.171 299.66 198.981C298.302 199.87 297.249 201.09 296.371 202.44C294.281 199.185 292.31 195.922 289.977 192.826C286.651 188.415 282.871 184.364 279.105 180.33C275.37 176.33 271.056 172.405 267.737 168.058C277.208 170.608 285.746 171.993 294.682 166.871C303.056 162.07 308.921 152.203 311.345 143.051C313.457 135.076 313.738 125.177 311.047 117.312L315.119 115.218C314.848 112.98 314.613 110.693 314.061 108.504C312.137 100.862 307.784 94.7186 301.622 89.8916C295.735 85.2809 289.207 82.5846 281.875 81.2378C278.658 80.6469 274.829 80.2053 271.563 80.5599L271.321 80.6006Z"/>
	<path fill="#292B32" d="M288.122 23.625L288.451 23.5391C289.519 23.3035 291.337 23.8983 292.427 24.1412L300.592 25.8568C307.964 27.3782 315.478 28.8717 322.722 30.9219C335.46 34.5272 347.676 39.6387 359.571 45.3988C368.653 49.7968 377.274 54.3317 385.699 59.9254C392.816 64.651 400.038 69.4826 406.678 74.8586C419.169 84.9708 430.539 96.654 440.589 109.17C446.576 116.626 452.276 124.193 457.343 132.312C471.521 155.03 481.004 181.045 486.261 207.239C488.119 216.497 489.096 225.898 489.822 235.303C491.905 262.296 490.241 290.231 483.65 316.541C479.585 332.771 473.445 349.067 465.888 363.995C461.478 372.708 456.142 380.726 450.729 388.825C432.117 416.671 404.434 439.45 374.993 455.062C367.316 459.133 359.416 462.552 351.395 465.878C337.715 471.55 323.601 476.324 309.056 479.206L306.375 479.761L305.898 479.375C305.559 478.468 305.489 477.839 305.519 476.875C306.069 475.918 306.858 475.639 307.865 475.267C311.473 473.931 315.525 473.255 319.237 472.108C330.251 468.703 341.124 465.21 351.825 460.903C357.973 458.429 364.003 455.363 369.881 452.318C385.021 444.476 399.381 435.191 412.29 424.01C421.51 416.023 429.873 407.204 437.669 397.839C442.797 391.678 447.584 385.589 451.923 378.833C458.09 369.231 463.301 358.675 467.732 348.174C492.026 290.603 491.969 222.096 468.353 164.357C463.265 151.918 456.914 140.536 449.493 129.356C429.969 99.9403 403.271 74.6692 372.514 57.2377C359.448 49.8328 345.44 43.855 331.331 38.7573C322.745 35.6552 313.912 33.0722 304.972 31.1998L294.923 29.4046C292.513 29.0052 290.144 28.7127 287.875 27.7674C287.622 27.4551 287.368 27.2765 287.322 26.8682C287.171 25.5237 287.277 24.6978 288.122 23.625Z"/>
	<path fill="#292B32" d="M271.321 80.6006L271.563 80.5599C274.829 80.2053 278.658 80.6469 281.875 81.2378C289.207 82.5846 295.735 85.2809 301.622 89.8916C307.784 94.7186 312.137 100.862 314.061 108.504C314.613 110.693 314.848 112.98 315.119 115.218L311.047 117.312C313.738 125.177 313.457 135.076 311.345 143.051C308.921 152.203 303.056 162.07 294.682 166.871C285.746 171.993 277.208 170.608 267.737 168.058C271.056 172.405 275.37 176.33 279.105 180.33C282.871 184.364 286.651 188.415 289.977 192.826C292.31 195.922 294.281 199.185 296.371 202.44C297.249 201.09 298.302 199.87 299.66 198.981C300.896 198.171 302.265 197.776 303.661 197.34C309.838 195.413 315.538 196.42 321.658 197.78C321.372 196.127 321.037 194.259 321.338 192.589C321.394 192.279 321.57 191.502 321.821 191.326C323.392 190.225 327.076 190.436 328.912 190.548C329.379 190.577 330.559 190.804 330.901 190.571C330.275 188.114 329.721 185.378 330.623 182.912C331.524 180.448 333.481 178.811 335.389 177.148C335.651 176.92 336.804 176.076 336.909 175.824C336.961 175.699 336.008 172.694 335.906 172.277C335.085 168.935 335.244 165.237 335.628 161.845C336.403 154.999 339.097 147.753 344.634 143.367C347.046 141.457 349.632 139.77 352.857 140.286C355.73 140.745 358.552 143.47 360.1 145.748C364.428 152.116 365.063 161.01 363.54 168.383C362.769 172.119 360.868 175.562 357.608 177.661C351.964 181.294 344.594 180.114 338.422 178.86C337.076 179.833 335.545 180.983 334.66 182.416C333.55 184.211 333.12 186.232 333.659 188.299L333.75 188.625C334.133 190.05 334.801 191.309 335.468 192.618C337.961 190.026 341.02 186.156 344.667 185.218L345.061 185.125C347.032 184.639 349.143 184.65 351.166 184.75C353.283 184.855 355.32 186.153 356.695 187.712C360.721 192.277 361.828 199.864 361.382 205.755C361.155 208.749 360.609 212.895 358.131 214.897C355.4 217.103 349.125 216.504 345.833 216.094C354.727 224.107 362.508 233.812 369.183 243.736C371.655 247.41 373.899 251.434 375.971 255.353C377.19 257.658 378.193 260.265 379.803 262.335C380.646 263.419 381.774 264.259 382.851 265.098L371.627 283.544C382.287 283.246 393.37 284.667 403.613 287.593C412.769 290.21 424.135 295.246 428.959 303.946C427.521 305.128 426.345 305.804 424.595 306.464C426.411 307.576 428.21 308.931 429.746 310.411C438.451 318.806 441.805 331.778 441.923 343.5C442.062 357.355 436.446 371.113 426.808 381.023C417.66 390.43 405.026 396.489 391.75 396.464C378.225 396.439 363.184 389.596 353.798 380.012C345.679 371.721 340.297 360.699 339.174 349.118C338.777 345.028 338.962 340.865 339.015 336.758C337.885 336.751 335.938 336.464 334.9 336.732C334.343 336.875 332.92 339.469 332.556 340.019C329.882 344.061 326.883 347.676 323.408 351.057L320.931 353.16C317.894 355.609 313.99 357.222 310.136 357.753C303.604 358.652 296.762 358.261 290.168 358.231L256.878 358.008L227.686 358.002C222.698 358.016 217.593 358.479 212.631 357.964C210.684 369.045 204.359 379.971 196.162 387.609C185.445 397.595 170.862 403.539 156.121 402.956C141.24 402.367 127.988 395.049 118.125 384.179C110.814 376.122 106.242 363.924 105.546 353.121C105.25 348.525 105.585 343.847 105.796 339.252L75.2766 339.539C75.2381 336.29 75.7489 333.018 76.0728 329.792C76.1903 328.622 76.0351 327.163 76.435 326.057C76.8453 324.921 77.6571 323.77 78.2697 322.728L81.6985 316.857L94.4337 295.497C98.3116 289.502 103.059 283.979 105.895 277.39C104.88 277.201 103.423 276.888 102.563 276.325L102.509 272.161C99.5908 272.232 96.7577 272.78 93.8555 273.038C90.9207 273.3 87.9495 273.269 85.0043 273.245C82.8819 273.228 80.1728 273.27 78.2608 272.229C75.8396 270.912 75.1873 267.029 74.4703 264.562L71.8919 263.583L71.9782 148.26C70.594 148.251 68.0829 148.539 66.875 147.978C66.7545 147.629 66.6882 147.32 66.7036 146.947C66.736 146.166 66.9564 145.495 67.354 144.825C69.0176 142.021 71.4009 139.416 73.3065 136.747L83.4664 122.66C86.8265 117.996 89.9964 113.251 94.1665 109.259L200.068 109.683L199.94 155.728L199.938 169.742C199.948 170.91 199.694 173.023 200.091 174.085L204.96 166.848C211.313 158.507 220.155 150.498 230.875 148.955C233.037 148.644 235.323 149.03 237.5 149.151C238.435 149.203 239.57 149.363 240.418 148.926C240.456 148.324 240.49 148.138 240.24 147.596C239.56 146.117 238.521 144.811 237.704 143.404C236.037 140.533 234.854 137.302 234.018 134.097C232.987 130.147 232.555 125.799 232.872 121.733C232.981 120.344 233.569 117.983 233.384 116.673C233.297 116.06 230.83 114.708 230.215 114.31C233.08 107.928 235.883 101.572 240.403 96.1714C247.723 87.4263 259.993 81.6258 271.321 80.6006ZM351.379 143.034C346.607 144.573 343.931 147.794 341.689 152.179C338.641 158.143 336.956 166.107 339.069 172.637C339.482 173.913 340.131 175.76 341.375 176.427C343.508 177.569 346.41 177.337 348.753 177.304C351.907 177.061 355.783 176.435 357.932 173.879C361.033 170.192 361.869 164.194 361.333 159.5C360.742 154.338 359.162 147.713 354.86 144.331C354.041 143.687 353.247 143.454 352.25 143.228L351.379 143.034ZM86.3693 315.8C85.0214 318.07 83.0069 320.708 82.125 323.165L82.9548 323.194L96.5402 322.993L97.2493 323.026C98.6933 322.123 100.017 317.396 100.667 315.664C101.24 314.413 101.903 313.225 102.587 312.033C102.929 311.436 103.466 310.737 103.574 310.071L98.7001 309.963C95.8278 309.449 92.71 309.827 89.7879 309.626C88.7246 311.553 87.0346 313.736 86.3693 315.8ZM96.4262 298.755L92.7372 305.122L92.0897 306.089L92.25 306.488L105.393 306.555L112.319 295.388L98.4141 295.471C97.6128 296.493 97.0348 297.614 96.4262 298.755ZM79.1223 335.574L79.0629 336.25C79.8162 336.778 81.3677 336.57 82.3035 336.504L82.33 336.49C83.9895 336.618 85.7036 336.535 87.3691 336.538C88.2923 336.539 89.3368 336.658 90.2264 336.408L91.0562 326.729L80.6099 326.598C79.7796 329.517 79.54 332.573 79.1223 335.574Z"/>
	<defs>
		<linearGradient id="gradient_0" gradientUnits="userSpaceOnUse" x1="81.902756" y1="329.51318" x2="88.341057" y2="333.55075">
			<stop offset="0" stop-color="white" stop-opacity="0.3764706"/>
			<stop offset="1" stop-color="white" stop-opacity="0.60000002"/>
		</linearGradient>
	</defs>
	<path fill="url(#gradient_0)" d="M79.1223 335.574C79.54 332.573 79.7796 329.517 80.6099 326.598L91.0562 326.729L90.2264 336.408C89.3368 336.658 88.2923 336.539 87.3691 336.538C85.7036 336.535 83.9895 336.618 82.33 336.49L82.3035 336.504C81.3677 336.57 79.8162 336.778 79.0629 336.25L79.1223 335.574ZM79.1223 335.574L79.0629 336.25C79.8162 336.778 81.3677 336.57 82.3035 336.504L82.33 336.49C84.0898 335.597 87.8449 336.099 89.875 336.104C89.9812 335.713 90.1079 335.282 90.1143 334.875C90.1243 334.23 89.9008 333.584 89.4523 333.125L89.2171 333.344L88.8866 333.64C88.1164 334.367 87.5387 334.415 86.5 334.577C86.2299 334.439 85.9261 334.262 85.625 334.194C84.8884 334.029 84.5018 334.126 83.875 334.5C83.7344 334.946 83.6376 335.227 83.375 335.623C82.2005 335.617 80.1728 335.907 79.1223 335.574ZM87.9946 327.125C87.8617 328.078 87.4251 329.647 88.125 330.411C88.2671 330.566 88.5609 330.739 88.7432 330.855C89.2904 330.738 89.2673 330.807 89.696 330.375C90.4256 329.348 90.4318 328.326 90.6871 327.125C89.8157 327.071 88.845 326.923 87.9946 327.125Z"/>
	<path fill="white" fill-opacity="0.21568628" d="M87.9946 327.125C88.845 326.923 89.8157 327.071 90.6871 327.125C90.4318 328.326 90.4256 329.348 89.696 330.375C89.2673 330.807 89.2904 330.738 88.7432 330.855C88.5609 330.739 88.2671 330.566 88.125 330.411C87.4251 329.647 87.8617 328.078 87.9946 327.125Z"/>
	<path fill="white" fill-opacity="0.50196081" d="M79.1223 335.574C80.1728 335.907 82.2005 335.617 83.375 335.623C83.6376 335.227 83.7344 334.946 83.875 334.5C84.5018 334.126 84.8884 334.029 85.625 334.194C85.9261 334.262 86.2299 334.439 86.5 334.577C87.5387 334.415 88.1164 334.367 88.8866 333.64L89.2171 333.344L89.4523 333.125C89.9008 333.584 90.1243 334.23 90.1143 334.875C90.1079 335.282 89.9812 335.713 89.875 336.104C87.8449 336.099 84.0898 335.597 82.33 336.49L82.3035 336.504C81.3677 336.57 79.8162 336.778 79.0629 336.25L79.1223 335.574Z"/>
	<path fill="#FF6800" d="M235.753 118.774C237.962 119.535 240.148 120.727 242.275 121.715L242.625 143.753L242.338 143.832L242.068 143.582C240.913 142.466 239.987 140.485 239.328 139.03C236.335 132.421 235.793 125.939 235.753 118.774Z"/>
	<defs>
		<linearGradient id="gradient_1" gradientUnits="userSpaceOnUse" x1="107.86461" y1="301.25845" x2="97.746628" y2="300.22095">
			<stop offset="0" stop-color="white" stop-opacity="0.69411767"/>
			<stop offset="1" stop-color="white" stop-opacity="0.76078433"/>
		</linearGradient>
	</defs>
	<path fill="url(#gradient_1)" d="M96.4262 298.755C97.0348 297.614 97.6128 296.493 98.4141 295.471L112.319 295.388L105.393 306.555L92.25 306.488L92.0897 306.089L92.7372 305.122L96.4262 298.755ZM96.4262 298.755L92.7372 305.122C92.7919 305.782 92.6971 305.482 93 306.03L97.125 305.817C98.1114 305.658 98.3744 305.672 98.9701 304.875C98.8677 304.491 98.7084 304.026 98.725 303.625C98.7787 302.328 98.3383 301.136 98.0068 299.875C97.5136 299.39 97.0212 299.09 96.4262 298.755Z"/>
	<defs>
		<linearGradient id="gradient_2" gradientUnits="userSpaceOnUse" x1="96.398567" y1="301.98602" x2="96.601433" y2="300.51398">
			<stop offset="0" stop-color="white" stop-opacity="0.49411765"/>
			<stop offset="1" stop-color="white" stop-opacity="0.53725493"/>
		</linearGradient>
	</defs>
	<path fill="url(#gradient_2)" d="M96.4262 298.755C97.0212 299.09 97.5136 299.39 98.0068 299.875C98.3383 301.136 98.7787 302.328 98.725 303.625C98.7084 304.026 98.8677 304.491 98.9701 304.875C98.3744 305.672 98.1114 305.658 97.125 305.817L93 306.03C92.6971 305.482 92.7919 305.782 92.7372 305.122L96.4262 298.755Z"/>
	<path fill="white" fill-opacity="0.44313726" d="M86.3693 315.8C87.0346 313.736 88.7246 311.553 89.7879 309.626C92.71 309.827 95.8278 309.449 98.7001 309.963L103.574 310.071C103.466 310.737 102.929 311.436 102.587 312.033C101.903 313.225 101.24 314.413 100.667 315.664C100.017 317.396 98.6933 322.123 97.2493 323.026L96.5402 322.993L82.9548 323.194L82.125 323.165C83.0069 320.708 85.0214 318.07 86.3693 315.8ZM96.5402 322.993L97.2493 323.026C98.6933 322.123 100.017 317.396 100.667 315.664C99.986 316.243 99.5228 317.066 99.031 317.807L98.5932 317.875C98.6893 317.558 98.8151 317.21 98.8377 316.875C98.8865 316.153 98.8205 315.717 98.375 315.171L98.6125 314.989L98.6985 314.291C97.902 314.131 97.1642 313.994 96.4375 314.499L96.0155 314.885L95.862 314.73C95.473 314.366 95.06 314.138 94.5852 313.903C93.6774 313.454 93.1068 312.949 92.7397 312.001C92.2455 311.873 91.9958 311.875 91.5012 312.001C91.0621 312.485 90.8086 312.819 90.5 313.377L90.1275 313.75C89.7932 314.279 89.9114 314.693 90.0175 315.256C90.0715 315.542 90.0589 315.771 90.0136 316.057L89.3998 316.443C89.3588 317.447 89.4675 318.032 89.9249 318.927L90.2126 319.09C90.8709 319.513 91.2934 320.024 91.75 320.627L92.2311 321.084L92.25 321.439L92.7109 321.518C93.1335 321.592 93.482 321.7 93.875 321.877C94.2445 321.771 94.5823 321.588 94.9602 321.681C95.548 321.827 96.0146 321.892 96.625 321.877C96.9516 322.369 96.8863 322.102 96.8329 322.677L96.5402 322.993ZM98.7001 309.963L98.3917 310.026C96.3188 310.41 93.7935 309.975 91.625 310.153L91.5217 310.403C92.1352 310.438 93.6305 310.374 94.0019 310.875L94.2181 311.25L94.0514 311.75C94.5138 312.342 95.0237 312.824 95.7257 313.125C96.5911 313.496 98.3195 313.452 98.6985 314.291L98.6125 314.989L98.375 315.171C98.8205 315.717 98.8865 316.153 98.8377 316.875C98.8151 317.21 98.6893 317.558 98.5932 317.875L99.031 317.807C99.5228 317.066 99.986 316.243 100.667 315.664C101.24 314.413 101.903 313.225 102.587 312.033C102.929 311.436 103.466 310.737 103.574 310.071L98.7001 309.963ZM86.3693 315.8C85.0214 318.07 83.0069 320.708 82.125 323.165L82.9548 323.194C85.3268 322.714 88.022 322.891 90.4644 322.642L90.3551 322.398C89.9992 321.952 89.4757 321.583 89.0962 321.116L88.9029 320.875C88.2805 320.11 87.9166 319.327 87.9719 318.312C88.0125 317.566 88.1588 316.88 87.7706 316.196C87.5279 315.768 87.4331 315.65 87.4283 315.138L87.4323 314.834C87.1454 315.263 86.7774 315.494 86.3693 315.8Z"/>
	<path fill="white" fill-opacity="0.3137255" d="M98.7001 309.963L103.574 310.071C103.466 310.737 102.929 311.436 102.587 312.033C101.903 313.225 101.24 314.413 100.667 315.664C99.986 316.243 99.5228 317.066 99.031 317.807L98.5932 317.875C98.6893 317.558 98.8151 317.21 98.8377 316.875C98.8865 316.153 98.8205 315.717 98.375 315.171L98.6125 314.989L98.6985 314.291C98.3195 313.452 96.5911 313.496 95.7257 313.125C95.0237 312.824 94.5138 312.342 94.0514 311.75L94.2181 311.25L94.0019 310.875C93.6305 310.374 92.1352 310.438 91.5217 310.403L91.625 310.153C93.7935 309.975 96.3188 310.41 98.3917 310.026L98.7001 309.963Z"/>
	<defs>
		<linearGradient id="gradient_3" gradientUnits="userSpaceOnUse" x1="90.381554" y1="314.53598" x2="98.01889" y2="319.57794">
			<stop offset="0" stop-color="white" stop-opacity="0.4509804"/>
			<stop offset="1" stop-color="white" stop-opacity="0.54901963"/>
		</linearGradient>
	</defs>
	<path fill="url(#gradient_3)" d="M96.5402 322.993L96.8329 322.677C96.8863 322.102 96.9516 322.369 96.625 321.877C96.0146 321.892 95.548 321.827 94.9602 321.681C94.5823 321.588 94.2445 321.771 93.875 321.877C93.482 321.7 93.1335 321.592 92.7109 321.518L92.25 321.439L92.2311 321.084L91.75 320.627C91.2934 320.024 90.8709 319.513 90.2126 319.09L89.9249 318.927C89.4675 318.032 89.3588 317.447 89.3998 316.443L90.0136 316.057C90.0589 315.771 90.0715 315.542 90.0175 315.256C89.9114 314.693 89.7932 314.279 90.1275 313.75L90.5 313.377C90.8086 312.819 91.0621 312.485 91.5012 312.001C91.9958 311.875 92.2455 311.873 92.7397 312.001C93.1068 312.949 93.6774 313.454 94.5852 313.903C95.06 314.138 95.473 314.366 95.862 314.73L96.0155 314.885L96.4375 314.499C97.1642 313.994 97.902 314.131 98.6985 314.291L98.6125 314.989L98.375 315.171C98.8205 315.717 98.8865 316.153 98.8377 316.875C98.8151 317.21 98.6893 317.558 98.5932 317.875L99.031 317.807C99.5228 317.066 99.986 316.243 100.667 315.664C100.017 317.396 98.6933 322.123 97.2493 323.026L96.5402 322.993Z"/>
	<path fill="#FF6800" d="M118.162 274.606C119.892 274.379 121.813 274.498 123.567 274.462C125.043 277.435 127.438 278.292 130.396 279.34C124.555 283.319 118.702 288.005 112.361 291.091C108.386 292.192 104.573 291.722 100.526 291.833C103.218 288.256 105.925 284.696 107.883 280.646C108.724 278.908 109.275 276.983 109.871 275.148L118.162 274.606Z"/>
	<path fill="#FF6800" d="M347.837 188.303C349.582 188.159 352.119 187.834 353.49 189.035C356.791 191.926 358.034 198.406 358.315 202.525C358.492 205.114 358.61 210.275 356.551 212.284C354.956 213.84 349.768 213.137 347.648 213.044C345.701 213.035 342.858 213.268 341.125 212.235C338.748 210.818 337.235 203.997 336.697 201.363C336.157 198.715 337.262 196.854 338.701 194.718C341.154 191.076 343.441 189.164 347.837 188.303Z"/>
	<path fill="#FF6800" d="M236.233 164.875C236.982 164.627 237.73 164.66 238.5 164.799C243.637 165.726 249.725 174.457 252.906 178.481L260.557 188.333L252.926 194.546L248.748 198.325L237.346 182.892C234.914 179.217 231.335 174.212 232.367 169.556L232.44 169.25L232.579 168.68C233.125 166.861 234.655 165.751 236.233 164.875Z"/>
	<path fill="#0F7273" d="M388.828 325.332C391.695 325.934 394.933 326.557 397.427 328.162C401.395 330.714 404.229 334.703 405.21 339.326C406.105 343.542 405.044 347.706 402.727 351.275C400.62 354.519 397.545 356.911 393.724 357.711L393.25 357.806C391.385 358.194 389.07 358.548 387.202 358.093C382.492 356.945 379.425 355.076 376.437 351.256C375.892 350.556 375.391 349.701 374.983 348.913C373.124 345.32 372.068 341.49 373.356 337.504L373.482 337.125C373.845 336.006 374.506 334.149 375.394 333.36C378.565 337.983 382.096 344.15 387.065 346.966C388.357 347.002 389.919 347.19 391.117 346.646L391.375 346.518L391.821 346.309C393.233 345.575 394.414 343.899 394.769 342.373C395.893 337.547 391.267 329.45 388.828 325.332Z"/>
	<path fill="#F4C477" d="M131.856 358.011L141.695 357.983C146.342 363.689 151.366 367.184 158.742 368.348C160.172 368.574 161.732 368.437 163.145 368.11L163.5 368.025L164.438 367.801C169.733 366.45 173.858 362.883 176.545 358.235L187.505 358.238C186.566 360.786 185.533 363.091 184.218 365.468C181.556 369.988 176.88 373.751 172.088 375.76C164.756 378.832 156.323 379.35 148.906 376.251C143.756 374.099 138.92 370.34 135.756 365.726C134.108 363.325 132.961 360.694 131.856 358.011Z"/>
	<path fill="#F4C477" d="M262.618 191.125C263.572 191.756 264.397 193.447 265.067 194.375L269.451 199.922C274.888 206.314 281.455 210.675 289.872 211.609C292.477 211.898 295.469 211.783 297.959 212.589C298.885 212.888 299.452 213.308 299.837 214.22C300.706 216.277 300.714 220.114 299.909 222.198L299.784 222.5C299.504 223.194 299.268 223.833 298.72 224.366C298.214 224.859 297.577 224.909 296.901 225.067C294.226 225.691 291.359 225.503 288.625 225.507C284.757 225.518 280.647 225.79 276.844 225.027C264.118 222.474 257.174 211.448 250.459 201.442C252.049 200.391 253.5 198.934 254.945 197.688L262.618 191.125Z"/>
	<path fill="#0F7273" d="M267.401 255.855C269.831 255.648 274.595 255.342 276.529 256.875C276.885 258.431 275.412 261.05 274.785 262.5L271.303 270.764C265.252 286.251 260.777 302.515 256.577 318.586C253.842 318.449 251.659 317.863 249.169 316.745C245.903 314.945 243.011 312.427 241.851 308.752C241.129 306.463 241.914 304.219 242.772 302.072C244.599 297.501 247.455 293.236 249.959 289L259.963 272.064L266.676 260.875L262.61 256.323L267.401 255.855Z"/>
	<path fill="#914715" d="M181.046 144.985C181.444 142.256 183.761 139.099 185.06 136.629L191.849 123.483C193.146 120.896 194.558 118.304 195.592 115.601L195.678 116.083C195.753 116.488 195.858 116.824 195.99 117.21C196.645 119.128 196.361 121.808 196.347 123.839L196.272 135.414L196.23 170.82L196.35 176.333C196.408 177.31 196.644 178.563 196.432 179.522C195.749 182.614 193.774 185.822 192.639 188.815C189.778 196.355 188.234 204.29 187.686 212.32C187.228 219.03 188.154 225.648 189.387 232.224C189.921 235.074 190.73 238.024 190.86 240.919C189.512 242.794 187.722 244.187 186.258 245.946C185.015 247.439 184.183 249.208 182.988 250.736L182.803 250.425C182.26 249.43 182.298 247.828 182.267 246.7L182.466 237.721L182.024 190.056L182.062 151.8C182.095 150.624 182.112 149.595 182.48 148.466L182.873 148.222C183.184 147.365 183.264 146.784 183.226 145.875C182.587 145.289 181.862 145.181 181.046 144.985Z"/>
	<path fill="#F4C477" d="M388.835 310.738C389.658 310.708 390.492 310.829 391.308 310.928C400.294 312.022 407.593 316.118 413.125 323.291C418.35 330.067 420.577 339.033 419.385 347.477C418.293 355.215 414.179 361.459 407.999 366.099C402.862 369.957 393.955 372.326 387.634 371.369C378.706 370.018 371.552 366.885 365.685 359.745C360.241 353.118 358.52 344.821 359.379 336.414L359.573 334.733C360.48 329.32 362.481 324.959 365.144 320.202L373.009 330.593C372.094 332.777 370.726 334.543 370.042 336.879L369.936 337.25C369.262 339.517 369.306 342.653 369.893 344.955C371.252 350.281 374.029 355.15 378.732 358.229C383.243 361.183 388.325 362.26 393.64 361.092L394 361.008L395.555 360.628C400.264 359.276 404.327 355.771 406.614 351.466C408.877 347.204 409.606 341.815 408.182 337.15L408.057 336.75C407.187 333.783 405.712 331.189 403.599 328.917C399.391 324.389 394.117 322.941 388.117 322.716C387.078 320.293 385.113 316.049 385.824 313.394C386.184 312.047 387.696 311.31 388.835 310.738Z"/>
	<path fill="#F4C477" d="M307.751 120.625C308.289 120.468 308.349 120.43 308.875 120.602C310.36 127.84 310.157 136.422 307.883 143.472C306.774 146.908 305.388 150.189 303.496 153.276C299.096 160.459 293.065 164.761 285.003 166.826L284.22 167.031C279.154 168.19 271.736 165.957 267.47 163.285C262.208 159.99 259.884 155.201 258.542 149.358C258.259 144.43 260.085 139.078 263.028 135.146C269.667 126.278 283.171 125.871 293.218 124.387C292.157 125.989 291.216 127.767 290.964 129.695C290.668 131.953 291.253 134.256 292.7 136.027C293.981 137.594 296.009 139.154 298.125 139.254C299.12 139.301 300.294 138.836 300.993 138.141C303.106 136.042 303.862 131.514 303.74 128.625C303.646 126.406 302.574 124.699 300.972 123.236L300.724 123.014L307.751 120.625Z"/>
	<path fill="#FF6800" d="M369.787 286.72L379.184 286.822C395.427 287.58 413.582 291.232 424.982 303.759L403.25 304.262C398.429 304.63 393.487 305.158 388.949 306.905C387.201 307.578 385.476 308.404 384.268 309.881C382.766 311.718 382.382 313.629 382.439 315.934C382.566 321.011 385.298 326.158 387.646 330.547C389.185 333.423 391.104 336.808 391.294 340.137C391.348 341.08 391.352 341.947 390.634 342.67C389.841 343.469 389.208 343.697 388.125 343.686C386.69 342.766 385.679 341.505 384.578 340.226L365.9 316.021C365.779 315.917 365.669 315.776 365.515 315.735C365.465 315.722 362.492 317.891 362.203 318.118C356.876 322.291 352.661 327.675 346.864 331.312C345.301 332.293 343.589 333.354 341.795 333.833C340.016 334.309 338.026 334.291 336.185 334.519C336.178 333.705 341.803 326.245 342.743 324.912L369.787 286.72Z"/>
	<path fill="#00909E" d="M270.909 84.3379L271.008 84.3118C279.602 83.4904 288.501 86.0321 295.757 90.5165C301.342 93.9686 305.937 98.8078 308.645 104.828C310.041 107.93 310.856 111.163 311.614 114.467C306.339 116.827 301.16 117.901 295.5 118.831C288.988 119.9 282.734 120.453 276.138 120.699C262.031 120.944 247.629 120.824 234.763 114.349C236.333 109.688 238.5 105.177 241.46 101.23C248.662 91.6256 259.131 85.9998 270.909 84.3379Z"/>
	<path fill="#00909E" d="M193.691 235.943C196.339 236.914 198.98 237.899 201.769 238.391C210.807 239.985 219.749 238.395 228.807 238.25C241.253 238.052 253.646 238.811 266 240.225C273.323 241.063 280.688 241.839 287.673 244.366C292.3 246.04 296.482 248.566 300.247 251.712L273.644 314.438L271.668 320.525L260.301 320.212L262.682 310.47L266.838 295.293C268.998 287.668 271.871 279.944 274.631 272.516C276.015 268.789 280.9 259.484 280.245 256.092C279.912 254.369 277.803 252.922 276.197 252.594C275.003 252.35 273.565 252.487 272.335 252.483L264.497 252.518L236.227 253.456C225.108 253.659 212.094 254.403 202.257 248.208C197.214 245.032 195.039 241.685 193.691 235.943Z"/>
	<path fill="#0F7273" d="M242.301 196.375C242.709 196.345 243 196.525 243.289 196.81C245.737 199.226 247.605 202.743 249.486 205.628C251.164 208.2 253.085 210.605 254.949 213.041C258.006 217.037 261.019 220.825 265.251 223.665C272.2 228.33 281.864 228.91 289.993 228.305C292.296 228.134 294.588 227.551 296.9 227.561C299.313 227.572 301.717 228.289 304.135 228.431C309.96 228.772 316.154 227.875 321.853 226.759C325.7 239.521 327.393 252.204 327.921 265.488C328.137 270.939 328.381 276.169 327.109 281.517C326.383 284.567 325.078 287.514 323.851 290.391L319.318 300.886L306.607 330.047L290.301 330.534L286.443 330.739C287.802 327.339 290.414 325.13 292.764 322.43C293.923 321.098 294.836 319.602 295.606 318.018C298.173 312.735 299.969 306.955 302.209 301.513C305.831 292.717 310.175 283.738 312.85 274.618C313.656 271.871 314.173 268.677 313.956 265.813C313.559 260.573 311.46 256.078 307.437 252.654C301.651 247.731 295.105 243.551 287.969 240.919C279.622 237.841 270.429 237.131 261.651 236.188C251.1 235.054 239.882 233.801 229.288 234.702C230.989 232.801 232.685 230.926 234.056 228.763C238.547 221.67 240.396 212.985 241.301 204.742L241.789 199.677C241.88 198.562 241.862 197.417 242.301 196.375Z"/>
	<path fill="#FF6800" d="M181.046 144.985L70.3876 144.983L95.5282 112.488L196.157 112.728C196.061 113.694 195.803 114.654 195.592 115.601C194.558 118.304 193.146 120.896 191.849 123.483L185.06 136.629C183.761 139.099 181.444 142.256 181.046 144.985Z"/>
	<path fill="#FF6800" d="M231.493 152.07C234.294 151.726 236.916 152.372 239.375 153.713C243.824 156.139 247.12 159.989 251.213 162.931C257.141 167.192 263.492 170.713 269.279 175.199C276.462 180.767 282.306 187.714 287.565 195.077C290.769 199.563 293.574 203.515 295.15 208.882C289.697 208.753 284.909 207.671 280.286 204.639C276.327 202.043 267.162 193.462 266.2 188.555C265.999 187.53 262.595 184.765 261.716 183.732C257.88 179.219 254.668 174.204 250.734 169.758C247.314 165.893 242.929 161.431 237.388 161.266C235.28 161.203 233.21 162.119 231.758 163.628C229.274 166.209 228.644 169.285 228.798 172.716C229.585 176.49 230.989 179.891 233.213 183.057C234.979 185.569 238.424 188.553 239.159 191.524C239.538 193.055 239.057 195.374 238.953 196.975C238.339 206.41 237.36 216.931 232.47 225.235C229.539 230.213 225.813 233.531 220.149 234.922C213.973 236.437 205.97 235.886 199.862 234.191C198.076 233.696 195.93 232.991 194.375 231.959C192.129 230.469 191.632 226.718 191.137 224.246C190.451 220.823 190.544 217.311 190.73 213.843C191.539 198.704 197.085 184.923 205.385 172.407C209.843 165.685 215.93 158.51 223.211 154.781C225.888 153.409 228.566 152.663 231.493 152.07Z"/>
	<path fill="#F4C477" d="M177.305 148.637C178.417 148.167 181.177 148.481 182.48 148.466C182.112 149.595 182.095 150.624 182.062 151.8L182.024 190.056L182.466 237.721L182.267 246.7C182.298 247.828 182.26 249.43 182.803 250.425L182.988 250.736C182.033 253.217 180.425 258.066 178.123 259.528L176.148 262.007L75.4652 262.003L75.2711 148.498L177.305 148.637Z"/>
	<path fill="#BB7E41" d="M177.305 148.637C178.417 148.167 181.177 148.481 182.48 148.466C182.112 149.595 182.095 150.624 182.062 151.8L182.024 190.056L182.466 237.721L182.267 246.7C182.298 247.828 182.26 249.43 182.803 250.425L182.988 250.736C182.033 253.217 180.425 258.066 178.123 259.528C177.861 259.032 177.774 258.766 177.755 258.194L177.742 237.3L177.519 202.723L177.243 165.409L177.305 148.637Z"/>
	<path fill="#292B32" d="M98.5321 208.64C111.148 209.92 124.186 209.346 136.88 209.434L158.289 209.512C163.896 209.516 169.467 209.623 175.053 209.051C174.796 209.434 173.743 209.85 173.303 210.085L168.588 212.652C165.253 214.448 160.2 218.705 156.313 218.107C154.459 217.823 152.414 217.985 150.527 217.983L139.465 217.974L121.194 217.97C117.151 217.97 112.996 217.795 108.976 218.227L108.471 218.284L98.5321 208.64Z"/>
	<path fill="#FF6800" d="M324.565 194.246L332.731 194.228C333.04 199.716 334.006 205.556 335.688 210.786C336.132 212.166 336.57 213.934 337.668 214.949C338.741 215.94 340.171 215.749 341.528 215.758C346.153 220.712 351.146 225.479 355.475 230.687C364.549 241.6 371.575 254.121 378.418 266.498L339.757 323.13L330.572 336.597C328.027 340.354 325.639 344.204 322.416 347.433C319.626 350.226 316.345 352.935 312.442 353.919C307.443 355.179 302.293 354.772 297.211 354.763L281.077 354.753L220.294 354.78C218.655 352.536 217.038 350.277 215.063 348.31C209.379 342.652 201.959 338.813 194.14 337.129C188.618 335.94 182.584 336.263 176.956 336.26L157.661 336.255L92.9475 336.053L93.6776 326.842C94.8244 326.288 97.8147 326.558 99.1861 326.506C101.985 322.266 103.824 317.018 106.146 312.473C109.808 306.025 114.441 299.734 119.889 294.682C123.842 291.016 128.087 287.868 132.584 284.908C137.403 281.736 142.713 278.845 148.335 277.395C156.148 275.38 164.487 275.982 172.458 276.235L190.391 276.53C208.101 277.312 229.137 283.469 236.492 301.375C238.521 306.315 238.595 311.963 242.441 316.055C246.443 320.312 251.947 321.658 257.604 321.803L255.644 335.167C254.455 335.467 252.679 335.129 251.407 335.057C247.303 334.824 243.223 334.536 239.178 335.542C236.608 336.181 234.11 337.46 232.8 339.875C232.069 341.222 232.125 342.999 232.639 344.405C233.2 345.939 234.742 347.196 236.2 347.827C236.81 348.092 237.486 348.368 238.15 348.449C240.103 348.69 242.305 348.5 244.28 348.502L256.183 348.501C267.252 348.494 278.449 349.056 289.493 348.157C292.681 347.898 296.07 347.427 299.044 346.198C301.406 345.222 303.276 343.87 304.733 341.754C308.439 336.373 310.604 329.304 313.227 323.297L327.207 291.644C328.743 288.076 330.38 284.41 330.997 280.548C331.715 276.046 331.417 271.316 331.277 266.772C330.975 256.945 330.345 247.167 328.309 237.533C327.628 234.312 326.955 231.015 325.714 227.958C325.42 227.234 326.346 225.422 326.596 224.6L328.451 217.974C328.919 216.306 329.515 214.741 329.654 212.997C329.917 209.705 329.112 205.79 327.78 202.772C327.039 201.095 325.938 199.553 325.284 197.84C324.86 196.727 324.734 195.423 324.565 194.246Z"/>
</svg>
