<?xml version="1.0" encoding="utf-8" ?>
<svg xmlns="http://www.w3.org/2000/svg" xmlns:xlink="http://www.w3.org/1999/xlink" width="512" height="512">
	<path fill="#0F7273" d="M388.266 415.3L425.153 442.329C425.739 441.291 427.141 438.516 428.223 438.12C432.524 440.73 436.231 443.82 440.251 446.809L454.911 457.412C456.691 458.705 458.568 460.874 460.446 461.848C463.216 459.123 466.052 455.872 469.176 453.559C474.124 458.343 480.694 461.403 485.53 466.399C484.215 468.542 483.214 470.563 481.158 472.125C480.001 473.004 478.316 472.926 476.936 472.956C473.766 473.027 470.361 472.662 467.661 474.568C467.23 474.873 467.012 475.055 466.501 475.201C462.697 471.414 458.165 468.709 453.898 465.503L435.025 450.852C434.082 452.051 433.141 453.002 431.958 453.964C428.486 450.706 424.683 447.953 420.857 445.13L407.526 435.257L390.877 422.826L382.478 416.171C383.823 415.034 386.564 415.33 388.266 415.3Z"/>
	<path fill="#0F7273" d="M371.806 418.368C367.911 421.901 363.751 424.654 359.39 427.555C341.471 439.474 321.535 448.663 300.528 453.57C269.136 460.903 235.594 461.059 204.25 453.261C192.939 450.447 182.031 446.646 171.289 442.145C162.067 438.282 152.997 434.089 144.5 428.785L130.249 418.924C119.584 411.264 109.352 403.298 100.115 393.914C93.6001 387.295 87.6752 380.024 82.1978 372.532C65.8931 350.229 53.6884 324.875 47.4838 297.889C37.8731 256.086 42.9099 212.214 60.0856 173.034C64.7501 162.394 70.4296 152.205 76.6003 142.374C98.062 108.182 131.3 81.2574 167.616 64.2673C180.558 58.2128 193.948 53.2379 207.907 50.1017C223.297 46.6441 239.917 44.5047 255.714 44.8152C268.129 45.0592 280.026 46.868 292.142 49.4615C317.859 54.9665 342.979 64.592 365.223 78.7064C384.349 90.842 401.97 105.448 416.254 123.125C424.488 133.314 431.449 144.254 437.745 155.72C446.383 171.447 453.172 188.434 456.988 206C463.981 238.193 463.709 273.203 453.414 304.69C450.938 312.262 447.758 319.629 444.509 326.897C441.11 334.502 437.77 342.487 433.246 349.484C436.395 349.144 439.674 349.469 442.845 349.474L463.461 349.43L476.773 349.31C479.194 349.305 481.792 349.103 484.19 349.393L484.585 374.215L484.771 386.803C484.77 390.14 484.817 393.423 484.239 396.724L484.559 416.505L484.561 430.902L460.938 430.724C456.643 430.71 451.981 430.315 447.728 430.77C447.015 431.645 446.319 432.717 445.327 433.279L445.194 434.126L460.375 446.633C463.254 448.918 466.724 450.803 469.176 453.559C466.052 455.872 463.216 459.123 460.446 461.848C458.568 460.874 456.691 458.705 454.911 457.412L440.251 446.809C436.231 443.82 432.524 440.73 428.223 438.12C427.141 438.516 425.739 441.291 425.153 442.329L388.266 415.3C386.564 415.33 383.823 415.034 382.478 416.171C380.07 415.706 377.482 415.963 375.027 415.672L371.806 418.368Z"/>
	<path fill="#F4C477" d="M181.851 349.402L184.084 349.854C184.489 354.86 184.777 359.72 186.206 364.572L121.339 365.092C120.686 363.144 119.631 361.604 119.378 359.485C119.106 357.208 119.716 355.746 121.125 353.983C123.26 351.311 125.489 350.554 128.75 350.176C133.31 349.647 138.221 349.997 142.821 349.951L167.296 349.678L181.851 349.402Z"/>
	<path fill="#F4C477" d="M124.458 407.63C123.995 407.445 124.189 407.567 123.774 407.182C121.7 405.262 120.015 402.677 120.049 399.75C120.072 397.744 121.128 395.982 122.508 394.597C123.974 393.124 125.786 392.61 127.799 392.413C132.744 391.928 137.795 392.459 142.75 392.492L169.807 392.501L265.564 392.515C265.631 397.477 266.967 402.365 266.712 407.38L124.458 407.63Z"/>
	<path fill="#292A32" d="M266.712 407.38C270.172 407.682 273.736 407.522 277.208 407.524L294.991 407.529L347.947 407.507L365.242 407.259C369.15 407.237 373.105 407.06 376.948 407.865C373.451 404.333 368.726 402.002 365.179 398.517L365.25 398.344C366.671 398.928 367.979 400.13 369.209 401.052L377.022 406.966L388.266 415.3C386.564 415.33 383.823 415.034 382.478 416.171C380.07 415.706 377.482 415.963 375.027 415.672L371.806 418.368C371.277 418.148 370.878 418.006 370.296 417.991L352.534 418.21L310.37 418.467L173.975 418.897L148.462 418.988L141.237 418.995C140.049 418.991 138.487 419.117 137.357 418.686C136.331 418.295 135.064 417.133 134.15 416.468C130.731 413.982 126.467 411.464 124.458 407.63L266.712 407.38Z"/>
	<path fill="#FF6800" d="M463.461 349.43L476.773 349.31C479.194 349.305 481.792 349.103 484.19 349.393L484.585 374.215L444.217 374.613L394.227 374.975L372.995 375.007C370.173 375.008 366.897 374.66 364.125 375.023C363.723 375.076 363.446 375.205 363.08 375.368C361.518 374.557 359.866 373.966 358.124 373.7C355.89 373.36 353.39 373.559 351.123 373.563C347.073 373.57 342.727 373.226 338.807 374.341L338.417 375.041C338.041 374.787 337.816 374.709 337.358 374.713L328.75 374.989L184.827 375.027L148.94 375.298L137.875 375.368C135.935 375.379 133.243 375.684 131.434 374.899L131.125 374.757L130.088 374.261C126.881 372.468 122.352 368.711 121.339 365.092L186.206 364.572C184.777 359.72 184.489 354.86 184.084 349.854L256.951 349.723L333.539 349.824C335.031 349.695 336.629 349.846 338.13 349.865L346.136 349.891L375.028 349.902C379.372 349.9 384.473 350.418 388.692 349.47C391.683 349.902 394.769 349.746 397.785 349.745L412.496 349.737L425.437 349.735C427.969 349.732 430.762 349.962 433.246 349.484C436.395 349.144 439.674 349.469 442.845 349.474L463.461 349.43Z"/>
	<path fill="#292A32" d="M463.461 349.43L476.773 349.31C479.194 349.305 481.792 349.103 484.19 349.393L484.585 374.215L444.217 374.613L394.227 374.975L372.995 375.007C370.173 375.008 366.897 374.66 364.125 375.023C363.723 375.076 363.446 375.205 363.08 375.368C361.518 374.557 359.866 373.966 358.124 373.7C355.89 373.36 353.39 373.559 351.123 373.563C347.073 373.57 342.727 373.226 338.807 374.341L338.417 375.041C338.041 374.787 337.816 374.709 337.358 374.713L328.75 374.989L184.827 375.027L148.94 375.298L137.875 375.368C135.935 375.379 133.243 375.684 131.434 374.899L131.125 374.757L130.088 374.261C126.881 372.468 122.352 368.711 121.339 365.092L186.206 364.572L481.513 364.017L481.631 349.429L463.461 349.43Z"/>
	<path fill="#FF6800" d="M338.417 375.041L338.807 374.341C342.727 373.226 347.073 373.57 351.123 373.563C353.39 373.559 355.89 373.36 358.124 373.7C359.866 373.966 361.518 374.557 363.08 375.368C363.446 375.205 363.723 375.076 364.125 375.023C366.897 374.66 370.173 375.008 372.995 375.007L394.227 374.975L444.217 374.613L484.585 374.215L484.771 386.803C484.77 390.14 484.817 393.423 484.239 396.724L484.559 416.505L484.561 430.902L460.938 430.724C456.643 430.71 451.981 430.315 447.728 430.77C447.015 431.645 446.319 432.717 445.327 433.279L445.194 434.126L460.375 446.633C463.254 448.918 466.724 450.803 469.176 453.559C466.052 455.872 463.216 459.123 460.446 461.848C458.568 460.874 456.691 458.705 454.911 457.412L440.251 446.809C436.231 443.82 432.524 440.73 428.223 438.12C427.141 438.516 425.739 441.291 425.153 442.329L388.266 415.3L377.022 406.966L369.209 401.052C367.979 400.13 366.671 398.928 365.25 398.344L365.179 398.517C368.726 402.002 373.451 404.333 376.948 407.865C373.105 407.06 369.15 407.237 365.242 407.259L347.947 407.507L294.991 407.529L277.208 407.524C273.736 407.522 270.172 407.682 266.712 407.38C266.967 402.365 265.631 397.477 265.564 392.515L357.59 392.47C353.99 388.396 348.911 385.687 344.625 382.404C342.083 380.457 339.535 378.548 338.522 375.385L338.417 375.041Z"/>
	<path fill="#292A32" d="M480.864 395.945C482.002 396.204 483.076 396.599 484.239 396.724L484.559 416.505C480.046 416.22 475.26 416.666 470.712 416.679L429.715 416.71L423.151 416.578C422.754 416.579 421.664 416.484 421.365 416.618C421.09 416.741 420.906 417.009 420.677 417.204C415.258 414.665 410.361 410.355 405.727 406.604C407.239 407.015 408.783 407.462 410.35 407.595C413.147 407.831 416.158 407.52 418.985 407.514L432.636 407.491L481.035 407.267L480.864 395.945Z"/>
	<path fill="#0F7273" d="M420.677 417.204C420.906 417.009 421.09 416.741 421.365 416.618C421.664 416.484 422.754 416.579 423.151 416.578L429.715 416.71L470.712 416.679C475.26 416.666 480.046 416.22 484.559 416.505L484.561 430.902L460.938 430.724C456.643 430.71 451.981 430.315 447.728 430.77C447.015 431.645 446.319 432.717 445.327 433.279L445.194 434.126L420.677 417.204Z"/>
	<path fill="#0F7273" d="M363.08 375.368C363.446 375.205 363.723 375.076 364.125 375.023C366.897 374.66 370.173 375.008 372.995 375.007L394.227 374.975L444.217 374.613L484.585 374.215L484.771 386.803C484.77 390.14 484.817 393.423 484.239 396.724C483.076 396.599 482.002 396.204 480.864 395.945L480.716 392.707C477.401 392.361 474.02 392.498 470.689 392.496L455.63 392.494L405.37 392.507L390.105 392.308C389.059 392.265 387.492 392.415 386.527 392.134C386.077 392.004 385.071 391.086 384.674 390.772L379.248 386.495L363.08 375.368Z"/>
	<path fill="#292A32" d="M307.496 224.486L307.346 224.3C306.856 223.704 306.672 223.596 305.965 223.303C304.01 222.494 301.941 220.709 300.244 219.424C290.968 212.398 284.524 203.569 281.085 192.414C277.013 179.208 278.2 164.69 284.754 152.482C290.978 140.887 302.193 131.638 314.844 127.964C328.798 123.912 342.937 124.974 355.719 132.092C360.443 134.722 364.978 138.373 368.682 142.3C370.706 144.446 372.434 146.979 374.225 149.322L384.061 162.208L397.75 180.048L402.432 186.125C403.18 187.117 404.142 188.201 404.628 189.348C401.686 200.455 397.591 210.14 390.276 219.162C388.212 221.708 385.353 223.684 383.458 226.272L380.433 227.849C377.697 228.773 374.565 229.204 371.696 229.406C363.214 230.005 354.384 229.383 345.867 229.291C339.58 229.223 333.061 229.643 326.812 229.185C323.434 228.938 320.069 228.146 316.777 227.384L310.955 225.384C309.738 224.928 308.791 224.218 307.496 224.486Z"/>
	<path fill="#F4C477" d="M328.051 130.355C338.636 129.591 350.603 133.628 358.934 140.127C368.811 147.831 375.792 158.161 377.321 170.747C378.771 182.689 375.174 196.335 367.662 205.732C359.049 216.505 346.799 221.947 333.379 223.471C330.883 223.491 328.243 223.681 325.769 223.355C316.456 222.128 307.518 218.395 300.277 212.355C291.038 204.647 284.723 194.122 283.72 181.975C282.689 169.505 286.332 156.475 294.513 146.883C303.343 136.53 314.681 131.395 328.051 130.355Z"/>
	<path fill="white" d="M328.955 157.085C332.563 156.699 337.144 158.035 340.204 159.878C344.663 162.561 348.04 166.87 349.222 171.969L349.313 172.375L349.636 174.081C350.248 179.276 348.61 185.164 345.354 189.269C341.669 193.914 336.803 196.046 331.06 196.669C329.498 196.743 327.958 196.8 326.405 196.582C322.036 195.971 316.531 192.427 313.935 188.925C311.013 184.983 309.611 180.027 310.405 175.147L310.474 174.75C311.119 170.897 312.9 167.503 315.226 164.407C318.601 159.916 323.535 157.881 328.955 157.085Z"/>
	<path fill="#FF6800" d="M328.681 166.064C331.131 165.944 333.342 166.149 335.561 167.31C338.319 168.753 340.425 171.324 341.249 174.348C342.015 177.161 341.187 180.448 339.689 182.875C337.77 185.985 334.466 187.413 331.063 188.253C328.507 188.33 326.347 188.039 324.087 186.744C321.471 185.246 319.257 182.971 318.554 179.956C317.904 177.162 318.46 174.29 319.987 171.869C322.079 168.551 324.9 166.889 328.681 166.064Z"/>
	<path fill="#292A32" d="M113.027 266.858L111.58 117.232L149.49 117.292L215.076 117.452L233.384 117.471C234.273 117.472 236.917 117.167 237.65 117.475C237.66 117.479 238.098 117.905 238.156 117.961C239.446 119.225 252.518 134.214 252.651 134.736C252.912 135.761 252.467 137.628 252.398 138.734C252.275 140.722 252.303 142.707 252.339 144.697L252.194 206.599L251.997 232.741C256.504 237.538 261.603 241.774 266.241 246.453L273.713 254.332C275.218 255.942 276.726 257.791 278.541 259.051L278.732 259.178C282.075 247.81 290.241 237.57 299.439 230.255C302.023 228.201 304.862 226.478 307.496 224.486C308.791 224.218 309.738 224.928 310.955 225.384L316.777 227.384C320.069 228.146 323.434 228.938 326.812 229.185C333.061 229.643 339.58 229.223 345.867 229.291C354.384 229.383 363.214 230.005 371.696 229.406C374.565 229.204 377.697 228.773 380.433 227.849L383.458 226.272C388.562 229.932 394.302 233.994 398.238 238.955L400.874 241.971C408.085 247.865 414.258 255.309 420.64 262.082L430.978 273.195C433.332 275.773 435.801 278.308 437.709 281.242C435.169 295.55 430.381 310.865 421.881 322.815C416.676 330.132 409.205 336.904 401.854 342.029C398.105 344.644 394.099 346.501 389.919 348.294C389.272 348.572 389.065 348.904 388.692 349.47C384.473 350.418 379.372 349.9 375.028 349.902L346.136 349.891L338.13 349.865C336.629 349.846 335.031 349.695 333.539 349.824L256.951 349.723L184.084 349.854L181.851 349.402C180.445 347.636 178.203 348.094 176.211 347.195C169.132 343.997 161.839 340.537 155.363 336.244C151.127 333.435 146.937 330.194 143.186 326.759C142.281 325.931 141.533 324.973 140.652 324.125C139.227 322.753 137.492 321.616 136.288 320.037C136.284 320.019 136.289 319.997 136.276 319.983C135.193 318.803 133.717 317.759 132.508 316.67C130.433 314.799 128.521 312.839 126.691 310.723C120.009 302.99 115.243 293.692 113.531 283.561C112.599 278.04 112.623 272.425 113.027 266.858Z"/>
	<path fill="#0F7273" d="M256.951 349.723C257.028 349.44 257.05 349.136 257.183 348.875C257.59 348.073 259.45 346.96 260.214 346.324L265.186 341.792L279.356 328.03L286.334 320.739C287.654 319.419 288.954 317.991 290.563 317.022C295.585 322.003 300.601 326.879 306.095 331.35C310.417 334.868 315.012 338.021 319.614 341.156C323.678 343.923 328.028 346.867 332.625 348.679L333.539 349.824L256.951 349.723Z"/>
	<path fill="#F4C477" d="M118.388 248.394L118.293 121.495L235.367 121.25L234.976 219.911C232.292 218.264 229.718 216.426 226.954 214.913C220.157 211.193 211.259 208.03 203.523 207.191L193.008 206.245C186.115 205.399 178.355 206.301 171.685 208.163C167.344 209.376 163.136 211.099 158.844 212.484L147.742 218.449C144.836 220.314 141.806 222.123 139.07 224.232C133.414 228.592 127.995 234.237 123.738 240C121.827 242.588 120.554 246.084 118.388 248.394Z"/>
	<path fill="#292A32" d="M193.008 206.245L192.786 151.146C193.723 150.833 195.144 151.011 196.147 151.011L203.518 151.013L203.523 207.191L193.008 206.245Z"/>
	<path fill="#292A32" d="M147.742 218.449L148.078 151.247L158.982 151.255L158.844 212.484L147.742 218.449Z"/>
	<path fill="#FF6800" d="M307.496 224.486C308.791 224.218 309.738 224.928 310.955 225.384L316.777 227.384C320.069 228.146 323.434 228.938 326.812 229.185C333.061 229.643 339.58 229.223 345.867 229.291C354.384 229.383 363.214 230.005 371.696 229.406C374.565 229.204 377.697 228.773 380.433 227.849L383.458 226.272C388.562 229.932 394.302 233.994 398.238 238.955L400.874 241.971C409.131 253.807 413.799 267.988 411.266 282.467C408.363 299.058 396.831 312.933 383.272 322.262C370.138 331.3 353.688 336.037 337.827 336.239C333.6 336.293 329.696 336.207 325.535 335.421C309.667 332.422 295.575 322.661 286.504 309.379C283.454 304.914 281.252 300.175 279.78 294.976C275.554 283.119 275.966 271.225 278.732 259.178C282.075 247.81 290.241 237.57 299.439 230.255C302.023 228.201 304.862 226.478 307.496 224.486Z"/>
	<path fill="#FF8960" d="M383.458 226.272C388.562 229.932 394.302 233.994 398.238 238.955C397.845 239.405 397.427 239.617 396.913 239.906C396.251 239.945 395.85 239.98 395.255 239.629L395 239.474C392.345 237.94 390.163 235.747 387.759 233.865C385.347 231.975 382.221 230.368 380.433 227.849L383.458 226.272Z"/>
	<path fill="#FF8960" d="M307.496 224.486C308.791 224.218 309.738 224.928 310.955 225.384L316.777 227.384L316.577 227.587C315.227 228.9 313.456 229.628 311.799 230.478C309.217 231.803 306.592 233.101 304.147 234.67C290.323 243.544 282.21 259.53 281.795 275.801C281.607 283.157 284.272 290.054 284.819 297.273C283.772 296.692 282.393 295.414 281.375 295.028C281.039 294.901 280.174 294.989 279.78 294.976C275.554 283.119 275.966 271.225 278.732 259.178C282.075 247.81 290.241 237.57 299.439 230.255C302.023 228.201 304.862 226.478 307.496 224.486Z"/>
	<path fill="white" d="M336.511 243.571C341.797 243.333 347.257 243.827 352.153 245.975C358.426 248.728 363.791 253.923 366.307 260.333C368.731 266.51 368.507 273.204 365.815 279.267C363.796 283.815 360.188 287.396 355.489 289.118C354.015 289.659 352.202 290.198 350.627 290.261C347.841 290.371 344.362 288.998 341.867 287.837C340.201 286.799 338.934 285.86 337.84 284.181C337.861 284.008 337.8 283.802 337.904 283.662C338.057 283.458 340.471 283.056 340.908 282.929C342.548 282.451 343.954 281.785 345.225 280.612C346.887 279.08 348.185 276.924 348.273 274.619C348.353 272.522 347.622 270.625 346.13 269.125C341.937 264.908 333.038 265.66 327.657 265.81L317.933 266.033C318.477 260.851 319.525 256.665 322.51 252.327C326.009 247.241 330.508 244.691 336.511 243.571Z"/>
	<path fill="#FF6800" d="M193.008 206.245L203.523 207.191C211.259 208.03 220.157 211.193 226.954 214.913C229.718 216.426 232.292 218.264 234.976 219.911C237.898 222.823 241.191 225.19 244.278 227.893C251.762 234.446 259.35 241.303 264.573 249.87C269.015 257.155 271.362 265.678 271.37 274.205C271.373 277.586 270.986 280.901 270.58 284.25C269.795 290.732 268.542 297.295 265.338 303.062C263.299 306.732 260.417 310.02 257.451 312.974C239.65 330.707 211.855 335.353 187.696 335.257C176.108 335.211 162.913 332.901 152.09 328.706C148.322 327.246 144.523 325.193 140.974 323.266C139.285 322.349 137.927 320.977 136.288 320.037C136.284 320.019 136.289 319.997 136.276 319.983C135.193 318.803 133.717 317.759 132.508 316.67C130.433 314.799 128.521 312.839 126.691 310.723C120.009 302.99 115.243 293.692 113.531 283.561C112.599 278.04 112.623 272.425 113.027 266.858C113.336 264.849 113.621 262.822 114.194 260.867C115.43 256.652 117.326 252.66 118.388 248.394C120.554 246.084 121.827 242.588 123.738 240C127.995 234.237 133.414 228.592 139.07 224.232C141.806 222.123 144.836 220.314 147.742 218.449L158.844 212.484C163.136 211.099 167.344 209.376 171.685 208.163C178.355 206.301 186.115 205.399 193.008 206.245Z"/>
	<path fill="#FF8960" d="M184.576 211.354C195.544 210.672 207.318 212.119 217.677 215.871C225.236 218.608 235.933 223.692 239.531 231.305C237.918 230.607 236.886 229.223 235.485 228.224C234.015 227.175 232.224 226.577 230.556 225.921L224.677 223.578C215.736 220.195 206.918 217.366 197.317 216.583C190.604 216.035 183.284 216.807 176.669 218.039C157.229 221.662 140.008 231.838 128.717 248.256C122.192 258.51 118.946 271.096 120.492 283.203C121.209 288.825 122.747 294.286 123.678 299.875L123.25 300.204C122.992 300.101 122.87 300.075 122.646 299.856C121.797 299.026 121.103 297.436 120.566 296.393C117.866 291.152 116.172 285.769 115.713 279.865C115.283 274.324 115.521 268.601 116.856 263.192C119.376 252.983 125.669 243.9 132.415 236.038C145.706 220.549 164.548 212.866 184.576 211.354Z"/>
	<path fill="white" d="M191.652 236.599C202.001 235.879 212.571 239.825 220.375 246.497C227.519 252.605 232.877 261.659 233.493 271.177C234.146 281.264 229.687 291.325 223.054 298.761C217.924 304.512 210.218 309.181 202.732 310.945C200.187 311.545 197.665 311.713 195.062 311.866C185.461 312.486 174.643 308.862 167.168 302.939C159.84 297.133 154.569 288.608 153.521 279.223C152.372 268.925 155.516 259.281 161.999 251.278C169.715 241.755 179.76 237.848 191.652 236.599Z"/>
</svg>
