<?xml version="1.0" encoding="utf-8" ?>
<svg xmlns="http://www.w3.org/2000/svg" xmlns:xlink="http://www.w3.org/1999/xlink" width="512" height="512">
	<path fill="#FA9C2B" d="M246.687 2.10738C248.286 1.92843 250.223 2.27031 251.75 2.74738C255.487 3.91494 258.499 7.62913 258.257 11.625C258.152 13.3637 257.482 15.1814 257.025 16.8667C255.108 23.9237 254.101 29.674 257.832 36.4375C265.013 49.4565 281.658 50.409 294.396 54.3534C297.258 55.2398 299.866 56.5185 302.517 57.8933C311.141 62.3665 319.134 69.0305 323.683 77.7744C329.391 88.7457 328.339 99.9501 324.746 111.419C325.474 112.12 326.448 112.645 327.296 113.195C331.559 109.909 334.734 105.335 338.126 101.207L355.49 79.4231L364.681 67.8165C369.548 61.6219 374.637 53.9585 381.462 49.7685C386.19 46.8656 391.765 46.0363 397.123 47.3682C403.348 48.9158 407.956 52.5106 411.217 58.0066C413.633 62.079 415.444 67.8691 414.156 72.5728L414.03 73C413.339 75.3968 412.017 77.6196 410.485 79.5781C404.509 87.2156 397.155 94.0978 390.517 101.176L354.177 139.724C355.936 144.096 357.491 148.423 358.08 153.135C358.841 159.211 357.962 164.815 356.412 170.651C355.998 172.207 354.18 176.848 354.214 176.901C354.303 177.042 356.207 177.745 356.494 177.875L362.25 180.77C372.144 186.304 379.726 194.295 384.246 204.719C389.81 217.548 388.566 232.125 383.481 244.935C381.079 250.987 377.166 257.505 371.641 261.158C369.731 262.421 367.504 263.299 365.406 264.206C366.309 266.145 367.31 268.019 368.027 270.04C369.977 275.536 370.315 281.332 368.875 286.987C368.519 288.387 367.945 289.714 367.313 291.011C363.537 298.761 357.119 302.083 349.349 304.747L292.362 435.187L285.506 451.75L274.692 478.057L268.807 492.49C267.612 495.429 266.469 498.529 264.954 501.314C263.863 503.321 262.465 504.997 260.643 506.383C257.17 509.026 250.945 510.739 246.595 510.079L246.25 510.019C240.561 509.103 236.129 505.255 232.887 500.697C229.142 495.429 226.856 488.779 224.248 482.875L212.382 456.125L159.62 337.518C158.216 334.359 145.322 304.642 144.859 304.276C144.134 303.703 141.894 303.397 140.957 303.165C139.167 302.721 137.34 302.161 135.666 301.381C129.802 298.647 125.741 293.624 123.682 287.518C121.452 280.906 122.611 272.104 125.67 265.921L125.811 265.643C122.697 264.578 119.525 263.114 116.816 261.236C106.229 253.896 99.3377 243.551 97.1106 230.815C94.8523 217.9 97.4853 205.29 105.087 194.592C111.38 185.736 121.844 180.405 132.37 178.644L129.354 169.638C126.376 156.809 127.845 142.579 135.062 131.393C139.384 124.695 145.515 119.621 153.039 116.933C156.769 115.601 160.702 114.878 164.561 114.026C162.344 109.355 161.014 104.018 160.593 98.875C158.774 76.654 169.944 56.903 183.844 40.4931C188.353 35.1698 193.557 30.3559 198.923 25.9197C208.875 17.6928 219.456 11.0578 231.467 6.25594C236.42 4.27579 241.328 2.53585 246.687 2.10738ZM238.665 20.125C228.219 23.204 219.663 28.7481 211.253 35.513C200.097 44.4872 189.832 55.6256 182.949 68.25C177.355 78.5102 173.346 91.0927 176.814 102.75C178.333 107.857 180.998 112.701 185.869 115.251C186.834 115.756 187.885 116.05 188.914 116.394C193.514 117.931 199.071 117.527 203.875 117.545C205.358 117.55 207.088 117.39 208.524 117.764C210.677 118.326 212.509 119.945 213.529 121.891C214.589 123.914 214.691 126.023 213.912 128.176C213.282 129.919 211.352 131.375 209.693 132.073C206.172 133.554 202.034 132.994 198.362 132.549L186.531 130.8C183.086 130.194 179.603 129.376 176.123 129.046C168.468 128.318 159.766 129.428 153.445 134.05C149.654 136.821 146.947 140.035 145.09 144.348C141.78 152.033 142.394 162.876 145.484 170.529C147.44 175.369 150.656 178.375 155.465 180.392C158.115 181.503 161.163 182.28 164 182.755C169.907 183.745 179.426 183.462 182.029 190.133C182.684 191.81 182.766 193.813 182.034 195.473C181.139 197.501 179.505 198.468 177.477 199.148C174.303 200.212 171.126 199.595 167.916 199.108C150.105 196.409 126.276 185.73 115.313 206.893C112.217 212.87 111.438 220.156 112.268 226.776C112.482 228.477 112.649 230.139 113.179 231.777C115.284 238.286 118.7 244.755 125.08 247.975C134.85 252.906 146.109 252.94 156.789 253.881C161.393 254.286 166.067 254.945 170.687 255.018L288.448 254.978L317.687 254.736C327.748 254.672 337.768 254.729 347.75 253.252C353.406 252.416 360.122 250.919 364.375 246.844C366.165 245.13 367.578 243.175 368.753 241L368.938 240.663C373.462 232.323 373.094 221.433 370.458 212.574C367.632 203.082 361.505 197.482 353 193.005L341.991 187.778C340.204 186.84 338.112 185.733 336.838 184.125C336.102 183.197 335.729 182.124 335.356 181.017C336.374 176.983 338.582 173.88 340.387 170.205C344.817 161.188 343.817 151.247 338.707 142.722C335.741 137.772 331.663 133.335 326.821 130.183C323.842 128.243 320.584 126.91 317.33 125.514C313.708 123.961 309.003 122.214 307.304 118.375L307.167 118.074C306.692 116.908 307.247 115.516 307.524 114.35C308.209 111.471 309.82 108.64 310.899 105.876C313.866 98.2687 313.186 90.3578 308.961 83.3732C303.474 74.3014 293.743 69.3252 283.728 66.895C280.078 66.0092 276.358 65.4626 272.733 64.4519C261.497 61.3187 251.181 54.8584 244.92 44.7632C240.419 37.5048 238.996 28.7913 239.593 20.375L239.352 20.0532L238.665 20.125ZM236.441 304.621L161.969 305.299L180.416 347.307C182.536 352.183 185.5 357.191 186.923 362.296L201.5 355.473L240.125 337.501L263.871 326.495C268.267 324.424 272.433 321.995 277.037 320.364C278.515 319.841 279.845 319.809 281.375 320.173L281.672 320.242C283.798 320.757 285.426 321.906 286.596 323.781C287.646 325.464 288.505 328.05 287.918 330.02C287.178 332.506 285.148 334.026 282.92 335.117L193.689 376.514L206.406 405.377L245.568 385.28L259.906 377.92C263.927 375.853 267.927 373.381 272.25 372.002C273.834 371.497 276.039 371.134 277.668 371.625C279.573 372.2 281.161 373.768 282.065 375.512C283.08 377.468 283.262 379.776 282.532 381.844C281.394 385.068 277.811 386.999 274.87 388.322L235.76 407.807L219.674 415.916C217.491 417.055 214.946 418.039 213.026 419.569L221.795 439.531C222.653 441.467 223.328 444.103 224.651 445.739C234.145 441.753 243.356 436.656 252.616 432.128L271.842 422.625C274.613 421.259 277.555 420.075 280.244 418.567C281.167 418.049 282.008 417.455 282.758 416.705C284.334 415.125 285.236 412.13 286.129 410.082L291.193 398.489L299.755 379.152L332.448 305.311L236.441 304.621ZM343.667 268.862L329.481 270.126L304.395 270.233L255.002 270.34L200.214 270.514L172.079 270.497L147.053 269.098C145.655 269.031 143.172 268.52 142.14 269.468C141.566 269.995 140.989 270.525 140.479 271.115C138.609 273.273 136.803 276.547 137.022 279.491C137.156 281.275 138.012 283.019 139.435 284.125C141.163 285.467 144.346 285.965 146.438 286.625C146.241 286.977 146.038 287.206 145.757 287.487C145.133 288.112 144.858 288.603 144.83 289.5C145.114 290.24 145.306 290.441 145.921 290.887L146.625 290.996L151.408 290.155C155.858 289.491 160.698 290.212 165.188 290.222L194.708 290.028L232.242 289.86C236.175 289.766 240.113 288.974 244 288.948C248.661 288.917 253.356 289.813 258.063 289.882L307.59 289.917L333.366 289.896C337.338 289.889 342.062 290.375 345.925 289.585C348.596 289.039 351.415 287.078 353.064 284.924C354.434 283.133 355.071 281.074 354.707 278.833L354.59 278.23L354.535 277.925C354.031 275.25 352.049 271.663 349.76 270.117C348.237 269.088 345.5 268.641 343.667 268.862ZM272.86 439.375C269.86 440.573 267.019 442.126 264.108 443.521L245.579 452.584L236 457.251C234.339 458.073 232.539 458.848 230.996 459.869L241.887 485.061C243.165 487.933 244.861 493.692 247.875 494.988C248.532 495.271 248.966 495.256 249.606 494.925C250.481 494.472 251.099 493.115 251.48 492.25L263.177 463.333L269.958 447.573C271.04 445.126 272.526 442.576 273.324 440.044C273.403 439.793 273.405 439.73 273.439 439.5C273.248 439.449 273.057 439.369 272.86 439.375ZM392.661 61.5214C389.779 62.4103 387.585 64.0198 385.466 66.1531C380.028 71.6262 375.951 78.1628 371.316 84.2725L353.877 106.833L342.106 121.79L346.625 124.989C347.009 124.789 347.287 124.659 347.595 124.347L379.444 90.5973L390.725 78.5541C393.003 76.083 395.44 73.6105 397.425 70.8919C398.2 69.8294 398.544 68.6776 398.888 67.42C398.196 65.4396 397.434 63.4142 395.43 62.388C394.529 61.9266 393.658 61.6625 392.661 61.5214Z"/>
</svg>
