<?xml version="1.0" encoding="utf-8" ?>
<svg xmlns="http://www.w3.org/2000/svg" xmlns:xlink="http://www.w3.org/1999/xlink" width="512" height="512">
	<path fill="#FA9C2B" d="M427.647 10.083C429.159 9.82647 431.03 9.91969 432.555 10.1004C437.968 10.742 442.832 13.7342 446.167 18.0176C449.381 22.1459 451.086 27.6411 450.35 32.8632C449.639 37.9065 446.553 42.5521 442.429 45.481C438.255 48.4459 432.909 49.8317 428.078 51.3323L408.956 56.9077L375 66.7122L364.84 69.6346C362.416 70.4159 360.05 71.187 358 72.7626C356.059 74.2542 354.715 76.1741 353.905 78.4746C353.044 80.9179 352.779 83.4918 352.373 86.0273L350.412 96.9988L344.418 125.5C343.621 129.36 342.719 133.132 342.205 137.05C351.56 137.725 361.181 137.281 370.563 137.295C376.205 137.303 382.227 137.079 387.734 138.5C390.051 139.098 391.948 140.023 393.83 141.511C397.343 144.289 399.025 148.318 399.478 152.688C399.918 156.932 399.165 161.527 398.692 165.756L397.287 179.882L390.65 249.068L377.319 388.956L371.337 445.405L369.287 463.449L367.888 475.348C366.881 481.367 365.166 487.415 361.246 492.231C356.004 498.672 347.876 501.286 339.885 501.999C335.891 502.355 331.785 502.184 327.777 502.178L309.092 502.169L247.525 502.169L196.538 502.175L181.368 502.169C178.18 502.166 174.866 502.319 171.697 501.927C166.634 501.301 161.421 499.463 157.471 496.168C152.774 492.249 149.665 487.307 147.769 481.516C146.782 478.499 146.541 475.21 146.203 472.068L144.959 460.248L142.353 434.172C141.999 432.951 142.083 431.076 141.956 429.765L140.865 417.87L138.005 384L127.441 263.414L124.609 230.854L122.977 211.978C121.443 210.995 118.206 211.074 116.327 210.751C111.683 209.951 106.975 208.788 102.56 207.119C85.3938 200.628 70.964 187.999 63.3783 171.162C55.8255 154.399 55.4624 134.136 62.0053 117C68.4295 100.175 82.4459 86.8953 98.7865 79.7866C113.857 73.2302 132.285 72.0979 147.687 78.3303C167.017 86.1521 180.329 102.609 185.481 122.604C186.171 125.279 186.625 127.931 186.967 130.672C187.192 132.478 187.086 135.505 187.752 137.129L301.017 137.484C302.264 133.344 302.747 128.989 303.622 124.758L310.415 92.6158L311.582 85.7235L314.557 72.9652C316.645 64.8406 319.379 56.3452 324.313 49.4613C327.808 44.5851 332.478 40.6245 337.766 37.8161C349.01 31.8448 361.539 28.5593 373.75 25.197L402 17.3823C410.557 14.9672 418.837 11.5468 427.647 10.083ZM213.398 264.612L168.167 270.439L169.034 286.547L172.618 348.049L174.048 362.258L178.188 404.393L181.873 442.219C182.316 446.476 182.34 450.862 183.023 455.078C183.33 456.972 184.049 460.32 185.603 461.514C186.343 462.082 187.342 462.394 188.25 462.54L188.615 462.602C192.645 463.225 197.211 462.675 201.298 462.632L223.73 462.606L310.858 462.614L320.445 462.854C321.903 462.862 323.799 463.002 325.175 462.566C326.204 462.24 327.288 461.58 328.088 460.859C329.269 459.796 329.679 458.242 329.937 456.737C330.828 451.537 331.078 446.126 331.646 440.875L335.375 405.282L341.352 348.777L344.427 319.339L345.267 295.586L346.355 269.737C331.308 276.02 314.918 279.15 298.682 279.923C294.308 280.131 289.67 280.339 285.31 279.859C275.928 278.826 266.802 276.173 257.823 273.375C248.225 270.385 238.64 266.811 228.648 265.332C223.553 264.578 218.537 264.526 213.398 264.612ZM275.738 200.112C267.286 200.435 259.052 202.017 251.177 205.156C236.723 210.92 223.624 220.611 207.611 221.688C197.953 222.338 187.462 221.335 178.181 218.625L165.076 214.167C161.504 212.801 158.246 211.329 154.502 210.417C149.391 209.172 143.72 208.969 138.478 209.407L139.21 222.241L154.217 390.625L158.283 436.65L159.977 455.57C160.535 462.158 160.932 468.741 162.159 475.251C162.799 478.648 164.001 482.25 166.727 484.552C168.552 486.093 171.592 486.602 173.948 486.739C178.461 487.002 183.023 486.871 187.544 486.851L206.248 486.835L268.713 486.834L314.766 486.849L329.248 486.887C332.304 486.894 335.455 487.027 338.499 486.746L339.54 486.6C343.477 485.986 346.925 484.891 349.371 481.519C351.244 478.938 352.237 475.872 352.764 472.75C354.253 463.935 354.765 454.822 355.776 445.928L363.147 373.241L373.044 268.118L377.271 223.403L378.564 211.261C376.299 210.229 374.123 209.008 371.82 208.065C361.469 203.826 350.937 201.582 339.795 200.804L328.58 200.394L325.86 220.193L325.8 220.498L320.35 261.684C326.725 260.346 332.882 257.677 339 255.476C342.927 254.064 347.08 252.205 351.315 251.978C353.48 251.863 355.649 252.333 357.48 253.521C359.567 254.875 360.834 256.938 361.282 259.365C361.856 262.474 361.571 265.893 361.504 269.05L360.975 285.779L360.122 316.669L357.678 341.187L352.533 392.167L348.761 429.422C347.864 438.682 347.277 448.28 345.551 457.415C344.69 461.974 343.419 466.527 340.65 470.332C337.473 474.697 332.432 476.661 327.258 477.375L325.66 477.585C322.651 477.978 319.479 477.899 316.445 477.907L302.875 477.907L259.3 477.878L211.938 477.868L198.04 477.868C194.288 477.866 190.46 477.94 186.75 477.328C181.522 476.465 176.178 475.056 172.842 470.578C169.596 466.223 168.558 460.354 167.714 455.106C166.711 448.871 166.397 442.55 165.797 436.273L161.733 389.247L157.799 343.878L155.904 322.292L154.089 301.317L153.685 288.875L153.193 282.059L153.015 268.549C153.004 265.293 152.858 262.016 153.376 258.79C153.784 256.249 154.445 253.889 156.625 252.302C158.06 251.257 159.711 251.147 161.403 251.458C162.548 251.668 163.945 252.042 164.875 252.771C165.478 253.243 166.991 255.217 167.469 255.367C167.924 255.51 169.218 255.305 169.742 255.286C176.02 255.049 181.888 253.527 188.037 252.44L203.443 250.058C210.322 249.279 217.78 248.939 224.662 249.643C232.492 250.445 240.15 251.928 247.706 254.125L270.75 261.536C275.18 262.772 279.815 263.634 284.375 264.241C289.731 264.955 295.395 264.578 300.789 264.513C301.678 264.503 303.203 264.678 304.004 264.36L313.177 200.174L275.738 200.112ZM136.192 152.635L133.745 152.722L137.501 194.344C143.397 194.13 149.141 193.661 155.005 194.66C163.91 196.177 171.864 200.177 180.327 203.074C185.03 204.683 189.803 205.758 194.75 206.257C198.784 206.664 202.961 206.296 206.966 205.756C210.649 205.259 214.4 204.679 217.909 203.399C227.194 200.013 235.32 194.093 244.5 190.503C250.738 188.064 257.26 186.227 263.905 185.363L273.639 184.553L291.856 184.643L298.035 152.46L136.192 152.635ZM120.424 90.0985C105.217 91.9831 92.496 98.6238 83.0099 110.83C74.911 121.251 71.3133 136.053 72.9883 149.051C74.9413 164.207 82.4848 176.974 94.6312 186.178C102.489 192.132 111.935 194.896 121.638 195.842L121.223 188.286L119.893 172.257C118.811 162.735 115.129 149.714 121.881 141.578C123.927 139.113 126.758 137.967 129.811 137.402C131.514 137.086 133.395 137.142 135.126 137.1L146.046 137.045L172.251 137.194C170.986 123.465 165.64 109.906 154.912 100.762C145.286 92.5566 132.948 89.0334 120.424 90.0985ZM429.315 25.8059C424.938 26.7262 420.696 28.1362 416.386 29.3238L386.632 37.7815L363.418 44.3997C358.689 45.8155 354.042 47.0549 349.583 49.2238C344.138 51.872 339.306 55.3186 335.981 60.4726C329.967 69.792 328.556 81.5675 326.462 92.25L322.365 112.125L312.998 157.375L308.946 177.151C308.457 179.58 308.268 182.064 307.679 184.475L314.723 184.727L315.525 184.625C316.352 183.551 316.358 181.692 316.63 180.382L318.944 169.577L328.613 124.151L333.944 99.25C335.84 89.9257 337.392 79.6049 341.122 70.8254C342.695 67.1242 344.674 63.8891 347.718 61.2023C352.931 56.6002 359.558 55.2211 365.958 53.1549L384.25 47.735L411.802 39.666L423.648 36.2197C427.171 35.2055 431.858 34.542 434.681 32.1044C435.057 31.7804 435.293 31.5683 435.568 31.155C434.87 29.153 434.071 26.8678 431.977 25.9478C431.243 25.625 430.083 25.6147 429.315 25.8059ZM338.494 152.503L331.935 184.997C345.468 185.292 359.534 187.621 372.276 192.182C374.377 192.934 376.53 193.548 378.549 194.514L379.5 194.962C380.109 194.673 380.133 194.493 380.336 193.853C380.684 192.754 380.675 191.458 380.762 190.312L381.227 184.22L383.235 163.656L384.053 152.74L338.494 152.503Z"/>
	<path fill="#FA9C2B" d="M100.718 118.534C102.891 118.23 105.252 118.661 107.25 119.548C109.382 120.494 111.399 122.581 112.216 124.765C113.079 127.071 113.135 130.297 111.994 132.5C110.496 135.392 107.889 136.504 104.97 137.462C102.809 137.791 100.328 137.419 98.375 136.435C96.144 135.312 94.2939 133.526 93.4763 131.137C92.6337 128.675 92.6815 125.966 93.852 123.625C95.3054 120.719 97.815 119.512 100.718 118.534Z"/>
	<path fill="#FA9C2B" d="M102.245 151.317C104.434 151.044 106.692 151.163 108.717 152.105C110.959 153.148 113.438 155.184 114.24 157.625C114.989 159.903 114.962 163.143 113.76 165.279C111.786 168.79 108.756 170.243 105.04 171.2C102.416 171.308 99.5281 171.053 97.2519 169.609C94.717 168.001 93.1551 165.824 92.6328 162.878C92.2054 160.467 92.9262 158.062 94.3104 156.087C96.2197 153.362 99.0653 151.913 102.245 151.317Z"/>
	<path fill="#FA9C2B" d="M135.774 103.335C138.197 103.351 140.902 104.152 142.932 105.498C145.174 106.985 146.37 109.414 146.875 111.998C147.444 114.909 147.215 117.541 145.445 120.048C143.371 122.987 140.187 123.93 136.811 124.471C133.796 124.552 131.341 123.985 128.891 122.125C126.847 120.574 125.621 118.058 125.301 115.551C124.949 112.788 125.362 110.057 127.123 107.844C129.273 105.14 132.427 103.771 135.774 103.335Z"/>
</svg>
