<?xml version="1.0" encoding="utf-8" ?>
<svg xmlns="http://www.w3.org/2000/svg" xmlns:xlink="http://www.w3.org/1999/xlink" width="512" height="512">
	<path fill="#EE8D0B" d="M251.924 38.5951C253.717 38.3858 255.572 38.4333 257.375 38.5094C263.734 38.778 270.032 41.2608 275.494 44.4437C283.148 48.9039 289.812 54.6775 296.483 60.4474L313.777 75.4323L343.807 101.382L357.665 113.465L402.219 159.049L428.174 186.643C433.933 193.011 439.014 200.312 444.298 207.095C464.342 232.825 483.89 262.263 488.024 295.377C488.832 301.849 488.823 308.623 488.462 315.125C487.471 332.956 478.393 350.788 466.848 364.107C462.915 368.644 458.401 372.709 453.949 376.725L498.375 368.782C501.21 368.591 503.961 368.781 506.16 370.797C507.89 372.383 508.713 374.591 508.792 376.905C508.893 379.888 508.115 382.352 506.591 384.899C502.786 391.255 497.684 397.029 493.226 402.956L466.353 438.817L451.303 458.898C449.101 461.883 447.175 465.425 444.559 468.059C442.697 469.934 440.268 470.438 437.734 470.646C431.204 471.181 424.353 470.784 417.798 470.78L379.463 470.768L258.375 470.754L76.1109 470.654C74.5512 470.546 72.5305 470.518 71.0547 470C68.6307 469.148 66.423 466.41 64.8082 464.508C60.4739 459.404 56.7035 453.639 52.6973 448.267L29.0244 416.557L11.151 392.635C9.07003 389.808 6.7362 387.162 4.91965 384.145C3.58197 381.924 2.49291 379.198 2.80574 376.568C3.09053 374.174 4.81324 371.119 6.78141 369.714C8.46921 368.509 10.7542 368.15 12.7815 368.26C16.6995 368.474 20.3698 370.072 24.1771 370.813L58.4346 376.924C55.4706 374.235 52.2834 371.722 49.4758 368.875C35.5796 354.784 26.3186 338.083 23.5698 318.392C22.4808 310.592 22.9037 302.524 24.0978 294.768C27.9913 269.479 40.5659 247.141 53.5108 225.5C64.8502 206.543 77.6348 188.78 90.8514 171.104C98.7124 160.591 107.461 150.474 116.141 140.629C134.353 119.972 153.658 100.344 174.687 82.5343C183.402 75.153 192.184 68.0326 201.689 61.6771C210.055 56.0829 219.36 51.4737 228.442 47.1721C236.019 43.5833 243.549 39.8072 251.924 38.5951ZM252.083 54.0317C246.616 55.253 241.457 57.6372 236.431 60.064L223.741 66.5717C219.297 69.0641 214.714 71.4358 210.448 74.2218C193.21 85.4784 177.487 99.4027 162.618 113.576L139.426 136.991L123.951 155.406L108.712 173.497L92.9845 194.5L82.3463 208.788L69.5683 228.575C59.3222 244.72 49.4932 261.486 43.4196 279.706C40.6869 287.903 38.7188 296.121 38.2283 304.773C37.9332 309.979 38.0152 315.393 39.159 320.5C40.4246 326.15 42.1339 331.631 44.687 336.843C51.2015 350.143 62.2059 360.944 74.6846 368.732C87.0392 376.443 101.189 381.633 115.375 384.743C128.688 387.661 142.579 388.158 156.125 389.272L182.563 391.454L190.276 391.714L199.633 392.545L259.875 393.296L289.607 393.266L298.839 392.829L311.617 392.614L331.536 391.134C362.634 389.43 395.015 388.174 424.039 375.718C434.541 371.21 444.577 365.085 452.678 356.936C465.321 344.216 473.67 325.873 473.501 307.776C473.362 292.92 468.945 278.83 462.965 265.381C450.368 237.048 430.43 211.724 410.03 188.601L371.696 148.309L343.038 121.238L317.265 96.8051L290.619 75.1494C283.811 69.5584 277.602 62.8231 269.922 58.3922C264.672 55.3629 259.575 53.8608 253.504 53.9566L252.083 54.0317ZM26.0205 386.625C25.8834 387.61 26.5972 388.293 27.179 389.07L77.0637 455.511L435.159 455.861L465.455 414.264L486.852 386.565L430.864 395.267L407.249 398.92L391.009 401.375L375.483 402.898L350.511 405.357L324.679 406.665L297.058 408.371L253.876 408.398L213.664 408.366L187.666 406.767L157.18 405.044L124.876 401.419L56.75 392.473L42.375 389.983L32.25 387.965C30.456 387.586 27.7958 386.467 26.0205 386.625Z"/>
	<path fill="#EE8D0B" d="M285.147 89.3667L287.385 89.5258C295.952 90.3792 302.922 96.3301 308.13 102.762C312.049 107.603 315.478 112.758 319.012 117.874C321.067 120.85 323.525 123.756 325.046 127.062C325.671 128.421 326.149 129.995 325.936 131.504C325.681 133.319 324.557 134.898 323.057 135.923C321.256 137.152 318.593 137.391 316.5 136.977C309.977 135.688 302.845 122.271 299.136 116.958L294.974 111.586C292.764 108.874 290.35 105.81 286.651 105.266C284.409 104.936 282.487 105.529 280.672 106.826L280.396 107.026C278.386 108.868 276.751 111.667 276.445 114.397C275.772 120.392 275.999 127.401 280.047 132.318C282.203 134.937 286.47 137.395 286.984 140.919C287.254 142.77 286.903 144.387 285.755 145.875C284.331 147.721 282.342 148.764 280.041 149.038C276.821 149.421 274.055 148.688 271.519 146.648C264.776 141.223 261.306 132.31 260.572 123.854C259.804 115.007 261.916 105.114 267.696 98.1935C272.215 92.7827 278.226 90.0006 285.147 89.3667Z"/>
	<path fill="#EE8D0B" d="M238.402 83.3599C241.195 83.0742 245.2 83.643 247.495 85.2852C249.564 86.7659 250.486 88.8844 250.843 91.3435C252.044 99.5962 248.851 108.843 243.894 115.38C235.489 126.465 220.889 133.458 207.285 135.307C204.757 135.506 201.945 135.332 199.625 134.246C197.629 133.312 196.027 131.819 195.268 129.709L195.154 129.375C194.782 128.32 194.558 127.368 194.459 126.252C193.579 116.297 198.456 105.088 204.819 97.6043C212.88 88.1241 226.479 84.3978 238.402 83.3599ZM233.389 98.875C225.775 100.658 217.646 105.167 213.406 111.917C212.108 113.984 210.822 116.422 210.546 118.875C211.11 119.021 210.827 119.02 211.395 118.875C213.646 118.38 215.61 117.455 217.69 116.49C223.255 113.908 228.78 110.07 232.089 104.758C233.213 102.952 233.773 101.089 234.529 99.125L234.25 98.8124L233.389 98.875Z"/>
	<path fill="#EE8D0B" d="M253.642 175.604L256.292 175.548C263.117 175.558 270.191 177.238 276.571 179.557C293.336 185.651 307.499 196.47 320.043 208.942C338.837 227.626 353.223 250.985 363.023 275.517C368.281 288.678 372.449 302.812 372.483 317.086C372.52 332.676 366.041 347.117 355.064 358.109C343.115 370.075 327.24 376.436 310.46 377.246C304.749 377.522 298.945 377.056 293.216 377.045L258.125 377.043L221.875 377.038C215.267 377.056 208.672 377.499 202.061 377.232C186.874 376.618 172.092 371.922 160.437 361.922C147.937 351.197 140.099 336.093 138.875 319.662C137.407 299.956 144.85 280.145 153.368 262.744C161.163 246.819 170.755 231.683 182.321 218.216C191.031 208.073 200.739 198.878 211.672 191.168C220.2 185.154 229.584 180.124 239.754 177.534C244.267 176.384 249.01 175.957 253.642 175.604ZM252.992 190.85C226.314 193.986 205.816 213.134 189.836 233.349C182.004 243.258 174.797 254.085 169.046 265.344L163.02 278.712C159.318 287.476 156.008 296.585 154.591 306.038C153.729 311.783 153.828 317.824 154.515 323.573C155.825 334.535 162.752 344.612 171.321 351.276C178.441 356.812 188.485 360.48 197.375 361.736C206.762 363.063 216.688 362.466 226.157 362.463L258.625 362.448L289.315 362.452C298.803 362.45 308.691 362.974 318.056 361.279C327.035 359.654 336.341 355.025 342.813 348.574C351.94 339.477 357.234 328.66 357.246 315.66C357.259 302.738 352.619 290.537 347.655 278.806C342.229 265.985 335.804 253.607 327.831 242.173C321.588 233.219 314.328 224.803 306.577 217.118C302.924 213.497 299.075 210.303 295.032 207.133C283.776 198.307 270.484 190.66 255.779 190.693L252.992 190.85Z"/>
	<path fill="#EE8D0B" d="M213.567 232.54C216.044 232.258 218.99 232.54 221.332 233.395C224.555 234.572 226.979 236.851 228.377 239.977C229.791 243.141 230.188 245.883 228.889 249.164C227.355 253.035 223.83 254.808 220.237 256.35L219.967 256.416L219.516 256.511C216.393 257.187 212.689 256.761 209.875 255.234C207.121 253.74 205.058 251.06 204.262 248.044L204.156 247.625C203.375 244.628 203.562 241.082 205.174 238.368C207.12 235.092 209.941 233.41 213.567 232.54Z"/>
	<path fill="#EE8D0B" d="M293.879 232.298C296.915 232.025 300.031 232.372 302.698 233.95C305.221 235.441 307.827 238.736 308.49 241.584C309.159 244.463 308.851 248.165 307.164 250.636C304.978 253.838 301.272 255.716 297.558 256.434C296.206 256.61 294.6 256.549 293.252 256.325C289.661 255.73 286.22 253.872 284.133 250.821C282.628 248.62 282.195 245.684 282.656 243.08L282.718 242.75C282.964 241.343 283.473 239.686 284.306 238.511L284.496 238.25C286.91 234.799 289.778 233.149 293.879 232.298Z"/>
	<path fill="#EE8D0B" d="M253.905 255.549C255.474 255.351 256.952 255.394 258.5 255.75C263.215 256.834 267.319 259.445 271.125 262.332C276.51 266.417 281.901 271.495 285.509 277.256C288.11 281.407 288.349 286.994 287.252 291.664C285.611 298.65 281.343 305.976 275.078 309.768C269.569 313.103 264.41 314.609 258.056 315.465C256.131 315.622 254.111 315.593 252.197 315.325L248.348 314.631C240.04 312.587 231.804 306.857 227.418 299.449C224.306 294.191 223.038 288.111 224.495 282.125C225.049 279.848 225.894 277.786 227.158 275.812C229.849 271.608 233.68 267.958 237.505 264.78C242.48 260.646 247.487 256.94 253.905 255.549ZM255.182 272.008C249.484 274.494 242.284 279.462 239.848 285.397C239.099 287.222 239.385 288.565 240.167 290.314C242.158 294.769 245.681 297.89 250.266 299.525C252.285 300.245 254.487 300.598 256.625 300.324C261.603 300.035 265.43 298.233 268.752 294.463C270.598 292.367 271.703 290.13 272.697 287.55C269.426 281.743 264.72 273.96 257.741 272.183C256.884 271.964 256.058 271.963 255.182 272.008Z"/>
</svg>
