<?xml version="1.0" encoding="utf-8" ?>
<svg xmlns="http://www.w3.org/2000/svg" xmlns:xlink="http://www.w3.org/1999/xlink" width="512" height="512">
	<path fill="#FA9C2B" d="M250.865 9.3645C258.38 9.16499 266.206 9.0534 273.702 9.54084C286.009 10.3412 298.525 12.4228 310.625 14.753L332.378 19.3105C365.228 27.618 396.581 41.0367 425.125 59.3095C447.295 73.5019 467.145 90.8495 485.199 109.936C492.181 117.318 501.041 125.471 503.312 135.75L503.499 136.595C504.076 139.522 503.684 142.751 502.987 145.625C500.766 154.789 495.081 163.051 491.015 171.47C488.04 177.629 485.664 184.206 481.851 189.926C479.301 193.753 475.253 197.604 470.613 198.504C466.851 199.234 463.184 199.119 459.462 198.13L459.189 198.054C456.617 205.036 452.774 211.336 449.347 217.908L439.783 236.378L427.61 258.414L356.207 387.5L323.834 446.107C317.461 457.719 312.208 470.319 303.793 480.656C301.35 483.656 298.46 486.226 295.442 488.628C285.43 496.594 274.243 500.873 261.559 502.184C256.399 502.59 250.979 502.304 245.875 501.491C231.427 499.189 218.098 491.611 208.414 480.699C200.87 472.199 196.161 461.641 190.757 451.75L171.816 417.112L140.562 360.235L84.2597 257.5L57.4063 208.566L53.9677 201.89C53.4408 200.752 53.0814 199.267 52.36 198.269L49.9253 198.553C45.147 199.2 39.7651 198.726 35.8342 195.69L35.5234 195.446C33.2122 193.673 31.1906 191.389 29.6343 188.927C26.3893 183.794 24.3651 178.175 21.7135 172.75C18.0296 165.213 13.633 157.787 10.6444 149.95C9.51071 146.978 8.57 143.839 8.49245 140.635C8.22961 129.775 17.1319 120.174 24.125 112.813L33.0688 103.416C41.162 94.8926 49.9106 86.9782 59.0085 79.5479L73.9019 68.0785L87.9006 59.2925C94.1362 55.3527 100.441 51.062 106.907 47.5249L122.516 39.9063C153.52 25.4257 187.082 15.3099 221.092 11.1966C230.932 10.0066 240.963 9.62041 250.865 9.3645ZM243.902 112.122C225.67 112.458 207.708 114.541 189.952 118.765C183.981 120.185 178.08 122.037 172.247 123.931C158.84 128.285 146.07 133.272 133.409 139.494C121.99 145.107 110.866 151.32 100.557 158.817L88.2247 168.674L74.8799 179.561C71.2283 182.733 68.0923 186.408 64.0911 189.18C68.3229 195.985 71.9201 203.285 75.7655 210.319L100.166 255.066L179.772 399.707L202.563 441.137L210.875 456.276C213.616 461.215 216.387 466.172 219.967 470.569C225.95 477.917 235.328 483.642 244.565 485.82C257.69 488.914 272.054 486.157 283.388 478.986C292.601 473.157 298.184 462.403 302.546 452.762C298.811 452.639 294.974 452.609 291.286 451.977C282.216 450.423 273.802 445.448 267.564 438.772C259.215 429.836 254.351 417.803 254.817 405.492C255.017 400.23 256.068 394.814 258.092 389.938C262.588 378.854 271.578 369.872 282.575 365.226C293.341 360.678 305.673 361.026 316.42 365.545C319.575 366.872 322.781 368.792 324.165 372.08C324.777 373.534 325.071 375.419 324.479 376.93L324.287 377.375L324.193 377.607C323.468 379.294 321.156 380.939 319.482 381.545C319.041 381.705 318.257 382.038 317.79 382.047C316.84 382.066 315.145 381.357 314.25 381.05C310.826 379.875 307.364 378.199 303.803 377.557C291.639 375.365 279.03 381.484 273.591 392.684C269.961 400.16 268.76 409.662 271.591 417.585C274.048 424.461 279.066 430.658 285.75 433.771C292.025 436.692 301.328 438.819 308.045 436.324C310.624 435.366 312.801 433.713 314.4 431.472C316.317 428.787 317.862 425.733 319.528 422.882L331.153 402.158L350.5 366.724L425.451 229.509L438.837 204.999L444.375 194.909C445.47 192.938 446.491 190.817 447.828 189L426.627 170.521L412.132 159.391C373.782 131.873 326.461 115.588 279.458 112.38C274.179 112.02 268.87 112.105 263.583 112.104L243.902 112.122ZM246.165 24.614C228.394 25.2797 210.644 28.0045 193.315 31.8783C159.306 39.4809 126.76 52.2572 97.1143 70.6929C82.2748 79.9209 68.5763 90.7362 55.6564 102.46L35.9707 121.684C32.4066 125.525 23.8189 134.742 24.0879 139.885C24.2499 142.982 25.2622 145.814 26.4412 148.651C28.8447 154.436 32.2235 159.762 35.0797 165.324L42.0284 179.914C42.4036 180.627 42.8499 181.396 43.4622 181.934C44.2909 182.663 45.4795 183.058 46.5789 182.895C48.4601 182.616 50.248 181.164 51.6961 179.992C54.5855 177.654 57.1272 174.644 59.8333 172.078L75.0121 158.975C106.465 133.834 142.92 114.762 181.991 104.706C196.388 101.001 211.146 98.7086 225.955 97.47C230.134 97.1204 234.358 97.2092 238.55 97.1045L266.911 96.8072C278.997 97.2567 291.13 97.9096 303.104 99.7164C329.814 103.747 355.666 112.032 380.005 123.649C392.678 129.697 404.959 136.5 416.546 144.454C427.174 151.749 437.973 159.351 447.563 168.004L455.512 175.493C458.466 178.371 461.171 181.93 465.152 183.362C466.173 183.73 467.422 183.613 468.242 182.875C469.25 181.969 470.101 180.566 470.737 179.375C473.337 174.505 475.395 169.241 477.807 164.261C480.678 158.334 484.068 152.58 486.396 146.409C487.113 144.508 487.669 142.079 487.676 140.033C487.683 137.551 486.694 134.994 485.406 132.916C482.5 128.225 478.041 124.357 474.22 120.407L461.754 107.597L445.926 93.578L437.59 86.451C431.665 81.6813 425.089 77.0884 418.702 72.9414C402.394 62.3522 385.148 53.7651 367.099 46.5947C337.955 35.0169 307.403 27.6841 276.124 25.1691C266.211 24.3721 256.111 24.6488 246.165 24.614Z"/>
	<path fill="#FA9C2B" d="M222.904 390.776C224.588 390.913 226.24 391.096 227.731 391.964C229.539 393.016 230.965 394.905 231.412 396.966C231.831 398.902 231.372 400.772 230.298 402.405C228.99 404.395 227.348 405.238 225.082 405.705C223.659 405.557 222.129 405.36 220.791 404.828C219.131 404.168 217.397 402.724 216.744 401.027C216.031 399.174 216.271 396.752 217.191 395.003C218.34 392.82 220.616 391.443 222.904 390.776Z"/>
	<path fill="#FA9C2B" d="M280.575 137.284C285.246 136.978 288.061 140.375 290.97 143.432C293.34 145.922 295.97 148.888 298.893 150.694L299.194 150.875C302.427 152.893 306.08 153.321 309.638 154.456C312.244 155.286 314.41 156.166 315.665 158.821C316.389 160.354 316.411 162.209 315.764 163.77C314.8 166.097 312.702 167.44 310.461 168.316C306.245 169.042 302.331 168.646 298.317 167.124C289.545 163.798 279.761 156.435 276.007 147.7C275.172 145.756 274.905 143.36 275.758 141.375C276.658 139.28 278.55 138.1 280.575 137.284Z"/>
	<path fill="#FA9C2B" d="M130.164 179.001C131.571 178.741 132.98 179.158 134.255 179.747C135.994 180.549 137.702 182.429 138.333 184.24C138.968 186.06 138.916 188.034 138.023 189.75C136.922 191.866 135.103 193.588 133.399 195.224C128.136 200.278 122.046 204.603 115.047 206.835C111.721 207.896 108.478 208.035 105.024 208.029C104.205 207.891 103.425 207.688 102.647 207.398C100.503 206.598 97.9595 204.809 97.078 202.65C96.3865 200.956 96.5539 199.268 97.2861 197.625C99.1865 193.36 104.25 193.05 108.229 192.021C111.269 191.235 114.528 190.398 117.213 188.716C121.91 185.775 124.888 181.116 130.164 179.001Z"/>
	<path fill="#FA9C2B" d="M163.847 208.075C172.378 208.888 175.951 218.758 182.909 222.65C185.675 224.196 188.649 224.812 191.75 225.232C193.103 225.416 194.643 225.434 195.896 225.999C197.803 226.86 199.185 228.648 199.843 230.601C200.47 232.465 200.411 234.388 199.451 236.127C198.395 238.038 196.496 239.47 194.437 240.112C187.104 241.526 180.753 239.059 174.484 235.438C167.763 231.555 160.315 224.946 158.176 217.269L157.981 216.577C157.518 214.721 157.722 212.719 158.829 211.125C160.012 209.42 161.875 208.511 163.847 208.075Z"/>
	<path fill="#FA9C2B" d="M259.838 225.328C261.07 225.421 262.382 225.46 263.546 225.907C266.828 227.166 269.103 229.801 271.4 232.341C273.924 235.13 276.497 237.987 279.806 239.857C284.061 242.262 288.787 242.257 293.211 243.972C295.383 244.814 296.927 246.712 297.757 248.834C298.272 250.15 298.427 251.801 297.775 253.103C296.762 255.123 294.499 256.439 292.434 257.082C289.553 257.783 286.43 258.07 283.486 257.593C278.724 256.822 274.798 255.07 270.759 252.454C266.777 249.873 263.464 246.719 260.307 243.202C257.711 240.311 255.292 237.434 254.404 233.555C253.979 231.697 253.989 230.122 255.015 228.434C256.055 226.723 257.978 225.782 259.838 225.328Z"/>
	<path fill="#FA9C2B" d="M304.057 286.095C307.629 285.392 312.378 286.49 315.75 287.731C317.442 288.353 319.198 289.22 320.671 290.263L321 290.5C325.704 293.822 329.098 298.971 330.503 304.524C332.051 310.644 331.047 318.11 327.692 323.494C323.454 330.297 316.853 333.422 309.302 335.153C304.413 335.712 299.101 334.657 294.806 332.275C288.936 329.019 284.881 324.229 283.002 317.756C281.23 311.648 281.4 303.994 284.589 298.341L284.786 298L286.354 295.605C290.795 289.797 296.953 287.086 304.057 286.095ZM305.295 301.285C302.511 301.925 300.013 303.071 298.466 305.613C297.342 307.461 296.871 309.883 297.423 311.987C298.072 314.46 299.524 317.069 301.774 318.409C303.697 319.553 305.634 320.086 307.858 320.018C310.621 319.185 313.262 317.246 314.658 314.688C315.705 312.767 316.193 310.345 315.514 308.22C314.782 305.925 313.389 303.517 311.15 302.437C309.199 301.496 307.466 301.131 305.295 301.285Z"/>
	<path fill="#FA9C2B" d="M221.246 151.084C226.428 150.511 232.46 151.781 236.875 154.612C242.409 158.16 246.9 163.408 248.245 169.966C249.628 176.71 248.005 183.847 244.168 189.51C240.216 195.343 233.887 199.084 227.051 200.429C221.659 201.091 214.925 199.724 210.34 196.736C204.562 192.971 201.089 187.119 199.761 180.445C198.574 174.475 199.941 166.827 203.432 161.789C207.68 155.657 214.015 152.362 221.246 151.084ZM223.029 166.277C220.057 167.03 217.62 168.715 216.025 171.375C214.655 173.662 214.345 176.405 215.084 178.949C215.771 181.314 217.23 182.938 219.363 184.084C221.159 185.048 223.416 185.641 225.398 184.982L225.611 184.907C228.617 183.841 231.056 182.515 232.538 179.493C233.612 177.304 234.095 174.949 233.281 172.587C232.457 170.198 230.914 168.362 228.625 167.293C226.708 166.399 225.121 166.175 223.029 166.277Z"/>
	<path fill="#FA9C2B" d="M355.378 180.603C365.84 180.087 376.78 184.327 384.527 191.292C392.423 198.392 397.75 208.731 398.312 219.391C398.788 228.412 396.603 236.067 391.983 243.783C390.743 245.855 389.52 247.922 387.884 249.716C380.448 257.872 369.821 262.838 358.8 263.303C348.206 263.187 337.505 260.214 329.34 253.17C321.04 246.011 316.209 236.571 315.425 225.609C314.598 214.043 318.382 203.079 325.981 194.379C333.574 185.685 344.036 181.336 355.378 180.603ZM352.649 196.316C345.579 197.53 339.163 200.944 334.974 206.867C331.127 212.306 329.747 220.097 330.919 226.61C332.158 233.495 336.454 239.99 342.234 243.884C347.15 247.197 355.015 248.366 360.806 247.704C367.986 246.261 374.346 242.739 378.414 236.453C382.446 230.223 383.659 222.71 382.037 215.498C380.655 209.352 376.668 203.425 371.324 200.055C366.095 196.759 358.762 195.589 352.649 196.316Z"/>
	<path fill="#FA9C2B" d="M210.157 266.355C211.614 266.168 213.194 266.254 214.665 266.26C223.392 266.294 231.572 269.007 238.617 274.187C248.142 281.19 254.911 292.385 256.716 304.074C258.769 317.365 255.36 328.714 247.401 339.457C241.825 346.982 232.09 352.064 223.098 354.232C220.727 354.804 218.236 355.051 215.822 355.403C212.22 355.819 208.34 355.512 204.75 355.004C194.674 353.579 184.487 346.863 178.44 338.796C171.217 329.16 167.458 316.337 169.25 304.336C170.865 293.522 176.833 282.237 185.797 275.715C188.892 273.463 192.161 271.291 195.684 269.765C200.251 267.787 205.236 266.847 210.157 266.355ZM209.891 281.839C201.725 282.875 194.852 286.94 189.815 293.462C184.727 300.049 183.334 308.91 184.58 317C185.566 323.396 190.397 330.426 195.571 334.141C199.546 336.995 203.747 339.044 208.625 339.779C211.275 340.178 213.885 340.309 216.554 339.997C221.279 339.233 225.679 337.488 229.625 334.781L230.026 334.51C232.917 332.538 235.299 329.776 237.256 326.905C241.28 320.999 243.194 312.537 241.743 305.525C240.059 297.389 235.258 290.56 228.249 286.12C222.895 282.727 216.208 281.064 209.891 281.839Z"/>
</svg>
