<?xml version="1.0" encoding="utf-8" ?>
<svg xmlns="http://www.w3.org/2000/svg" xmlns:xlink="http://www.w3.org/1999/xlink" width="512" height="512">
	<path fill="#292A31" d="M138.459 81.9669C138.037 81.0574 137.867 79.7763 137.615 78.7925L135.884 71.2266L130.731 48.9933C129.571 44.083 128.179 39.1762 127.328 34.2015C127.034 32.481 126.426 29.9578 127.15 28.3115C127.709 27.0409 129.744 26.2971 130.988 25.8419C132.644 25.2354 134.515 25.0566 136.25 24.7636C138.011 24.4663 140.924 23.7146 142.587 24.6095C143.393 25.0432 143.909 25.752 144.267 26.5752C146.344 31.353 147.085 36.9395 148.169 42.0195L151.666 57.6933C152.753 62.871 153.717 68.2531 155.147 73.3379C158.061 71.4553 161.203 70.0358 164.28 68.4574C172.242 64.3734 180.686 60.6544 189.25 58.025C196.895 55.6777 204.789 53.9662 212.652 52.555C233.335 48.8432 254.642 48.0044 275.5 50.7645C279.309 51.2686 283.188 51.6366 286.946 52.4502L302.56 55.9034C318.08 60.029 333.166 66.3973 347.123 74.2956C353.183 77.7247 359.044 81.3089 364.619 85.4987C373.376 92.0792 381.355 99.5799 389.183 107.22C400.896 118.652 411.798 130.766 420.597 144.62C424.38 150.577 427.588 156.894 430.88 163.127C436.378 173.53 441.718 184.292 445.728 195.375C449.463 205.697 452.066 216.584 454 227.375C456.153 239.386 457.561 251.917 457.572 264.134C457.582 275.087 456.454 286.086 454.784 296.901L452.286 311.111C450.469 319.113 448.359 326.923 445.49 334.625L441.827 343.492C433.31 364.005 422.044 382.449 405.592 397.575C402.475 400.442 399.013 402.516 395.743 405.11L393.618 416.838L390.916 430.077C390.1 434.413 389.555 439.311 388.03 443.433C387.526 444.797 386.406 446.561 385.131 447.348C384.853 447.52 384.556 447.622 384.25 447.729L384.006 447.815C381.324 448.683 377.666 448.489 374.871 448.49L363.201 448.485C361.229 448.485 359.067 448.237 357.198 448.918L356.936 449.172C353.866 451.848 348.91 453.34 345.183 454.926C336.249 458.727 326.915 461.306 317.517 463.661C293.166 469.761 268.317 473.195 243.172 471.79C226.361 470.851 209.445 468.6 193 465.002C186.677 463.619 180.439 462.167 174.25 460.247C168.228 458.379 162.323 456.03 156.5 453.625C151.082 451.388 145.676 449.229 140.519 446.415C134.129 442.928 128.196 438.675 122.314 434.414C117.411 430.862 111.613 427.426 107.58 422.904L107.404 422.955C101.982 423.689 96.142 421.691 91.7562 418.582C86.262 414.688 81.6501 408.069 80.5652 401.351C80.0469 398.141 80.3184 395.251 82.3587 392.588C85.3033 388.744 89.0409 387.044 93.7287 386.335C93.1775 385.063 91.6617 383.744 90.7503 382.679L85.4722 376.19C79.6722 368.793 74.194 361.258 69.9376 352.843L60.8397 333.677C52.6569 314.052 46.9133 293.233 45.4068 271.966C44.65 261.282 45.0836 250.163 45.9536 239.51C47.3057 222.955 50.2281 207.015 55.4371 191.216C68.1488 152.664 92.9078 116.21 125.327 91.6002C129.514 88.4221 133.768 84.3334 138.459 81.9669Z"/>
	<path fill="#F4C477" d="M253.346 287.237L257.504 287.24C256.749 289.307 255.887 291.184 254.692 293.036L252.433 295.416L253.346 287.237Z"/>
	<path fill="#F4C477" d="M136.747 346.507C142.65 344.84 148.556 345.497 154.467 346.619L154.882 349.552C154.559 349.977 154.773 349.893 154.226 349.752C150.415 348.771 146.51 347.808 142.579 348.597C141.524 348.499 140.603 348.386 139.563 348.682C139.677 348.334 139.63 348.519 139.698 348.125C139.21 347.987 138.87 347.924 138.481 347.592C137.95 347.14 137.356 346.842 136.747 346.507Z"/>
	<path fill="#FF6800" d="M254.886 273.412L262.657 273.745L262.559 279.487L253.897 279.521L254.886 273.412Z"/>
	<path fill="#FFFFF7" d="M179.263 425.005L179.069 424.811L178.75 424.483C177.545 423.265 176.592 421.974 175.601 420.581L189.756 420.992L189.774 426.536L189.53 426.496C186.708 426.067 183.679 426.575 181 425.506L179.263 425.005Z"/>
	<path fill="#F8A945" d="M288.765 268.818L288.513 268.079C288.061 266.284 289.023 263.226 289.339 261.375L291.339 249L293.644 233.353C293.728 232.919 293.79 232.694 294.065 232.32C294.384 231.886 295.47 231.991 296 231.951C295.851 235.717 291.81 267.166 291.042 268.293C290.32 268.641 289.549 268.704 288.765 268.818Z"/>
	<path fill="#F8A945" d="M164.052 403.48L165.129 410.325C159.471 413.727 153.567 416.926 146.84 417.463C143.318 417.744 139.282 417.185 135.864 416.316C133.494 415.713 131.47 414.637 129.316 413.538C130.386 413.478 132.369 413.764 133.26 413.308L133.924 412.883L134.756 412.401C135.936 413.147 137.658 413.238 139 413.606C140.186 413.931 142.866 414.049 144.061 413.716C145.075 413.433 146.196 413.634 147.251 413.372L149.999 412.708C151.912 412.294 153.955 411.367 155.75 410.593C156.332 410.342 156.826 410.101 157.375 409.782C160 408.258 161.867 405.569 164.052 403.48Z"/>
	<path fill="#F8A945" d="M189.756 420.992L210.274 420.81L212.432 427.769L194.629 427.753C190.732 427.753 186.4 428.267 182.625 427.299L182.335 427.234C181.17 426.955 180.067 425.862 179.263 425.005L181 425.506C183.679 426.575 186.708 426.067 189.53 426.496L189.774 426.536L189.756 420.992Z"/>
	<path fill="#0F7273" d="M246.643 337.646L254.874 342.679C257.723 344.587 261.304 346.954 262.403 350.411C262.607 351.054 262.708 351.853 262.718 352.529C259.601 352.393 256.435 352.192 253.317 352.337L244.115 353.142L245.558 342.835C245.81 341.132 245.926 339.222 246.643 337.646Z"/>
	<path fill="#FF6800" d="M389.66 275.226C389.694 274.602 389.674 274.267 389.998 273.707L418.115 274.079L417.214 280.288L398.496 280.041C395.137 280.025 391.329 280.349 388.027 279.864L389.66 275.226Z"/>
	<path fill="#FFFFF7" d="M110.634 362.283C111.276 361.04 112.178 359.931 113.094 358.878C117.762 353.508 124.252 350.039 130.945 347.9C132.802 347.307 134.796 346.64 136.747 346.507C137.356 346.842 137.95 347.14 138.481 347.592C138.87 347.924 139.21 347.987 139.698 348.125C139.63 348.519 139.677 348.334 139.563 348.682C132.767 350.095 126.608 352.559 121.804 357.787C120.633 359.06 119.748 360.523 118.662 361.857C117.874 361.906 117.676 362.331 117.127 362.875L117.088 363.141C117 363.576 116.813 363.857 116.627 364.25L116.251 365.251L116.064 365.618C115.843 366.062 115.791 366.349 115.696 366.822C115.611 367.243 115.655 367.082 115.377 367.5C115.375 368.068 115.407 367.987 115.127 368.5C114.865 368.981 114.873 369.481 114.803 370.002C114.665 371.044 113.02 371.85 112.119 372.366C111.077 371.236 109.972 370.185 109.347 368.763L108.873 368.842C108.839 368.153 108.851 367.481 108.593 366.832L110.673 362.911L110.634 362.283Z"/>
	<path fill="#FF6800" d="M296 231.951L301.091 231.957L301.032 232.241C300.441 235.177 300.173 238.209 299.752 241.175L297.254 259.059C296.866 261.895 296.771 265.449 295.927 268.146C295.808 268.528 295.567 268.811 295.25 269.05L294.518 269.484C292.678 269.453 290.87 269.84 289.037 269.595L288.765 268.818C289.549 268.704 290.32 268.641 291.042 268.293C291.81 267.166 295.851 235.717 296 231.951Z"/>
	<path fill="#F4C477" d="M99.8155 394.491C100.691 394.637 101.762 394.677 102.52 395.143C104.63 399.928 106.943 403.795 110.625 407.554L114.103 410.836C114.628 411.316 115.255 411.746 115.585 412.382C113.762 413.413 110.952 415.128 108.808 415.011L108.59 414.687C107.343 412.793 104.48 412.023 102.584 410.775L102.25 410.551C98.7194 408.21 96.6238 405.373 95.4231 401.293C95.7584 399.897 96.1295 398.64 97.0786 397.531L99.8155 394.491Z"/>
	<path fill="#FFFFF7" d="M235.889 91.4976L241.446 91.5105L238.936 126.248L233.392 121.951L235.889 91.4976Z"/>
	<path fill="#FFFFF7" d="M108.808 415.011C106.995 415.648 105.023 415.625 103.125 415.473C98.4836 415.102 94.5761 412.415 91.6308 408.966C89.3868 406.339 86.9943 401.774 87.495 398.25C87.6846 396.916 89.4666 395.48 90.5519 394.821C93.4549 393.057 96.7067 393.77 99.8155 394.491L97.0786 397.531C96.1295 398.64 95.7584 399.897 95.4231 401.293C96.6238 405.373 98.7194 408.21 102.25 410.551L102.584 410.775C104.48 412.023 107.343 412.793 108.59 414.687L108.808 415.011Z"/>
	<path fill="#F4C477" d="M151.115 142.125L151.646 142.076C151.863 145.33 153.044 148.837 153.86 152.01L157.171 165.936L147.691 165.753C146.153 165.731 144.547 165.984 143.026 165.823C142.184 165.733 141.796 165.801 141.248 165.125C142.717 157.109 146.711 148.933 151.115 142.125Z"/>
	<path fill="#FF6800" d="M356.089 232.09L358.872 232.381L359.166 232.407L363.167 232.453L358.074 258.857C357.325 262.273 356.838 266.538 354.921 269.508C353.422 269.784 351.964 269.777 350.446 269.775L350.008 269.594C349.93 268.595 350.213 267.38 350.328 266.373C351.345 262.886 351.699 258.967 352.301 255.375L356.089 232.09Z"/>
	<path fill="#F4C477" d="M356.089 232.09L358.872 232.381L353.194 260.64C352.689 263.026 352.595 265.574 351.783 267.885C351.51 268.66 351.015 269.203 350.446 269.775L350.008 269.594C349.93 268.595 350.213 267.38 350.328 266.373C351.345 262.886 351.699 258.967 352.301 255.375L356.089 232.09Z"/>
	<path fill="#FF6800" d="M332.907 232.19L339.902 232.453L333.413 268.785L326.39 268.79L332.907 232.19Z"/>
	<path fill="#1E96BE" d="M288.753 437.979L373.961 438.316C375.517 438.466 379.567 437.933 380.639 438.764L380.416 440.953L284.046 440.986C285.55 439.935 287.072 438.724 288.753 437.979Z"/>
	<defs>
		<linearGradient id="gradient_0" gradientUnits="userSpaceOnUse" x1="238.07121" y1="399.01486" x2="213.77539" y2="400.9971">
			<stop offset="0" stop-color="#FFF1BC"/>
			<stop offset="1" stop-color="white"/>
		</linearGradient>
	</defs>
	<path fill="url(#gradient_0)" d="M229.589 432.615C224.901 428.788 221.09 424.231 218.194 418.912C212.935 409.251 212.531 398.52 215.704 388.172C218.272 379.801 225.366 370.898 233.086 366.731C234.16 366.897 235.591 366.829 236.25 367.752L236.562 368.302C233.372 371.08 230.349 373.859 227.846 377.298C224.116 382.425 221.965 389.014 221.555 395.322C220.895 405.506 223.051 414.445 228.1 423.319C228.998 424.897 229.904 426.888 231.07 428.264C231.046 429.467 231.17 430.797 230.625 431.894L229.589 432.615Z"/>
	<defs>
		<linearGradient id="gradient_1" gradientUnits="userSpaceOnUse" x1="130.43478" y1="387.38733" x2="108.47604" y2="393.16208">
			<stop offset="0" stop-color="#FEF6DD"/>
			<stop offset="1" stop-color="white"/>
		</linearGradient>
	</defs>
	<path fill="url(#gradient_1)" d="M110.634 362.283L110.673 362.911L108.593 366.832C108.851 367.481 108.839 368.153 108.873 368.842L109.347 368.763C109.972 370.185 111.077 371.236 112.119 372.366C113.02 371.85 114.665 371.044 114.803 370.002C114.873 369.481 114.865 368.981 115.127 368.5C115.407 367.987 115.375 368.068 115.377 367.5C115.655 367.082 115.611 367.243 115.696 366.822C115.791 366.349 115.843 366.062 116.064 365.618L116.251 365.251L116.627 364.25C116.813 363.857 117 363.576 117.088 363.141L117.127 362.875C117.676 362.331 117.874 361.906 118.662 361.857C115.66 367.977 114.282 373.782 115.408 380.625L115.468 381.007C117.17 391.439 123.947 400.559 132.419 406.544C134.058 407.701 135.905 408.706 137.77 409.447L134.756 412.401L133.924 412.883L133.26 413.308C132.369 413.764 130.386 413.478 129.316 413.538C127.595 413.042 125.93 412 124.475 410.971C115.099 404.341 107.895 395.776 105.927 384.205C104.718 377.1 106.402 368.177 110.634 362.283Z"/>
	<defs>
		<linearGradient id="gradient_2" gradientUnits="userSpaceOnUse" x1="284.18658" y1="429.5228" x2="229.3438" y2="371.79904">
			<stop offset="0" stop-color="#FF9F22"/>
			<stop offset="1" stop-color="#FFCC75"/>
		</linearGradient>
	</defs>
	<path fill="url(#gradient_2)" d="M233.086 366.731C241.951 360.346 253.55 359.424 264.016 361.132C274.245 362.802 283.962 367.437 290.068 376.061C296.329 384.904 298.842 396.899 296.957 407.544C295.1 418.026 288.771 427.546 280.15 433.677C271.327 439.951 258.806 443.211 248.092 441.2C241.369 439.938 234.637 437.376 229.589 432.615L230.625 431.894C231.17 430.797 231.046 429.467 231.07 428.264C232.354 428.885 233.534 430.178 234.688 431.035C241.779 436.3 251.272 438.956 260.076 437.586C263.214 437.098 266.398 436.435 269.342 435.211C279.39 431.034 286.421 424.672 291.022 414.75C291.348 414.046 291.564 413.328 291.871 412.625C292.668 410.799 293.328 408.422 293.576 406.436C293.907 403.782 294.259 400.957 294.236 398.28C294.169 390.245 291.385 382.452 286.331 376.205C279.848 368.192 270.519 364.588 260.513 363.398C254.089 362.634 247.863 363.668 241.875 366.032C240.168 366.706 238.557 367.749 236.8 368.239L236.562 368.302L236.25 367.752C235.591 366.829 234.16 366.897 233.086 366.731Z"/>
	<path fill="#FFFFF7" d="M137.296 31.0932L138.5 31.0118C139.146 31.5047 139.198 31.9389 139.421 32.7224C140.397 36.1378 141.013 39.7778 141.81 43.25L146.55 63.1603L159.211 118.633L166.29 149.903L169.373 165.769L165.437 165.756C164.875 165.74 164.87 165.736 164.438 165.375L155.402 126.566L141.875 68.2736L136.006 43L134.196 35.3052C133.931 34.1721 133.437 32.8653 133.42 31.7129L137.296 31.0932Z"/>
	<path fill="#F8A945" d="M260.282 183.005L256.237 211.986L252.916 233.035L248.28 266.811L243.063 302.125L238.724 332.667L236.909 345.356C236.388 348.781 235.919 352.282 234.822 355.583L232.198 357.167L232.099 356.902L231.972 356.51C231.79 355.965 231.719 355.662 231.795 355.081L233.598 344.659L238.447 311.75L240.766 292.125L243.192 276.875L248.982 236L250.9 225.147C251.01 224.744 251.841 223.938 252.137 223.584C252.374 221.166 252.502 218.526 252.081 216.126C251.595 213.357 251.151 210.699 249.905 208.137L249.714 207.75C247.644 203.449 243.835 199.936 240.853 196.229C240.889 195.25 240.75 193.486 241.193 192.634L241.456 192.25C242.529 190.557 243.446 189.401 245.142 188.276L253.17 183.281L253.558 182.959L260.282 183.005Z"/>
	<path fill="#FF6800" d="M134.953 178.966L134.625 178.547L123.065 178.235L123.414 172.99L194.517 172.726L245.478 172.734L265.125 172.882C267.893 172.926 270.745 172.796 273.5 173.016C274.167 173.069 274.955 173.292 275.416 173.806C276.32 174.817 276.239 177.698 276.235 179.012L260.822 179.005L260.282 183.005L253.558 182.959C250.986 182.626 248.199 182.781 245.602 182.773L231.157 182.766L185.903 182.762C178.115 182.764 170.047 183.206 162.287 182.671L162.077 182.691L141.883 182.697L141.491 183.257C140.9 182.33 140.137 182.261 139.125 181.963C138.463 180.951 137.815 180.184 136.766 179.561L136.463 179.677C135.886 179.054 135.804 179.102 134.953 178.966Z"/>
	<path fill="#F8A945" d="M136.766 179.561L136.779 179.011C137.778 178.369 141.992 178.891 143.357 178.913L162.098 179.224L162.287 182.671L162.077 182.691L141.883 182.697L141.491 183.257C140.9 182.33 140.137 182.261 139.125 181.963C138.463 180.951 137.815 180.184 136.766 179.561Z"/>
	<defs>
		<linearGradient id="gradient_3" gradientUnits="userSpaceOnUse" x1="338.52661" y1="258.5759" x2="333.9054" y2="289.37601">
			<stop offset="0" stop-color="#FFF3A6"/>
			<stop offset="1" stop-color="#FEF8FC"/>
		</linearGradient>
	</defs>
	<path fill="url(#gradient_3)" d="M294.518 269.484L331.911 269.479L343.373 269.488C345.565 269.491 347.833 269.363 350.008 269.594L350.446 269.775C351.964 269.777 353.422 269.784 354.921 269.508L418.839 269.994C418.648 271.35 418.537 272.773 418.115 274.079L389.998 273.707C389.674 274.267 389.694 274.602 389.66 275.226L388.027 279.864L386.443 280.043C385.038 279.87 383.423 280.023 381.999 280.02L372.758 280.002L351.312 279.772C343.931 279.852 336.408 280.315 329.045 279.709L328.811 279.686L297.66 280L292.025 279.85L291.835 279.744L289.561 279.78L277.763 279.935C274.456 279.94 270.993 280.113 267.716 279.628C266.094 279.366 264.214 279.513 262.559 279.487L262.657 273.745L254.886 273.412L255.021 269.742L289.037 269.595C290.87 269.84 292.678 269.453 294.518 269.484Z"/>
	<path fill="#FF6800" d="M267.716 279.628C267.504 277.716 267.187 275.878 266.594 274.043L266.492 273.737L289.755 273.805C289.732 275.72 289.914 277.907 289.561 279.78L277.763 279.935C274.456 279.94 270.993 280.113 267.716 279.628Z"/>
	<path fill="#FF6800" d="M291.941 273.702L291.972 273.661C293.284 272.989 294.903 273.212 296.308 273.458L306.921 273.557C309.016 273.561 311.259 273.406 313.329 273.713L327.715 273.821L329.127 273.875C329.536 274.473 329.471 275.342 329.529 276.066C329.46 277.281 329.431 278.545 329.045 279.709L328.811 279.686L297.66 280L292.025 279.85L291.835 279.744L289.561 279.78C289.914 277.907 289.732 275.72 289.755 273.805C290.502 273.897 291.2 273.793 291.941 273.702Z"/>
	<path fill="#FFFFF7" d="M327.715 273.821L329.127 273.875C329.536 274.473 329.471 275.342 329.529 276.066C329.46 277.281 329.431 278.545 329.045 279.709L328.811 279.686L326.625 279.385C326.314 277.505 326.863 275.497 327.715 273.821Z"/>
	<path fill="#F8932A" d="M296.308 273.458L306.921 273.557C309.016 273.561 311.259 273.406 313.329 273.713L313.002 273.736L297.692 273.788C297.658 275.66 297.218 278.224 297.66 280L292.025 279.85L293.125 279.639C293.496 278.552 294.619 278.278 294.902 277.044C295.18 275.837 295.008 274.651 294.375 273.627L296.308 273.458Z"/>
	<path fill="#F8A945" d="M291.941 273.702L291.972 273.661C293.284 272.989 294.903 273.212 296.308 273.458L294.375 273.627C295.008 274.651 295.18 275.837 294.902 277.044C294.619 278.278 293.496 278.552 293.125 279.639L292.025 279.85L291.835 279.744L289.561 279.78C289.914 277.907 289.732 275.72 289.755 273.805C290.502 273.897 291.2 273.793 291.941 273.702Z"/>
	<path fill="#FFFFF7" d="M291.941 273.702C291.977 275.31 292.438 278.316 291.835 279.744L289.561 279.78C289.914 277.907 289.732 275.72 289.755 273.805C290.502 273.897 291.2 273.793 291.941 273.702Z"/>
	<path fill="#FF6800" d="M329.529 276.066C329.652 275.432 329.667 274.77 329.714 274.125C329.851 273.991 329.943 273.783 330.125 273.722C331.11 273.391 333.612 273.723 334.727 273.723L351.37 273.77L350.056 279.51L354.122 279.35C354.419 277.542 354.433 275.824 354.397 273.995L379.045 273.766L384.724 273.739C385.681 273.741 386.735 273.602 387.615 274.03C388.281 273.833 388.607 273.786 389.283 273.953L389.66 275.226L388.027 279.864L386.443 280.043C385.038 279.87 383.423 280.023 381.999 280.02L372.758 280.002L351.312 279.772C343.931 279.852 336.408 280.315 329.045 279.709C329.431 278.545 329.46 277.281 329.529 276.066Z"/>
	<path fill="#FFFFF7" d="M387.615 274.03C388.281 273.833 388.607 273.786 389.283 273.953L389.66 275.226L388.027 279.864L386.443 280.043C386.803 277.992 387.05 276.041 387.615 274.03Z"/>
	<path fill="#F4C477" d="M134.953 178.966C135.804 179.102 135.886 179.054 136.463 179.677L136.766 179.561C137.815 180.184 138.463 180.951 139.125 181.963C140.137 182.261 140.9 182.33 141.491 183.257C142.465 186.268 142.89 189.583 143.393 192.711L145.525 206L153.463 255.234L164.746 321.291L171.105 360.817L174.831 381.09L180.612 413.129C179.327 413.231 177.938 413.455 176.655 413.341L173.482 413.156C172.632 410.305 172.445 407.233 171.951 404.302L168.682 384.875L159.067 327.726L141.011 218.75L137.249 194.125C136.504 189.39 135.445 184.717 135.086 179.936L134.953 178.966Z"/>
	<path fill="#F8A945" d="M134.953 178.966C135.804 179.102 135.886 179.054 136.463 179.677L136.744 180.042C136.998 180.366 137.233 180.566 137.547 180.823C138.733 181.795 138.706 184.508 138.853 185.951C138.523 185.929 138.202 185.722 137.903 185.584C137.626 184.758 137.433 183.775 137.061 183C136.717 182.283 136.345 182.012 136.17 181.141C136.071 180.648 135.462 180.277 135.086 179.936L134.953 178.966Z"/>
	<path fill="#F8932A" d="M136.766 179.561C137.815 180.184 138.463 180.951 139.125 181.963C140.137 182.261 140.9 182.33 141.491 183.257C142.465 186.268 142.89 189.583 143.393 192.711L145.525 206L153.463 255.234L164.746 321.291L171.105 360.817L174.831 381.09L180.612 413.129C179.327 413.231 177.938 413.455 176.655 413.341C176.566 408.025 175.186 402.731 174.279 397.5L169.141 368.218L160.753 317.75L154.078 279.763L143.488 213.098L140.098 192.407C139.692 190.246 139.482 188.067 138.853 185.951C138.706 184.508 138.733 181.795 137.547 180.823C137.233 180.566 136.998 180.366 136.744 180.042L136.463 179.677L136.766 179.561Z"/>
	<path fill="#F8932A" d="M142.579 348.597C146.51 347.808 150.415 348.771 154.226 349.752C154.773 349.893 154.559 349.977 154.882 349.552C156.13 353.12 156.769 356.042 156.732 359.87L164.052 403.48C161.867 405.569 160 408.258 157.375 409.782C156.826 410.101 156.332 410.342 155.75 410.593C153.955 411.367 151.912 412.294 149.999 412.708L147.251 413.372C146.196 413.634 145.075 413.433 144.061 413.716C142.866 414.049 140.186 413.931 139 413.606C137.658 413.238 135.936 413.147 134.756 412.401L137.77 409.447C135.905 408.706 134.058 407.701 132.419 406.544C123.947 400.559 117.17 391.439 115.468 381.007L115.408 380.625C114.282 373.782 115.66 367.977 118.662 361.857C119.748 360.523 120.633 359.06 121.804 357.787C126.608 352.559 132.767 350.095 139.563 348.682C140.603 348.386 141.524 348.499 142.579 348.597Z"/>
	<path fill="#733E27" d="M142.579 348.597C146.51 347.808 150.415 348.771 154.226 349.752C154.773 349.893 154.559 349.977 154.882 349.552C156.13 353.12 156.769 356.042 156.732 359.87L156.343 358.157C153.908 357.591 150.193 356.864 147.741 357.41L147.375 357.498C145.945 357.83 144.654 358.264 143.295 358.819C142.221 358.254 141.072 357.491 140.281 356.563C139.303 355.416 139.071 354.105 139.267 352.622C139.461 351.155 140.271 350.411 141.387 349.532L142.579 348.597Z"/>
	<path fill="#F4C477" d="M251.796 157.109L253.643 165.523L175.843 165.515L167.456 126.059L179.518 132.307L186.883 126.928C194.955 121.991 204.052 120.232 213.375 122C216.09 122.514 218.679 123.469 221.353 124.133C233.925 128.818 244.319 139.656 249.842 151.8L251.796 157.109Z"/>
	<path fill="#F8932A" d="M221.353 124.133C233.925 128.818 244.319 139.656 249.842 151.8L251.796 157.109C250.375 157.268 249.403 156.922 248.099 156.378C243.316 154.382 219.856 137.585 218.256 132.912C217.489 130.673 220.386 126.28 221.353 124.133Z"/>
	<path fill="#FFFFF7" d="M141.491 183.257L141.883 182.697L162.077 182.691L170.095 264.44L171.855 274.62C172.152 276.358 172.341 278.166 172.812 279.863C172.881 284.449 173.689 289.199 174.275 293.75L176.263 310L177.374 319.25C177.631 321.671 177.765 324.413 178.536 326.719C178.587 329.822 179.561 332.686 180.896 335.454C181.037 337.766 181.63 339.977 181.947 342.264L183.34 354.173L187.8 392.5L189.754 405.726C190.093 408.093 190.598 410.591 190.502 412.986L180.612 413.129L174.831 381.09L171.105 360.817L164.746 321.291L153.463 255.234L145.525 206L143.393 192.711C142.89 189.583 142.465 186.268 141.491 183.257Z"/>
	<path fill="#FF6800" d="M306.133 394.95C307.745 395.447 309.317 396.105 310.95 396.522C315.165 397.601 319.613 397.951 323.956 397.909C328.039 397.869 332.325 397.757 336.344 397.026C340.027 396.355 343.739 395.055 347.25 393.766C354.269 391.187 361.463 387.96 367.642 383.72C371.291 381.216 374.634 378.263 378.009 375.408C381.335 372.596 384.675 369.807 387.721 366.683C389.625 364.73 391.27 362.623 392.859 360.41C393.936 358.909 394.913 357.267 396.228 355.96L396.405 355.79C396.639 358.899 395.341 362.702 394.752 365.757L391.903 380.83L385.806 414.25C384.32 422.428 383.01 430.262 380.592 438.252L373.961 438.316L288.753 437.979C290.736 435.134 293.614 432.671 295.771 429.899C301.002 423.177 304.468 415.51 305.604 407.029C306.15 402.956 306.086 399.039 306.133 394.95Z"/>
	<path fill="#FF6800" d="M236.562 368.302L236.8 368.239C238.557 367.749 240.168 366.706 241.875 366.032C247.863 363.668 254.089 362.634 260.513 363.398C270.519 364.588 279.848 368.192 286.331 376.205C291.385 382.452 294.169 390.245 294.236 398.28C294.259 400.957 293.907 403.782 293.576 406.436C293.328 408.422 292.668 410.799 291.871 412.625C291.564 413.328 291.348 414.046 291.022 414.75C286.421 424.672 279.39 431.034 269.342 435.211C266.398 436.435 263.214 437.098 260.076 437.586C251.272 438.956 241.779 436.3 234.688 431.035C233.534 430.178 232.354 428.885 231.07 428.264C229.904 426.888 228.998 424.897 228.1 423.319C223.051 414.445 220.895 405.506 221.555 395.322C221.965 389.014 224.116 382.425 227.846 377.298C230.349 373.859 233.372 371.08 236.562 368.302Z"/>
	<path fill="#F4C477" d="M274.711 286.604L352.403 286.614C348.303 288.715 344.623 289.385 342.284 293.918C340.687 297.013 340.319 300.344 341.471 303.654C342.479 306.549 344.989 308.936 347.768 310.183C350.991 311.628 354.727 311.541 357.982 310.169L358.25 310.052C359.333 309.587 360.361 308.963 361.241 308.173C363.858 305.823 365.484 303.008 365.646 299.445C365.797 296.116 364.157 292.5 361.348 290.65C359.685 289.554 357.946 288.878 356.554 287.375L356.742 286.875C358.881 286.265 361.262 286.496 363.475 286.494L373.988 286.488L410.155 286.474C408.708 289.81 407.948 294.043 407.259 297.625L403.887 316.811L402.682 323.519L248.376 323.486L251.859 301.703L257.594 306.442C260.477 308.392 263.622 309.371 267 310.071C268.191 310.318 269.194 310.614 270.42 310.357C272.255 309.973 273.97 309.539 275.64 308.659C278.301 307.256 280.336 304.79 281.165 301.889C281.892 299.343 281.767 295.83 280.425 293.516C278.222 289.716 274.52 288.213 270.485 287.077L274.711 286.604Z"/>
	<path fill="#292A31" d="M302.162 292.789C303.235 292.751 304.41 292.631 305.461 292.885L305.75 292.961C308.377 293.641 310.49 294.777 312.101 297.036C313.663 299.226 314.137 302.569 313.613 305.194L313.548 305.5C313.258 307.055 312.806 308.436 311.973 309.786C310.258 312.563 307.36 313.972 304.285 314.714C301.932 314.798 299.86 314.701 297.748 313.493C295.39 312.143 293.479 309.668 292.825 307.027C292.027 303.805 292.359 300.637 294.179 297.822C296.217 294.671 298.631 293.565 302.162 292.789Z"/>
	<path fill="#0F7273" d="M107.58 422.904C109.078 421.863 111.249 421.808 112.976 421.212C115.765 420.251 118.11 418.525 120.412 416.73C128.793 423.11 138.893 425.855 149.375 424.446C155.677 423.599 160.911 421.636 166.297 418.284C168.011 423.552 171.074 430.184 176.3 432.793C177.48 433.383 178.737 433.869 180.041 434.096C184.047 434.794 188.405 434.502 192.471 434.502L210.827 434.453C213.16 434.42 215.926 433.884 218.193 434.352C219.671 434.657 221.245 436.082 222.413 437.001C224.215 438.417 225.989 439.834 227.923 441.07C240.833 449.327 259.428 451.444 273.875 446.207L278.757 444.206C279.418 445.779 280.155 447.794 281.826 448.554C282.084 448.671 282.351 448.716 282.625 448.774L282.918 448.84C284.331 449.126 285.936 448.991 287.375 448.979L297.006 448.762L340.972 448.751L349.625 448.707C351.621 448.645 353.583 448.424 355.587 448.477C356.259 448.495 356.617 448.579 357.198 448.918L356.936 449.172C353.866 451.848 348.91 453.34 345.183 454.926C336.249 458.727 326.915 461.306 317.517 463.661C293.166 469.761 268.317 473.195 243.172 471.79C226.361 470.851 209.445 468.6 193 465.002C186.677 463.619 180.439 462.167 174.25 460.247C168.228 458.379 162.323 456.03 156.5 453.625C151.082 451.388 145.676 449.229 140.519 446.415C134.129 442.928 128.196 438.675 122.314 434.414C117.411 430.862 111.613 427.426 107.58 422.904Z"/>
	<path fill="#F4C477" d="M246.643 337.646C246.513 335.999 247.054 334.311 247.274 332.679C247.359 332.047 247.335 331.007 247.694 330.487L401.381 330.237L396.405 355.79L396.228 355.96C394.913 357.267 393.936 358.909 392.859 360.41C391.27 362.623 389.625 364.73 387.721 366.683C384.675 369.807 381.335 372.596 378.009 375.408C374.634 378.263 371.291 381.216 367.642 383.72C361.463 387.96 354.269 391.187 347.25 393.766C343.739 395.055 340.027 396.355 336.344 397.026C332.325 397.757 328.039 397.869 323.956 397.909C319.613 397.951 315.165 397.601 310.95 396.522C309.317 396.105 307.745 395.447 306.133 394.95C304.87 387.428 302.84 380.541 298.74 374.013C292.079 363.406 281.472 356.906 269.519 353.772C267.344 353.202 264.951 353.035 262.718 352.529C262.708 351.853 262.607 351.054 262.403 350.411C261.304 346.954 257.723 344.587 254.874 342.679L246.643 337.646Z"/>
	<path fill="#F4C477" d="M162.077 182.691L162.287 182.671C170.047 183.206 178.115 182.764 185.903 182.762L231.157 182.766L245.602 182.773C248.199 182.781 250.986 182.626 253.558 182.959L253.17 183.281L245.142 188.276C243.446 189.401 242.529 190.557 241.456 192.25L241.193 192.634C240.75 193.486 240.889 195.25 240.853 196.229C243.835 199.936 247.644 203.449 249.714 207.75L249.905 208.137C251.151 210.699 251.595 213.357 252.081 216.126C252.502 218.526 252.374 221.166 252.137 223.584C251.841 223.938 251.01 224.744 250.9 225.147L248.982 236L243.192 276.875L240.766 292.125L238.447 311.75L233.598 344.659L231.795 355.081C231.719 355.662 231.79 355.965 231.972 356.51L232.099 356.902L232.198 357.167C225.752 361.956 219.779 366.521 215.056 373.125C213.074 375.897 211.45 378.879 209.617 381.744C207.02 388.771 205.965 395.775 206.229 403.254C206.343 406.463 206.685 409.918 207.646 412.996L190.502 412.986C190.598 410.591 190.093 408.093 189.754 405.726L187.8 392.5L183.34 354.173L181.947 342.264C181.63 339.977 181.037 337.766 180.896 335.454C179.561 332.686 178.587 329.822 178.536 326.719C177.765 324.413 177.631 321.671 177.374 319.25L176.263 310L174.275 293.75C173.689 289.199 172.881 284.449 172.812 279.863C172.341 278.166 172.152 276.358 171.855 274.62L170.095 264.44L162.077 182.691Z"/>
	<path fill="#292A31" d="M170.095 264.44C170.604 263.884 171.064 263.782 171.75 263.551C175.406 262.323 179.465 261.533 183.125 263.267C185.606 264.442 187.417 266.495 188.239 269.125C189.118 271.936 188.535 275.465 187.125 277.984C185.798 280.354 183.833 282.089 181.171 282.769C179.236 283.263 177.15 283.047 175.46 281.957C174.588 281.394 173.681 280.283 172.812 279.863C172.341 278.166 172.152 276.358 171.855 274.62L170.095 264.44Z"/>
	<path fill="#292A31" d="M178.536 326.719C178.796 325.656 179.129 324.733 179.696 323.79C180.882 321.817 183.352 320.127 185.602 319.641C187.211 319.293 189.256 319.43 190.875 319.691L191.306 319.757C193.799 320.169 195.817 321.456 197.279 323.5C197.569 323.904 197.779 324.312 198.007 324.75L198.141 324.994C199.182 326.973 199.094 329.53 198.595 331.625L198.53 331.929C197.932 334.596 195.909 337.055 193.615 338.454C191.581 339.695 188.932 340.128 186.577 339.631C184.34 339.159 182.634 336.779 180.896 335.454C179.561 332.686 178.587 329.822 178.536 326.719Z"/>
	<path fill="#FF6800" d="M209.617 381.744C209.343 381.368 209.115 381.096 209.03 380.625C208.806 379.387 208.98 377.813 208.987 376.547L208.872 369.933L208.087 332.184L207.173 278.511C206.915 264.467 206.343 250.348 207.591 236.336C208.196 229.541 209.583 222.296 212.992 216.332C215.364 212.18 218.647 208.758 222.631 206.124C223.913 205.277 225.352 204.371 226.851 203.988L227.192 203.907C230.293 203.135 232.8 203.496 235.724 204.681C238.989 206.004 241.327 208.481 242.605 211.755C243.056 212.911 243.04 213.495 242.544 214.592C242.928 218.089 242.495 221.229 240.256 224.068C237.956 226.985 234.967 228.655 231.331 229.375L231.406 229.774C232.156 230.668 233.598 231.027 234.725 231.174C239.949 231.854 246.884 228.196 250.9 225.147L248.982 236L243.192 276.875L240.766 292.125L238.447 311.75L233.598 344.659L231.795 355.081C231.719 355.662 231.79 355.965 231.972 356.51L232.099 356.902L232.198 357.167C225.752 361.956 219.779 366.521 215.056 373.125C213.074 375.897 211.45 378.879 209.617 381.744Z"/>
	<path fill="#292A31" d="M227.37 265.301C230.639 265.181 233.197 265.409 236 267.231C237.681 268.324 239.08 270.028 239.509 272.024L239.58 272.375C240.133 274.955 240.219 277.694 238.998 280.125C237.353 283.399 234.601 285.759 231.139 286.912L230.9 286.956L230.502 287.017C228.199 287.417 226.036 286.765 224.05 285.58C221.364 283.977 219.338 281.448 218.639 278.375C217.97 275.434 218.608 272.144 220.275 269.629C222.093 266.885 224.291 265.923 227.37 265.301Z"/>
	<path fill="#292A31" d="M231.331 229.375L229.988 229.1C226.238 228.302 222.919 226.35 220.832 223.082C219.24 220.587 218.338 217.565 219.077 214.625C219.781 211.824 221.793 209.73 224.272 208.379C227.273 206.745 232.068 206.763 235.279 207.74C238.908 208.845 240.831 211.376 242.544 214.592C242.928 218.089 242.495 221.229 240.256 224.068C237.956 226.985 234.967 228.655 231.331 229.375Z"/>
	<path fill="#0F7273" d="M138.459 81.9669C139.866 85.9062 140.571 90.4337 141.496 94.5321L146.441 116.129L148.905 126.682C149.351 128.604 149.997 130.635 150.075 132.606C148.272 135.621 146.035 138.293 144.067 141.192C139.078 148.542 135.315 156.953 134.092 165.795L115.245 165.494L115.271 185.477L128.434 186.032L153.268 339.735C150.334 339.32 147.358 338.856 144.389 338.806C133.266 338.618 122.546 341.953 113.651 348.603C105.418 354.759 100.275 363.652 98.9056 373.8C98.6273 375.861 98.6331 378.12 98.7848 380.195C98.8755 381.438 99.4513 383.375 99.125 384.547L98.625 384.377C98.2866 384.887 98.3775 385.033 98.3775 385.625L98.625 385.873C99.1016 385.555 99.2528 385.431 99.4171 384.875L99.5949 386.125C98.9182 386.718 95.4422 386.55 94.3753 386.525C94.034 386.517 94.1218 386.502 93.7287 386.335C93.1775 385.063 91.6617 383.744 90.7503 382.679L85.4722 376.19C79.6722 368.793 74.194 361.258 69.9376 352.843L60.8397 333.677C52.6569 314.052 46.9133 293.233 45.4068 271.966C44.65 261.282 45.0836 250.163 45.9536 239.51C47.3057 222.955 50.2281 207.015 55.4371 191.216C68.1488 152.664 92.9078 116.21 125.327 91.6002C129.514 88.4221 133.768 84.3334 138.459 81.9669Z"/>
	<path fill="#0F7273" d="M155.147 73.3379C158.061 71.4553 161.203 70.0358 164.28 68.4574C172.242 64.3734 180.686 60.6544 189.25 58.025C196.895 55.6777 204.789 53.9662 212.652 52.555C233.335 48.8432 254.642 48.0044 275.5 50.7645C279.309 51.2686 283.188 51.6366 286.946 52.4502L302.56 55.9034C318.08 60.029 333.166 66.3973 347.123 74.2956C353.183 77.7247 359.044 81.3089 364.619 85.4987C373.376 92.0792 381.355 99.5799 389.183 107.22C400.896 118.652 411.798 130.766 420.597 144.62C424.38 150.577 427.588 156.894 430.88 163.127C436.378 173.53 441.718 184.292 445.728 195.375C449.463 205.697 452.066 216.584 454 227.375C456.153 239.386 457.561 251.917 457.572 264.134C457.582 275.087 456.454 286.086 454.784 296.901L452.286 311.111C450.469 319.113 448.359 326.923 445.49 334.625L441.827 343.492C433.31 364.005 422.044 382.449 405.592 397.575C402.475 400.442 399.013 402.516 395.743 405.11C395.427 404.166 395.511 403.411 395.652 402.452L398.043 389.331L404.28 356.974L417.585 286.223C419.257 286.281 422.855 286.36 424.125 285.138C427.176 282.204 428.173 268.538 428.328 264.31C423.155 263 417.406 263.496 412.095 263.494L392.803 263.493L375.905 263.496C371.967 263.496 367.993 263.379 364.07 263.772L370.822 227.144C366.053 225.893 361.703 225.511 356.792 225.437L356.089 232.09L352.301 255.375C351.699 258.967 351.345 262.886 350.328 266.373L340.749 266.25L346.935 226.981C342.237 225.967 337.941 225.729 333.172 225.736C331.346 225.738 329.557 225.526 327.875 226.36C327.405 227.057 326.976 227.743 326.724 228.551C325.446 232.639 324.966 237.131 324.189 241.345L319.934 264.275L302.899 264.26L305.784 243.288C306.637 237.476 307.693 231.759 307.791 225.869C305.313 225.399 302.652 225.419 300.127 225.339C296.139 225.213 292.092 225.142 288.109 225.425L282.421 263.982C279.373 263.501 276.024 263.747 272.931 263.749L256.172 263.771L267.384 185.998C273.192 186.004 279.025 186.26 284.782 185.395L284.549 166.239L261.623 166.032C260.635 159.637 258.67 152.727 255.707 146.97C254.453 144.533 253.036 142.198 251.421 139.984L246.246 133.093C245.911 132.624 245.122 131.702 245.045 131.15C244.946 130.432 245.19 129.351 245.266 128.599L245.775 123.022L247.489 101.325C247.855 96.9971 249.208 91.9437 248.516 87.625C248.028 86.8964 247.627 86.8347 246.825 86.5675C244.051 85.6435 233.684 85.0371 231.036 86.375C230.339 87.3228 230.046 88.1965 229.837 89.3533C229.237 92.6869 229.282 96.2557 228.997 99.6406L227.155 118.858C220.35 116.119 214.344 114.421 207 113.665C196.806 112.616 185.641 117.016 177.702 123.143C175.496 122.042 173.33 120.923 171.026 120.031L165.673 118.237L158.924 88.8502L156.564 79.7428C155.993 77.6311 155.338 75.5252 155.147 73.3379Z"/>
</svg>
