<?xml version="1.0" encoding="utf-8" ?>
<svg xmlns="http://www.w3.org/2000/svg" xmlns:xlink="http://www.w3.org/1999/xlink" width="512" height="512">
	<path fill="#EE8D0B" d="M411.213 14.8399C413.266 14.735 415.311 14.7467 417.345 15.0891C424.317 16.2628 430.854 20.2183 434.869 26.059C438.725 31.6678 439.672 38.1289 438.5 44.75C437.672 49.4308 435.281 53.7214 432.768 57.6935C427.016 66.7847 419.664 75.1006 412.952 83.4937L388.287 114.6C385.164 118.409 381.235 121.747 378.559 125.87C379.825 125.352 381.143 124.088 382.182 123.193L387.3 118.83L401.75 106.744L433.412 80.4121L452.063 64.9959C458.321 60.1609 465.303 57.3771 473.296 58.4734C479.826 59.3689 486.009 63.3835 489.915 68.6187C493.982 74.0689 496.13 80.9051 495.083 87.7192C494.269 93.0156 491.923 97.7987 488.315 101.78C484.159 106.366 478.917 109.863 474.048 113.639L456.364 127.441L411.389 162.625L391.821 177.729C398.74 180.691 403.964 185.547 408.831 191.166C417.028 200.629 423.21 211.629 429.228 222.546L431.083 226.109C431.128 226.199 431.47 226.976 431.536 227.016C431.973 227.285 433.31 227.388 433.866 227.495L443.56 229.039C454.089 230.588 464.486 232.798 474.602 236.126C480.413 238.038 486.912 240.413 491.403 244.74C494.589 247.809 495.883 250.575 495.947 254.967C496.007 259.14 495.645 263.47 495.308 267.63C494.768 274.316 494.041 280.833 492.878 287.443C483.103 342.987 450.623 392.929 405.802 426.758C396.979 433.418 387.823 439.12 378.225 444.585L369.892 449.177C369.256 449.516 367.436 450.255 367.011 450.763C366.16 451.779 367.246 475.323 366.123 479.605C365.268 482.866 363.337 486.308 360.944 488.692C358.223 491.402 354.568 492.993 350.84 493.72C346.918 494.486 342.808 494.459 338.823 494.55L318.513 494.637L261.125 494.611L195.905 494.625L175.985 494.626C171.949 494.625 167.76 494.811 163.742 494.416C160.432 494.09 157.483 493.446 154.504 491.896C142.98 485.898 145.09 469.07 145.05 458.297C145.041 455.97 145.334 453.122 144.562 450.903C143.987 449.252 139.432 447.842 137.842 447.106C126.727 441.967 116.329 434.708 106.615 427.312C81.1442 407.917 59.2118 383.313 43.625 355.29C37.3012 343.92 32.2415 332.086 27.7591 319.891C26.564 316.639 25.6454 313.225 24.6521 309.906C19.8672 293.919 17.09 277.262 16.4354 260.586C16.2913 256.915 15.5692 252.456 17.2444 249.055C19.5277 244.418 24.6554 241.113 29.0074 238.66C33.0887 236.36 37.1187 234.415 41.5386 232.846C42.7998 230.664 42.9685 226.783 43.4309 224.312C44.5717 218.217 45.551 212 47.3452 206.055C49.7731 198.009 53.3132 190.188 57.3185 182.815C66.3589 166.175 78.4533 151.775 93.7379 140.538C97.5557 137.731 101.659 134.85 105.861 132.63C113.935 128.365 122.502 124.842 131.369 122.625C149.459 118.103 169.355 119.404 187.055 124.983C199.666 128.958 211.209 135.037 222.099 142.479C235.011 151.301 246.354 161.548 256.144 173.758C260.261 178.892 264.443 184.619 267.496 190.465L392.959 26.6412C397.772 20.3872 403.125 15.8906 411.213 14.8399ZM32.2109 268.511L33.1634 276.882C34.1193 283.731 35.3361 290.544 36.944 297.271C44.8077 330.17 61.7381 361.861 84.7758 386.625C95.2862 397.923 106.956 407.746 119.311 416.948C124.608 420.893 130.133 424.301 135.75 427.759C143.947 432.807 152.105 437.514 160.728 441.79C163.652 443.24 166.887 445.151 170.05 445.899C174.569 446.967 179.974 446.424 184.603 446.406L205.475 446.337L287.094 446.232L321.364 446.204C327.391 446.221 333.479 446.918 339.468 446.031C347.24 444.88 354.409 439.892 361.191 436.176C369.054 431.868 377.074 427.786 384.619 422.926C393.402 417.269 401.602 410.638 409.43 403.73C419.72 394.65 429.62 384.765 437.794 373.699C441.022 369.576 443.899 365.126 446.773 360.75C459.925 340.728 470.239 318.728 475.615 295.305L478.25 281.875L479.664 269.67L455.875 278.002C442.586 281.973 428.937 284.86 415.291 287.258L398.457 290.263L361.29 294.817L287.417 300.971L259.588 301.103L225.39 300.966L179.123 297.294L132.813 292.574L124.544 291.277C106.293 288.703 88.0821 285.726 70.1621 281.361C58.8531 278.606 47.5882 275.467 36.9414 270.667L32.2109 268.511ZM149.642 135.111C125.92 136.756 102.392 149.297 86.8792 167.216C76.7608 178.903 68.5612 191.871 63.2795 206.452C60.8648 213.118 58.6942 220.11 57.6813 227.142C57.1304 230.968 57.1622 235.091 56.2494 238.829C55.8886 240.306 55.2787 241.617 54.3034 242.792C51.8653 245.729 47.8433 247.28 44.3705 248.61C41.0114 249.896 37.6325 251.161 34.38 252.701C38.0209 254.547 41.6536 256.419 45.4584 257.915C59.5181 263.444 74.6867 266.344 89.4375 269.375C96.31 270.787 103.185 272.61 110.125 273.655L145.092 277.768L175.727 281.311L197.82 283.883L215.006 284.869L232.381 285.836L257.302 285.93L285.297 285.749C307.829 284.808 330.119 282.016 352.487 279.343L405.805 273.018L457.148 261.606C464.026 259.586 470.372 256.482 476.793 253.367L465.738 249.393C458.62 247.23 451.331 245.677 444.031 244.283L436.923 242.958C434.381 242.585 431.726 242.377 429.253 241.674C426.989 241.031 424.802 239.986 422.908 238.593C415.667 233.269 412.585 225.703 408.452 218.089C402.486 207.097 394.062 193.902 381.25 190.461L380.788 190.333C379.536 189.998 377.859 189.658 376.655 190.303C374.406 191.507 372.194 193.293 370.195 194.875L359.609 203.607L322.646 233.193L314.442 239.799C311.826 241.907 309.002 244.298 305.878 245.604C301.886 247.274 296.342 246.646 292.029 246.727C288.401 246.796 284.44 247.367 280.911 246.396C277.77 245.533 275.738 243.154 274.246 240.373C272.513 237.142 271.219 233.566 269.844 230.167C267.276 223.822 264.728 217.346 261.574 211.267C248.132 185.366 228.031 162.331 202.25 148.249C196.384 145.045 190.395 142.184 184 140.193C175.464 137.535 167.325 135.928 158.383 135.359C155.496 135.175 152.531 134.95 149.642 135.111ZM468.517 74.0387C465.176 74.8916 462.523 76.2377 459.806 78.3783C456.116 81.2858 452.836 84.8625 449.338 88.0133L432.832 102.11L354.626 168.407L313.148 203.542L299.062 216.307L289.958 224.058C288.711 225.186 287.227 226.404 286.382 227.875C285.927 228.668 285.939 229.251 285.985 230.125C287.924 231.943 294.048 231.348 296.745 231.25L297.307 231.208C299.549 230.783 301.235 230.043 303.042 228.674L311.229 222.041L332.582 204.831L388.591 160.34L445.483 115.836L464.616 100.851C469.285 97.2039 474.364 94.0927 478.042 89.3725C479.365 87.675 479.857 85.0276 479.53 82.9159C479.068 79.9314 477.335 77.2304 474.911 75.4505C473.056 74.0882 470.75 73.7691 468.517 74.0387ZM413.241 30.8047C410.344 31.4504 408.484 32.2788 406.458 34.4791C404.273 36.8521 402.43 39.666 400.474 42.2355L389.669 56.4217L359.265 96.25L308.42 162.781L288.917 188.254L276.165 205.247L279.166 212.709L282.996 208.925C294.183 198.651 305.3 188.544 315.55 177.296L325.089 166.295L344.157 144.444L356.151 129.338L386.751 90.8309L408.373 63.7205C412.006 59.1325 416.009 54.6224 419.2 49.7111C420.453 47.7823 421.389 45.4553 422.022 43.25L422.151 42.813C422.844 40.3774 423.181 36.9334 421.875 34.6601C420.649 32.5258 419.062 31.4787 416.722 30.9247C415.538 30.6443 414.439 30.5808 413.241 30.8047ZM350.824 459.375C347.8 460.592 343.764 461.08 340.5 461.247L311.198 461.338L255.393 461.338L199.046 461.338L168.95 461.208C166.075 461.06 163.085 460.509 160.418 459.412L160.505 468.408C160.512 471.612 160.463 475.002 161.245 478.125C161.689 478.75 161.701 478.904 162.5 479.011C164.066 479.219 166.053 478.965 167.658 478.941L178.492 478.87L220.656 478.851L313.845 478.858L337.025 478.897C340.399 478.902 344.594 479.359 347.875 478.704C348.613 478.556 349.28 478.235 349.835 477.721C350.4 477.197 350.794 476.575 351.016 475.835C351.425 474.469 351.354 472.745 351.398 471.322C351.52 467.446 351.292 463.46 351.625 459.607L351.249 459.318L350.824 459.375Z"/>
	<path fill="#EE8D0B" d="M158.883 195.353C164.921 195.203 171.794 196.291 177.371 198.647C190.586 204.23 201.14 214.426 208.601 226.545C210.278 229.269 211.997 232.075 213.164 235.065C214.174 237.653 214.859 240.834 213.679 243.488L213.558 243.75C212.963 245.083 211.758 246.452 210.479 247.184C208.806 248.14 206.745 248.19 204.914 247.692C200.258 246.427 198.139 239.81 195.868 236.042C194.069 233.056 192.113 230.1 189.907 227.4C184.409 220.667 176.782 215.165 168.565 212.377C162.296 210.849 155.95 210.774 149.777 212.854C140.469 215.989 133.289 223.838 129.808 232.875C128.732 235.669 128.388 238.86 126.959 241.5C125.95 243.365 124.387 244.963 122.289 245.542L121.965 245.625C120.43 246.035 118.818 246.017 117.345 245.351C115.389 244.466 113.514 243.227 112.764 241.126L112.659 240.815C112.444 240.199 112.316 239.64 112.276 238.987C112.062 235.499 113.2 232.301 114.494 229.125C117.502 221.746 121.948 214.738 127.225 208.77C128.786 207.004 130.679 205.526 132.555 204.111C140.532 198.094 149.051 195.999 158.883 195.353Z"/>
	<path fill="#EE8D0B" d="M151.767 156.854C153.717 156.534 156.023 156.698 158.012 156.705C160.773 156.715 163.652 156.598 166.393 156.906L169.125 157.252C196.588 161.897 218.403 179.882 233.998 202.216C239.089 209.508 243.065 217.265 246.728 225.354C248.822 229.979 252.279 236.491 251.16 241.674C250.848 243.123 249.792 244.597 248.537 245.379C247.041 246.313 244.828 246.571 243.137 246.098L242.875 246.02C240.084 245.263 238.176 243.461 236.672 241.06C234.896 238.227 233.822 234.941 232.512 231.875L227.873 222.239C220.265 207.87 209.279 193.805 195.661 184.668C188.948 180.163 181.624 176.811 173.984 174.227C161.098 170.579 146.22 171.696 134.098 177.509C115.236 186.553 101.413 204.575 94.4884 224C93.4361 226.952 92.6202 229.971 91.875 233.012C91.3116 235.311 90.9372 237.697 90.1272 239.926L90.0072 240.25C89.689 241.122 89.3156 241.879 88.7809 242.645C87.6296 244.294 85.6377 245.351 83.6647 245.657C81.9679 245.92 79.5865 245.057 78.246 244.048C76.8549 243 75.7609 241.317 75.5243 239.569C74.9127 235.051 76.5985 229.621 77.9475 225.335L79.8614 219.098C83.6765 208.476 89.0993 198.531 95.875 189.519C108.068 173.3 125.594 160.121 146.125 157.398L151.767 156.854Z"/>
</svg>
