<?xml version="1.0" encoding="utf-8" ?>
<svg xmlns="http://www.w3.org/2000/svg" xmlns:xlink="http://www.w3.org/1999/xlink" width="512" height="512">
	<path fill="#FA9C2B" d="M262.01 16.8117C263.732 16.7707 265.701 17.2832 267.057 18.375C272.412 22.6876 269.683 27.219 266.99 32.0642C266.848 32.3203 266.191 33.2735 266.181 33.5192C266.171 33.7685 266.567 34.4885 266.679 34.745C272.276 47.5959 283.408 58.3488 285.073 72.75C285.633 77.5957 285.279 83.1443 283.224 87.625C279.307 96.1616 272.761 101.166 264.096 104.282L264.095 121.182C266.892 120.897 269.882 121.095 272.698 121.101C276.43 121.11 280.343 120.945 284.045 121.397C286.794 121.733 289.516 122.135 291.875 123.727C293.594 124.888 294.62 126.66 294.985 128.676C295.693 132.584 295.523 136.47 295.52 140.424L295.429 159.045L295.953 159.035C302.775 159.075 309.687 160.103 316.492 160.63L331.625 161.768C347.658 163.565 363.379 166.809 379 170.748C409.785 178.511 441.157 191.219 463.812 214.187C470.488 220.956 476.118 228.926 480.125 237.541C481.955 241.475 483.584 245.678 484.267 249.983C485.49 257.685 484.879 265.147 480.468 271.761C479.607 273.052 477.719 274.935 477.285 276.362C476.934 277.518 477.285 280.321 477.285 281.619L477.285 301.094L477.209 396.871L483.5 400.217C487.988 402.971 492.264 407.415 494.765 412.069C498.126 418.323 498.705 425.231 496.742 432C495.209 437.287 492.176 442.002 488.288 445.864C483.482 450.638 478.046 454.297 472.25 457.745C460.532 464.717 447.831 469.303 434.816 473.19C412.04 479.993 388.635 483.828 365.107 486.928L331.875 490.537L318.365 491.835L294.509 492.514L282.559 493.393L253.625 493.411L227.176 493.282L219.766 492.625L204.644 491.741L178.557 490.338L138.5 485.986L128.337 484.289C107.179 481.053 86.1327 476.859 65.8618 469.865C55.3863 466.25 45.1574 462.046 35.7264 456.163C27.2404 450.868 17.5815 442.033 15.2839 431.924L15.1903 431.5C14.4718 428.35 14.198 424.894 14.6522 421.679C14.9766 419.383 15.3635 417.201 16.1591 415.008C17.9462 410.081 21.169 405.114 25.3557 401.877C28.1635 399.706 31.4398 398.197 34.631 396.693C35.037 393.968 34.7645 390.895 34.7606 388.134L34.7244 370.532L34.5593 310.008L34.5295 287.75C34.6073 284.688 35.5054 281.12 35.1935 278.131C35.0799 277.042 34.3054 276.149 33.6803 275.303C32.4652 273.656 31.0357 271.995 30.0894 270.18L29.9115 269.827C28.2651 266.604 27.3065 263.077 27.0387 259.472C25.9017 244.164 34.6301 229.315 44.3789 218.193C57.3942 203.344 74.2901 193.058 92.1905 185.17C131.173 167.993 174.247 161.667 216.47 158.949C216.977 156.344 216.661 153.362 216.643 150.702L216.65 137.301C216.641 135.159 216.472 132.988 216.551 130.849C216.648 128.225 217.201 126.118 219.241 124.329C223.44 120.648 230.949 121.345 236.194 121.306C240.17 121.277 244.136 121.229 248.107 121.491L248.268 104.195C246.117 103.561 243.87 102.901 241.859 101.901C235.15 98.5637 230.529 91.9944 228.162 85.0638C227.802 84.01 227.534 83.0247 227.344 81.9261C225.688 72.3251 228.716 63.41 232.377 54.6753C235.849 46.3907 240.419 38.087 245.642 30.7736C249.515 25.349 255.076 17.9768 262.01 16.8117ZM296.055 174.375C295.891 174.542 295.662 174.663 295.563 174.875C295.457 175.1 295.557 175.99 295.555 176.28L295.53 181.219L295.482 199.204C295.468 203.084 295.988 208.132 294.747 211.783C294.002 213.973 292.611 215.628 290.683 216.896C288.906 218.064 286.716 218.76 284.711 219.427C274.231 222.915 262.229 223.539 251.23 223.585C243.792 223.616 236.038 222.754 229.031 220.214C225.765 219.03 222.821 217.658 220.306 215.187C217.127 212.063 216.455 209.4 216.46 205.075L216.549 174.581L202.087 175.495L172.319 178.515L158.981 180.972C138.811 184.76 119.155 189.959 100.294 198.174C84.3453 205.12 69.556 213.886 57.5267 226.641C49.8292 234.803 42.3664 245.785 42.6843 257.48C42.812 262.179 46.358 266.328 49.6209 269.382C55.7682 275.134 63.6718 279.074 71.259 282.559C91.123 291.686 112.357 297.568 133.75 301.788L171.22 307.716L171.26 307.714L186.685 309.368C192.552 310.044 198.606 310.967 204.5 311.238L248.728 311.586L279.545 311.805L295.962 311.765L322.375 309.598L357.336 305.379L367.122 304.09L382.005 300.933L398.194 297.225L419.804 290.585L429.175 287.493L440.784 282.573C447.53 279.615 454.155 276.31 460.019 271.792C464.045 268.69 469.117 264.142 469.736 258.75C470.159 255.065 469.041 251.187 467.768 247.765C464.966 240.236 461.089 234.029 455.944 227.883C452.949 224.307 449.452 221.291 445.862 218.331C436.05 210.242 424.926 204.2 413.357 199.038C397.285 191.868 380.343 186.601 363.152 182.864L338.411 178.744C333.297 178.02 328.283 177.013 323.12 176.573L305.323 175.012C302.294 174.747 299.083 174.212 296.055 174.375ZM49.8222 287.87C49.4962 292.84 49.824 297.94 49.8157 302.928L49.7743 313.529C49.7542 315.835 49.5275 318.401 50.0722 320.658C50.7755 323.573 52.6877 326.22 54.6324 328.447C59.0466 333.503 64.4163 337.105 71.327 337.483C78.8675 337.896 86.1891 336.67 93.6829 336.296C100.057 335.978 106.534 336.642 112.731 338.14C117.727 339.348 122.903 341.452 127.328 344.066C132.388 347.056 137.155 350.72 141.915 354.162C147.473 358.181 153.611 362.496 160.562 363.461C167.916 364.482 175.178 363.564 182.146 361.025C184.147 360.297 186.057 359.299 188.034 358.504C194.46 355.921 201.067 353.678 208.071 353.489C218.596 353.204 227.154 356.75 236.536 361.025C242.35 363.674 248.516 366.455 255 366.755C261.283 367.045 267.967 364.036 273.621 361.594C281.915 358.011 290.55 353.856 299.75 353.51C304.718 353.324 309.88 353.856 314.669 355.21C320.777 356.935 326.537 359.92 332.625 361.742C337.865 363.311 344.064 364.142 349.505 363.444L350.968 363.241C360.599 361.691 367.552 356.16 375.161 350.618C381.446 346.041 388.236 341.416 395.726 339.122C403.639 336.698 411.433 335.917 419.701 336.316C428.304 336.732 437.665 338.985 446.051 336.308C451.195 334.419 457.569 329.88 459.909 324.769C460.397 323.701 460.724 322.631 461.034 321.5C462.867 314.816 462.355 307.403 462.285 300.525C462.247 296.778 462.363 292.95 461.995 289.219L447.383 296.709C440.367 299.968 433.012 302.826 425.706 305.375C407.625 311.683 388.86 315.484 370.055 318.851L353.954 321.91L344.598 323.068L325.446 325.383L308.25 326.495L298.556 327.231L283.427 327.338L257.891 327.349L218.06 327.225C175.276 325.793 132.662 319.416 91.7093 306.835C80.2894 303.326 68.489 299.287 58.0742 293.369C55.1691 291.719 52.652 289.576 49.8222 287.87ZM49.7718 343.876L49.7178 377.356C58.4616 381.075 67.837 383.344 77 385.774L109.53 393.96L132.375 398.738L182.281 405.183L203.625 407.447L219 407.831L229.862 408.383L258.256 408.39L281.24 408.373L293.423 407.818L305.045 407.558C328.883 406.299 352.64 403.308 376.162 399.347L416.388 391.346L443.459 383.625L458.216 378.113C459.566 377.628 460.964 377.349 462.321 376.894L462.408 347.549L462.237 344.42L456.5 348.272C452.688 350.629 448.103 351.637 443.799 352.635C441.381 353.196 438.714 353.112 436.241 353.088C425.732 352.985 414.597 350.094 404.265 352.88C400.829 353.806 397.227 355.049 394.079 356.725C385.601 361.238 378.381 367.968 369.94 372.593C363.871 375.92 356.999 377.982 350.131 378.659C346.538 379.014 342.725 379.312 339.123 378.934C327.795 377.743 318.371 370.666 307.25 369.228C290.398 367.047 276.899 379.903 260.75 381.986C250.341 383.328 240.613 380.31 231.408 375.672C225.138 372.512 218.831 368.94 211.625 368.715C202.088 368.417 193.813 372.619 185.07 375.738C177.593 378.406 169.7 379.911 161.75 379.05L161.38 379.016C141.944 377.111 128.71 359.973 110.828 354.219C105.233 352.418 99.8733 351.528 93.9947 351.709C90.0967 351.829 86.1489 352.649 82.2739 353.08C73.8999 354.012 65.1033 353.336 57.5109 349.489C55.806 348.625 54.2148 347.552 52.7326 346.348C51.7504 345.55 50.8289 344.563 49.7718 343.876ZM472.912 412.021C470.543 415.461 468.186 418.531 465.009 421.286C457.627 427.688 448.546 432.014 439.5 435.522L424.55 440.793L407.347 445.075L386.75 449.499L364.117 452.771L329.386 457.581L314.214 458.657L291.952 460.52L282.313 461.267L258.925 461.235L234.043 460.982L206.214 458.643L182.143 456.533L158.451 454.42L121.339 448.089C106.6 445.151 92.0197 441.768 77.75 437C67.8565 433.694 57.9561 429.879 49.3139 423.928C44.5893 420.674 41.5247 416.724 38.1305 412.175C34.7999 414.321 30.3599 417.718 29.5577 421.828L29.4492 422.5L29.3867 422.809C28.7699 426.136 30.992 430.054 32.8491 432.673L33.9524 434.186C42.8923 444.203 55.6293 449.717 68 454.268C81.5546 459.255 95.6909 462.953 109.875 465.677L133.5 469.493C141.307 470.724 149.148 472.402 157 473.255L177.25 474.783L207.229 476.932L240.375 477.34L283.816 477.784C286.839 477.753 289.839 477.319 292.865 477.223L318.789 476.349L329.625 475.261L347.463 473.449L370.989 470.903L396.761 466.589L412.62 463.559C423.774 461.031 434.847 457.675 445.56 453.678C455.81 449.853 466.603 445.038 474.83 437.7C478.449 434.471 482.162 430.196 482.532 425.125C482.771 421.855 481.629 419.101 479.398 416.726C477.635 414.85 475.297 413.021 472.912 412.021ZM49.6409 393.531C50.7777 400.438 51.5403 406.873 57.6221 411.297C63.4787 415.556 70.5231 418.247 77.2891 420.66C91.1499 425.604 105.571 428.985 120 431.803L149.5 437.76L176.875 441.142L188.401 442.662L214.548 444.713L228.875 445.767L258.516 445.877L284.749 445.706L321.625 442.601L347.5 439.557L359.138 438.016C384.923 433.646 411.439 429.605 436.005 420.326C442.613 417.83 450.056 414.768 455.316 409.941C456.978 408.236 458.448 406.652 459.524 404.5C461.097 401.359 461.352 397.481 461.72 394.031L441.769 400.131L414.359 406.795L401.25 409.996L370.804 415.103L342.039 419.904C337.793 420.454 333.442 420.508 329.169 420.894L307.75 422.518L299.1 423.252L282.219 423.292L252.339 423.196L194.305 422.028C167.304 420.279 140.54 416.046 114.015 410.79L91.0116 405.389L71.5 400.221L49.6409 393.531ZM232.814 136.625L232.112 136.875C231.867 139.274 232.032 141.828 232.036 144.246L232.057 157.631L232.009 204.309C246.982 210.67 262.219 208.558 277.695 205.743C278.487 205.552 279.523 205.436 280.2 204.986L280.144 158.623L280.065 144.175C280.052 141.718 279.816 138.992 280.182 136.575L232.814 136.625ZM254.448 44.9756L254.352 45.1863C253.267 47.5266 251.852 49.7305 250.625 52.0014C246.973 58.7589 242.925 66.6421 242.372 74.3949C242.203 76.7685 242.152 78.8361 242.976 81.1147C244.218 84.552 246.257 87.0681 249.629 88.5979L251.799 89.4056C253.453 90.0255 255.754 90.062 257.523 90.061C261.134 89.463 265.139 88.0989 267.355 84.9947C269.808 81.5573 269.725 77.0535 268.933 73.0795C267.505 65.916 263.713 59.1347 259.847 53.0183C258.131 50.3031 256.421 47.5107 254.448 44.9756Z"/>
	<path fill="#FA9C2B" d="M151.505 231.3C156.398 231.799 161.102 233.466 165.881 234.56C173.237 236.243 181.175 237.326 188.683 238.045L205.072 239.132L216.654 239.813L260.176 239.594L308.266 239.203C320.424 238.807 332.472 237.066 344.405 234.802L353.408 232.876C355.041 232.5 356.665 231.974 358.335 231.788C360.263 231.573 362.122 231.732 363.918 232.497C365.408 233.131 366.353 234.261 366.923 235.769C367.729 237.901 367.578 239.989 366.626 242.048C365.315 244.882 363.09 246.073 360.303 247.057C356.46 248.101 352.596 249.258 348.694 250.051C342.399 251.331 336.091 251.951 329.717 252.627L313.44 254.214C299.884 255.201 286.126 254.639 272.538 254.781L233.795 255.197L213.602 255.267L205.652 254.673L197.022 254.32L167.983 250.822L156.678 248.596C153.912 247.915 150.993 247.209 148.486 245.816C146.614 244.775 145.141 243.088 144.589 240.996C144.101 239.145 144.602 237.037 145.625 235.469C147.101 233.208 148.856 231.856 151.505 231.3Z"/>
</svg>
